<?xml version="1.0" encoding="UTF-8"?><svg id="_Шар_1" xmlns="http://www.w3.org/2000/svg" xmlns:xlink="http://www.w3.org/1999/xlink" viewBox="0 0 100 72.0828825"><defs><style>.cls-1{fill:url(#linear-gradient-2);}.cls-2{fill:#191919;}.cls-3{fill:url(#linear-gradient);}</style><linearGradient id="linear-gradient" x1="16.5593708" y1="51.8787426" x2="83.4324781" y2="51.8787426" gradientUnits="userSpaceOnUse"><stop offset="0" stop-color="#b1b1b1"/><stop offset="1" stop-color="#333"/></linearGradient><linearGradient id="linear-gradient-2" x1="17.0577613" y1="47.4734609" x2="85.6285861" y2="-2.8964659" xlink:href="#linear-gradient"/></defs><path class="cls-3" d="M16.5593708,31.6746027v26.8321658c0,2.7761395,1.5541247,5.3217946,4.0339906,6.5696792,6.1507304,3.0950875,16.2607248,6.9556587,29.1479438,7.005939,13.1369461.0512422,23.4405216-3.8792359,29.654124-7.0047423,2.4812848-1.248112,4.037049-3.7938096,4.037049-6.5713189v-26.8317227H16.5593708Z"/><path class="cls-2" d="M26.2527583,35.5736921v20.5258008c0,.2106342.2597771.3102808.4006427.1536806l3.4698615-3.8574429c.0471161-.0523789.1261208-.0608611.183282-.0196778l3.5369273,2.548271c.1484651.1069655.3563086.0059475.3639263-.1768789l.6486231-15.5670208-8.6032629-3.6067319Z"/><path class="cls-1" d="M1.0314549,21.6693875L48.7267637.1549375c.4533965-.2045186.9723595-.2066523,1.4274225-.0058689l48.8012048,21.5321266c1.3944448.6152586,1.3923226,2.5945942-.0034385,3.2068611l-48.2281084,21.1558245c-.4485032.1967412-.9588876.1967412-1.4073908,0L1.0480482,24.8703797c-1.3894999-.6095204-1.3996994-2.5770993-.0165932-3.2009923Z"/></svg>