<?xml version="1.0" encoding="UTF-8"?><svg id="_Шар_1" xmlns="http://www.w3.org/2000/svg" xmlns:xlink="http://www.w3.org/1999/xlink" viewBox="0 0 97.9152819 100"><defs><style>.cls-1{fill:url(#linear-gradient-2);}.cls-2{fill:#191919;}.cls-3{fill:url(#linear-gradient);}</style><linearGradient id="linear-gradient" x1="6.8836749" y1="129.5264659" x2="100.5317833" y2="2.5459799" gradientUnits="userSpaceOnUse"><stop offset="0" stop-color="#b1b1b1"/><stop offset="1" stop-color="#333"/></linearGradient><linearGradient id="linear-gradient-2" x1="14.6242801" y1="85.0164163" x2="91.504616" y2="-19.2281069" xlink:href="#linear-gradient"/></defs><path class="cls-3" d="M7.0683353,48.9805736h83.7786113v45.0190261c0,3.3114901-2.6885099,6-6,6H13.0683353c-3.3114901,0-6-2.6885099-6-6v-45.0190261h0Z"/><path class="cls-2" d="M48.9572297,33.7792009h-15.8959847c-.3739953,0-.742073-.0863977-1.0770118-.2520918-8.4101606-4.1695744-12.3678833-11.1518067-10.8576996-19.1566085C22.511263,7.0237413,28.4194422.6273561,34.2968497.1125208c13.4993375-1.182346,16.8013848,7.4183629,16.9363071,7.7852571.0982329.2674777.1479412.5503412.1479412.8349801v22.6225746c0,1.3385719-1.0852966,2.4238684-2.4238684,2.4238684ZM33.6435415,28.9314641h12.8898198V9.2671215c-.6284542-1.1432895-3.4275014-5.0572216-11.8128079-4.3258003-3.3044144.2899647-7.78289,4.7678486-8.8303136,10.3274784-.621353,3.2908038-.4130518,9.3836136,7.7533018,13.6626645Z"/><path class="cls-2" d="M64.8543979,33.7792009h-15.8971682c-1.3385719,0-2.4238684-1.0852966-2.4238684-2.4238684V8.7327579c0-.2846388.0497082-.5675024.1479412-.8349801.1349224-.3668941,3.4499885-8.9735207,16.9363071-7.7852571,5.8774075.5148353,11.7867703,6.9112205,13.1714998,14.2579799,1.5101836,8.0048018-2.447539,14.9870341-10.8576996,19.1566085-.3349388.1656941-.7030165.2520918-1.0770118.2520918ZM51.3810981,28.9314641h12.8910033c8.1663536-4.2790509,8.3746547-10.3718608,7.7533018-13.6626645-1.0486071-5.5596298-5.5270828-10.0375137-8.8314971-10.3274784-8.3545347-.7326048-11.1583161,3.1458214-11.8128079,4.3329015v19.6572415Z"/><rect class="cls-1" y="27.9448398" width="97.9152819" height="21.0357338" rx="3.1099423" ry="3.1099423"/><rect class="cls-2" x="46.3996733" y="48.9802751" width="5.115377" height="51.0197249"/></svg>