<?xml version="1.0" encoding="UTF-8"?><svg id="_Шар_1" xmlns="http://www.w3.org/2000/svg" xmlns:xlink="http://www.w3.org/1999/xlink" viewBox="0 0 100 100"><defs><style>.cls-1{fill:#6f6f6f;}.cls-2{fill:#757575;}.cls-3{fill:#525252;}.cls-4{fill:#646464;}.cls-5{fill:#5f5f5f;}.cls-6{fill:#585858;}.cls-7{fill:#5a5a5a;}.cls-8{fill:#4f4f4f;}.cls-9{fill:#7c7c7c;}.cls-10{fill:#898989;}.cls-11{fill:#7b7b7b;}.cls-12{fill:#434343;}.cls-13{fill:#8b8b8b;}.cls-14{fill:#9c9c9c;}.cls-15{fill:#797979;}.cls-16{fill:#838383;}.cls-17{fill:url(#linear-gradient-2);}.cls-18{fill:#9a9a9a;}.cls-19{fill:#777;}.cls-20{fill:#a7a7a7;}.cls-21{fill:#4a4a4a;}.cls-22{fill:#848484;}.cls-23{fill:#7d7d7d;}.cls-24{fill:#4e4e4e;}.cls-25{fill:#3e3e3e;}.cls-26{fill:#505050;}.cls-27{fill:#767676;}.cls-28{fill:#494949;}.cls-29{fill:#3f3f3f;}.cls-30{fill:#9f9f9f;}.cls-31{fill:#4d4d4d;}.cls-32{fill:#7e7e7e;}.cls-33{fill:#8f8f8f;}.cls-34{fill:#626262;}.cls-35{fill:#a4a4a4;}.cls-36{fill:#5e5e5e;}.cls-37{fill:#a6a6a6;}.cls-38{fill:#6e6e6e;}.cls-39{fill:#424242;}.cls-40{fill:#5b5b5b;}.cls-41{fill:#9b9b9b;}.cls-42{fill:#606060;}.cls-43{fill:#535353;}.cls-44{fill:none;}.cls-45{fill:#4c4c4c;}.cls-46{fill:url(#linear-gradient-4);}.cls-47{fill:#8d8d8d;}.cls-48{fill:#6a6a6a;}.cls-49{fill:#8e8e8e;}.cls-50{fill:url(#linear-gradient-3);}.cls-51{clip-path:url(#clippath-1);}.cls-52{fill:#8a8a8a;}.cls-53{fill:#404040;}.cls-54{fill:#a0a0a0;}.cls-55{fill:#737373;}.cls-56{fill:#929292;}.cls-57{fill:#909090;}.cls-58{fill:#636363;}.cls-59{fill:#454545;}.cls-60{fill:#6c6c6c;}.cls-61{fill:#656565;}.cls-62{fill:#575757;}.cls-63{fill:#686868;}.cls-64{fill:#666;}.cls-65{fill:#8c8c8c;}.cls-66{fill:#444;}.cls-67{fill:#939393;}.cls-68{fill:#878787;}.cls-69{fill:#555;}.cls-70{fill:#969696;}.cls-71{fill:#868686;}.cls-72{fill:#6d6d6d;}.cls-73{fill:#616161;}.cls-74{fill:#717171;}.cls-75{fill:#474747;}.cls-76{fill:#595959;}.cls-77{fill:#999;}.cls-78{fill:#747474;}.cls-79{fill:#a8a8a8;}.cls-80{fill:#191919;}.cls-81{fill:#515151;}.cls-82{fill:#9e9e9e;}.cls-83{fill:#919191;}.cls-84{fill:#858585;}.cls-85{fill:#888;}.cls-86{fill:#484848;}.cls-87{fill:#464646;}.cls-88{fill:#828282;}.cls-89{fill:#696969;}.cls-90{fill:#545454;}.cls-91{fill:#a5a5a5;}.cls-92{fill:#6b6b6b;}.cls-93{fill:#a9a9a9;}.cls-94{fill:#959595;}.cls-95{fill:#949494;}.cls-96{fill:#979797;}.cls-97{fill:#a3a3a3;}.cls-98{fill:#ababab;}.cls-99{fill:#aaa;}.cls-100{fill:gray;}.cls-101{fill:#7f7f7f;}.cls-102{fill:#565656;}.cls-103{fill:#4b4b4b;}.cls-104{fill:#5d5d5d;}.cls-105{fill:#a1a1a1;}.cls-106{fill:url(#linear-gradient);}.cls-107{fill:#7a7a7a;}.cls-108{fill:#9d9d9d;}.cls-109{fill:#676767;}.cls-110{clip-path:url(#clippath);}.cls-111{fill:#787878;}.cls-112{fill:#707070;}.cls-113{fill:#5c5c5c;}.cls-114{fill:#414141;}.cls-115{fill:#818181;}.cls-116{fill:#989898;}.cls-117{fill:#a2a2a2;}</style><clipPath id="clippath"><circle class="cls-44" cx="50" cy="50" r="50"/></clipPath><clipPath id="clippath-1"><circle class="cls-44" cx="50" cy="50" r="43.7754135"/></clipPath><linearGradient id="linear-gradient" x1="47.576536" y1="9.8532477" x2="52.4240708" y2="9.8532477" gradientUnits="userSpaceOnUse"><stop offset="0" stop-color="#b1b1b1"/><stop offset="1" stop-color="#333"/></linearGradient><linearGradient id="linear-gradient-2" y1="90.1464589" y2="90.1464589" xlink:href="#linear-gradient"/><linearGradient id="linear-gradient-3" x1="81.6702324" y1="49.9998533" x2="98.6235856" y2="49.9998533" xlink:href="#linear-gradient"/><linearGradient id="linear-gradient-4" x1="1.3770212" y1="49.9998533" x2="18.3303744" y2="49.9998533" xlink:href="#linear-gradient"/></defs><g class="cls-110"><polygon class="cls-98" points="-.0000002 99.7726253 .4179677 100.0000003 -.0000002 100.0000003 -.0000002 99.7726253"/><polygon class="cls-99" points="-.0000002 98.3573136 3.0196442 100.0000003 .4179677 100.0000003 -.0000002 99.7726253 -.0000002 98.3573136"/><polygon class="cls-93" points="-.0000002 96.9420014 5.6213214 100.0000003 3.0196442 100.0000003 -.0000002 98.3573136 -.0000002 96.9420014"/><polygon class="cls-79" points="-.0000002 95.5266891 8.2229979 100.0000003 5.6213214 100.0000003 -.0000002 96.9420014 -.0000002 95.5266891"/><polygon class="cls-20" points="-.0000002 94.1113769 10.8246745 100.0000003 8.2229979 100.0000003 -.0000002 95.5266891 -.0000002 94.1113769"/><polygon class="cls-37" points="-.0000002 92.6960646 13.426351 100.0000003 10.8246745 100.0000003 -.0000002 94.1113769 -.0000002 92.6960646"/><polygon class="cls-91" points="-.0000002 91.280753 16.0280282 100.0000003 13.426351 100.0000003 -.0000002 92.6960646 -.0000002 91.280753"/><polygon class="cls-35" points="-.0000002 89.8654407 18.6297047 100.0000003 16.0280282 100.0000003 -.0000002 91.280753 -.0000002 89.8654407"/><polygon class="cls-97" points="-.0000002 88.4501285 21.2313813 100.0000003 18.6297047 100.0000003 -.0000002 89.8654407 -.0000002 88.4501285"/><polygon class="cls-117" points="-.0000002 87.0348162 23.8330584 100.0000003 21.2313813 100.0000003 -.0000002 88.4501285 -.0000002 87.0348162"/><polygon class="cls-105" points="-.0000002 85.619504 26.434735 100.0000003 23.8330584 100.0000003 -.0000002 87.0348162 -.0000002 85.619504"/><polygon class="cls-54" points="-.0000002 84.2041923 29.0364116 100.0000003 26.434735 100.0000003 -.0000002 85.619504 -.0000002 84.2041923"/><polygon class="cls-30" points="-.0000002 82.7888801 31.6380881 100.0000003 29.0364116 100.0000003 -.0000002 84.2041923 -.0000002 82.7888801"/><polygon class="cls-82" points="-.0000002 81.3735678 34.2397652 100.0000003 31.6380881 100.0000003 -.0000002 82.7888801 -.0000002 81.3735678"/><polygon class="cls-108" points="-.0000002 79.9582556 36.8414418 100.0000003 34.2397652 100.0000003 -.0000002 81.3735678 -.0000002 79.9582556"/><polygon class="cls-14" points="-.0000002 78.5429433 39.4431184 100.0000003 36.8414418 100.0000003 -.0000002 79.9582556 -.0000002 78.5429433"/><polygon class="cls-41" points="-.0000002 77.1276311 42.0447955 100.0000003 39.4431184 100.0000003 -.0000002 78.5429433 -.0000002 77.1276311"/><polygon class="cls-18" points="-.0000002 75.7123194 44.6464721 100.0000003 42.0447955 100.0000003 -.0000002 77.1276311 -.0000002 75.7123194"/><polygon class="cls-77" points="-.0000002 74.2970072 47.2481486 100.0000003 44.6464721 100.0000003 -.0000002 75.7123194 -.0000002 74.2970072"/><polygon class="cls-116" points="-.0000002 72.8816949 49.8498252 100.0000003 47.2481486 100.0000003 -.0000002 74.2970072 -.0000002 72.8816949"/><polygon class="cls-96" points="-.0000002 71.4663827 52.4515023 100.0000003 49.8498252 100.0000003 -.0000002 72.8816949 -.0000002 71.4663827"/><polygon class="cls-70" points="-.0000002 70.0510704 55.0531789 100.0000003 52.4515023 100.0000003 -.0000002 71.4663827 -.0000002 70.0510704"/><polygon class="cls-94" points="-.0000002 68.6357588 57.6548554 100.0000003 55.0531789 100.0000003 -.0000002 70.0510704 -.0000002 68.6357588"/><polygon class="cls-95" points="-.0000002 67.2204465 60.2565326 100.0000003 57.6548554 100.0000003 -.0000002 68.6357588 -.0000002 67.2204465"/><polygon class="cls-67" points="-.0000002 65.8051343 62.8582091 100.0000003 60.2565326 100.0000003 -.0000002 67.2204465 -.0000002 65.8051343"/><polygon class="cls-56" points="-.0000002 64.389822 65.4598857 100.0000003 62.8582091 100.0000003 -.0000002 65.8051343 -.0000002 64.389822"/><polygon class="cls-83" points="-.0000002 62.9745098 68.0615622 100.0000003 65.4598857 100.0000003 -.0000002 64.389822 -.0000002 62.9745098"/><polygon class="cls-57" points="-.0000002 61.5591981 70.6632394 100.0000003 68.0615622 100.0000003 -.0000002 62.9745098 -.0000002 61.5591981"/><polygon class="cls-33" points="-.0000002 60.1438859 73.2649159 100.0000003 70.6632394 100.0000003 -.0000002 61.5591981 -.0000002 60.1438859"/><polygon class="cls-49" points="-.0000002 58.7285736 75.8665925 100.0000003 73.2649159 100.0000003 -.0000002 60.1438859 -.0000002 58.7285736"/><polygon class="cls-47" points="-.0000002 57.3132614 78.4682696 100.0000003 75.8665925 100.0000003 -.0000002 58.7285736 -.0000002 57.3132614"/><polygon class="cls-65" points="-.0000002 55.8979491 81.0699462 100.0000003 78.4682696 100.0000003 -.0000002 57.3132614 -.0000002 55.8979491"/><polygon class="cls-13" points="-.0000002 54.4826375 83.6716227 100.0000003 81.0699462 100.0000003 -.0000002 55.8979491 -.0000002 54.4826375"/><polygon class="cls-52" points="-.0000002 53.0673252 86.2732993 100.0000003 83.6716227 100.0000003 -.0000002 54.4826375 -.0000002 53.0673252"/><polygon class="cls-10" points="-.0000002 51.652013 88.8749764 100.0000003 86.2732993 100.0000003 -.0000002 53.0673252 -.0000002 51.652013"/><polygon class="cls-85" points="-.0000002 50.2367007 90.7857924 99.6241719 90.5813422 100.0000003 88.8749764 100.0000003 -.0000002 51.652013 -.0000002 50.2367007"/><polygon class="cls-68" points="-.0000002 48.8213885 91.3799035 98.5320561 90.7857924 99.6241719 -.0000002 50.2367007 -.0000002 48.8213885"/><polygon class="cls-71" points="-.0000002 47.4060762 91.9740146 97.4399403 91.3799035 98.5320561 -.0000002 48.8213885 -.0000002 47.4060762"/><polygon class="cls-84" points="-.0000002 45.9907646 92.5681257 96.3478244 91.9740146 97.4399403 -.0000002 47.4060762 -.0000002 45.9907646"/><polygon class="cls-22" points="-.0000002 44.5754523 93.1622367 95.2557092 92.5681257 96.3478244 -.0000002 45.9907646 -.0000002 44.5754523"/><polygon class="cls-16" points="-.0000002 43.1601401 93.7563472 94.1635933 93.1622367 95.2557092 -.0000002 44.5754523 -.0000002 43.1601401"/><polygon class="cls-88" points="-.0000002 41.7448278 94.3504583 93.0714775 93.7563472 94.1635933 -.0000002 43.1601401 -.0000002 41.7448278"/><polygon class="cls-115" points="-.0000002 40.3295156 94.9445694 91.9793617 94.3504583 93.0714775 -.0000002 41.7448278 -.0000002 40.3295156"/><polygon class="cls-100" points="-.0000002 38.9142039 95.5386805 90.8872458 94.9445694 91.9793617 -.0000002 40.3295156 -.0000002 38.9142039"/><polygon class="cls-100" points="-.0000002 37.4988917 96.1327916 89.79513 95.5386805 90.8872458 -.0000002 38.9142039 -.0000002 37.4988917"/><polygon class="cls-101" points="-.0000002 36.0835794 96.7269027 88.7030142 96.1327916 89.79513 -.0000002 37.4988917 -.0000002 36.0835794"/><polygon class="cls-32" points="-.0000002 34.6682672 97.3210132 87.6108983 96.7269027 88.7030142 -.0000002 36.0835794 -.0000002 34.6682672"/><polygon class="cls-23" points="-.0000002 33.2529549 97.9151243 86.5187831 97.3210132 87.6108983 -.0000002 34.6682672 -.0000002 33.2529549"/><polygon class="cls-9" points="-.0000002 31.8376433 98.5092353 85.4266672 97.9151243 86.5187831 -.0000002 33.2529549 -.0000002 31.8376433"/><polygon class="cls-11" points="-.0000002 30.422331 99.1033464 84.3345514 98.5092353 85.4266672 -.0000002 31.8376433 -.0000002 30.422331"/><polygon class="cls-107" points="-.0000002 29.0070188 99.6974575 83.2424356 99.1033464 84.3345514 -.0000002 30.422331 -.0000002 29.0070188"/><polygon class="cls-15" points="-.0000002 27.5917065 100.0000002 81.9917068 100.0000002 82.6862906 99.6974575 83.2424356 -.0000002 29.0070188 -.0000002 27.5917065"/><polygon class="cls-111" points="-.0000002 26.1763943 100.0000002 80.5763946 100.0000002 81.9917068 -.0000002 27.5917065 -.0000002 26.1763943"/><polygon class="cls-19" points="-.0000002 24.761082 100.0000002 79.1610823 100.0000002 80.5763946 -.0000002 26.1763943 -.0000002 24.761082"/><polygon class="cls-27" points="-.0000002 23.3457704 100.0000002 77.7457701 100.0000002 79.1610823 -.0000002 24.761082 -.0000002 23.3457704"/><polygon class="cls-2" points="-.0000002 21.9304581 100.0000002 76.3304578 100.0000002 77.7457701 -.0000002 23.3457704 -.0000002 21.9304581"/><polygon class="cls-78" points="-.0000002 20.5151459 100.0000002 74.9151461 100.0000002 76.3304578 -.0000002 21.9304581 -.0000002 20.5151459"/><polygon class="cls-55" points="-.0000002 19.0998336 100.0000002 73.4998339 100.0000002 74.9151461 -.0000002 20.5151459 -.0000002 19.0998336"/><polygon class="cls-74" points="-.0000002 17.6845214 100.0000002 72.0845217 100.0000002 73.4998339 -.0000002 19.0998336 -.0000002 17.6845214"/><polygon class="cls-112" points="-.0000002 17.313709 .4384538 16.5077283 100.0000002 70.6692094 100.0000002 72.0845217 -.0000002 17.6845214 -.0000002 17.313709"/><polygon class="cls-1" points=".4384538 16.5077283 1.0325649 15.4156125 100.0000002 69.2538972 100.0000002 70.6692094 .4384538 16.5077283"/><polygon class="cls-38" points="1.0325649 15.4156125 1.6266754 14.3234967 100.0000002 67.8385855 100.0000002 69.2538972 1.0325649 15.4156125"/><polygon class="cls-72" points="1.6266754 14.3234967 2.2207865 13.2313808 100.0000002 66.4232732 100.0000002 67.8385855 1.6266754 14.3234967"/><polygon class="cls-60" points="2.2207865 13.2313808 2.8148975 12.139265 100.0000002 65.007961 100.0000002 66.4232732 2.2207865 13.2313808"/><polygon class="cls-92" points="2.8148975 12.139265 3.4090086 11.0471492 100.0000002 63.5926488 100.0000002 65.007961 2.8148975 12.139265"/><polygon class="cls-48" points="3.4090086 11.0471492 4.0031197 9.9550339 100.0000002 62.1773365 100.0000002 63.5926488 3.4090086 11.0471492"/><polygon class="cls-89" points="4.0031197 9.9550339 4.5972302 8.8629181 100.0000002 60.7620243 100.0000002 62.1773365 4.0031197 9.9550339"/><polygon class="cls-63" points="4.5972302 8.8629181 5.1913413 7.7708022 100.0000002 59.3467126 100.0000002 60.7620243 4.5972302 8.8629181"/><polygon class="cls-109" points="5.1913413 7.7708022 5.7854524 6.6786864 100.0000002 57.9314003 100.0000002 59.3467126 5.1913413 7.7708022"/><polygon class="cls-64" points="5.7854524 6.6786864 6.3795635 5.5865706 100.0000002 56.5160881 100.0000002 57.9314003 5.7854524 6.6786864"/><polygon class="cls-61" points="6.3795635 5.5865706 6.9736746 4.4944547 100.0000002 55.1007759 100.0000002 56.5160881 6.3795635 5.5865706"/><polygon class="cls-4" points="6.9736746 4.4944547 7.5677851 3.4023389 100.0000002 53.6854636 100.0000002 55.1007759 6.9736746 4.4944547"/><polygon class="cls-58" points="7.5677851 3.4023389 8.1618961 2.3102231 100.0000002 52.2701519 100.0000002 53.6854636 7.5677851 3.4023389"/><polygon class="cls-34" points="8.1618961 2.3102231 8.7560072 1.2181078 100.0000002 50.8548397 100.0000002 52.2701519 8.1618961 2.3102231"/><polygon class="cls-73" points="8.7560072 1.2181078 9.3501183 .125992 100.0000002 49.4395274 100.0000002 50.8548397 8.7560072 1.2181078"/><polygon class="cls-42" points="9.3501183 .125992 9.4186579 -.0000001 11.7201922 -.0000001 100.0000002 48.0242152 100.0000002 49.4395274 9.3501183 .125992"/><polygon class="cls-5" points="14.3218693 -.0000001 100.0000002 46.608903 100.0000002 48.0242152 11.7201922 -.0000001 14.3218693 -.0000001"/><polygon class="cls-36" points="16.9235459 -.0000001 100.0000002 45.1935913 100.0000002 46.608903 14.3218693 -.0000001 16.9235459 -.0000001"/><polygon class="cls-104" points="19.5252225 -.0000001 100.0000002 43.778279 100.0000002 45.1935913 16.9235459 -.0000001 19.5252225 -.0000001"/><polygon class="cls-113" points="22.1268996 -.0000001 100.0000002 42.3629668 100.0000002 43.778279 19.5252225 -.0000001 22.1268996 -.0000001"/><polygon class="cls-40" points="24.7285761 -.0000001 100.0000002 40.9476545 100.0000002 42.3629668 22.1268996 -.0000001 24.7285761 -.0000001"/><polygon class="cls-7" points="27.3302527 -.0000001 100.0000002 39.5323423 100.0000002 40.9476545 24.7285761 -.0000001 27.3302527 -.0000001"/><polygon class="cls-76" points="29.9319293 -.0000001 100.0000002 38.1170301 100.0000002 39.5323423 27.3302527 -.0000001 29.9319293 -.0000001"/><polygon class="cls-6" points="32.5336064 -.0000001 100.0000002 36.7017184 100.0000002 38.1170301 29.9319293 -.0000001 32.5336064 -.0000001"/><polygon class="cls-62" points="35.135283 -.0000001 100.0000002 35.2864061 100.0000002 36.7017184 32.5336064 -.0000001 35.135283 -.0000001"/><polygon class="cls-102" points="37.7369595 -.0000001 100.0000002 33.8710939 100.0000002 35.2864061 35.135283 -.0000001 37.7369595 -.0000001"/><polygon class="cls-69" points="40.3386366 -.0000001 100.0000002 32.4557816 100.0000002 33.8710939 37.7369595 -.0000001 40.3386366 -.0000001"/><polygon class="cls-90" points="42.9403132 -.0000001 100.0000002 31.0404694 100.0000002 32.4557816 40.3386366 -.0000001 42.9403132 -.0000001"/><polygon class="cls-43" points="45.5419898 -.0000001 100.0000002 29.6251577 100.0000002 31.0404694 42.9403132 -.0000001 45.5419898 -.0000001"/><polygon class="cls-3" points="48.1436663 -.0000001 100.0000002 28.2098455 100.0000002 29.6251577 45.5419898 -.0000001 48.1436663 -.0000001"/><polygon class="cls-81" points="50.7453435 -.0000001 100.0000002 26.7945332 100.0000002 28.2098455 48.1436663 -.0000001 50.7453435 -.0000001"/><polygon class="cls-26" points="53.34702 -.0000001 100.0000002 25.379221 100.0000002 26.7945332 50.7453435 -.0000001 53.34702 -.0000001"/><polygon class="cls-8" points="55.9486966 -.0000001 100.0000002 23.9639087 100.0000002 25.379221 53.34702 -.0000001 55.9486966 -.0000001"/><polygon class="cls-24" points="58.5503737 -.0000001 100.0000002 22.5485971 100.0000002 23.9639087 55.9486966 -.0000001 58.5503737 -.0000001"/><polygon class="cls-31" points="61.1520503 -.0000001 100.0000002 21.1332848 100.0000002 22.5485971 58.5503737 -.0000001 61.1520503 -.0000001"/><polygon class="cls-45" points="63.7537268 -.0000001 100.0000002 19.7179726 100.0000002 21.1332848 61.1520503 -.0000001 63.7537268 -.0000001"/><polygon class="cls-103" points="66.3554034 -.0000001 100.0000002 18.3026603 100.0000002 19.7179726 63.7537268 -.0000001 66.3554034 -.0000001"/><polygon class="cls-21" points="68.9570805 -.0000001 100.0000002 16.8873481 100.0000002 18.3026603 66.3554034 -.0000001 68.9570805 -.0000001"/><polygon class="cls-28" points="71.5587571 -.0000001 100.0000002 15.4720364 100.0000002 16.8873481 68.9570805 -.0000001 71.5587571 -.0000001"/><polygon class="cls-86" points="74.1604336 -.0000001 100.0000002 14.0567242 100.0000002 15.4720364 71.5587571 -.0000001 74.1604336 -.0000001"/><polygon class="cls-75" points="76.7621108 -.0000001 100.0000002 12.6414119 100.0000002 14.0567242 74.1604336 -.0000001 76.7621108 -.0000001"/><polygon class="cls-87" points="79.3637873 -.0000001 100.0000002 11.2260997 100.0000002 12.6414119 76.7621108 -.0000001 79.3637873 -.0000001"/><polygon class="cls-59" points="81.9654639 -.0000001 100.0000002 9.8107874 100.0000002 11.2260997 79.3637873 -.0000001 81.9654639 -.0000001"/><polygon class="cls-66" points="84.5671404 -.0000001 100.0000002 8.3954752 100.0000002 9.8107874 81.9654639 -.0000001 84.5671404 -.0000001"/><polygon class="cls-12" points="87.1688176 -.0000001 100.0000002 6.9801635 100.0000002 8.3954752 84.5671404 -.0000001 87.1688176 -.0000001"/><polygon class="cls-39" points="89.7704941 -.0000001 100.0000002 5.5648513 100.0000002 6.9801635 87.1688176 -.0000001 89.7704941 -.0000001"/><polygon class="cls-114" points="92.3721707 -.0000001 100.0000002 4.149539 100.0000002 5.5648513 89.7704941 -.0000001 92.3721707 -.0000001"/><polygon class="cls-53" points="94.9738478 -.0000001 100.0000002 2.7342268 100.0000002 4.149539 92.3721707 -.0000001 94.9738478 -.0000001"/><polygon class="cls-29" points="97.5755244 -.0000001 100.0000002 1.3189145 100.0000002 2.7342268 94.9738478 -.0000001 97.5755244 -.0000001"/><polygon class="cls-25" points="100.0000002 1.3189145 97.5755244 -.0000001 100.0000002 -.0000001 100.0000002 1.3189145"/></g><g class="cls-51"><polygon class="cls-93" points="98.0247505 99.1360887 99.1360886 93.7016009 99.1360886 99.1360887 98.0247505 99.1360887"/><polygon class="cls-79" points="96.5025049 99.1360887 99.1360886 86.2577598 99.1360886 93.7016009 98.0247505 99.1360887 96.5025049 99.1360887"/><polygon class="cls-20" points="94.9802593 99.1360887 99.1360886 78.8139193 99.1360886 86.2577598 96.5025049 99.1360887 94.9802593 99.1360887"/><polygon class="cls-37" points="93.4580137 99.1360887 99.1360886 71.3700781 99.1360886 78.8139193 94.9802593 99.1360887 93.4580137 99.1360887"/><polygon class="cls-91" points="91.9357682 99.1360887 99.1360886 63.9262376 99.1360886 71.3700781 93.4580137 99.1360887 91.9357682 99.1360887"/><polygon class="cls-35" points="90.4135226 99.1360887 99.1360886 56.4823971 99.1360886 63.9262376 91.9357682 99.1360887 90.4135226 99.1360887"/><polygon class="cls-97" points="88.891277 99.1360887 99.1360886 49.0385559 99.1360886 56.4823971 90.4135226 99.1360887 88.891277 99.1360887"/><polygon class="cls-117" points="87.3690315 99.1360887 99.1360886 41.5947154 99.1360886 49.0385559 88.891277 99.1360887 87.3690315 99.1360887"/><polygon class="cls-105" points="85.8467859 99.1360887 99.1360886 34.1508748 99.1360886 41.5947154 87.3690315 99.1360887 85.8467859 99.1360887"/><polygon class="cls-54" points="84.3245409 99.1360887 99.1360886 26.7070337 99.1360886 34.1508748 85.8467859 99.1360887 84.3245409 99.1360887"/><polygon class="cls-30" points="82.8022953 99.1360887 99.1360886 19.2631932 99.1360886 26.7070337 84.3245409 99.1360887 82.8022953 99.1360887"/><polygon class="cls-82" points="81.2800497 99.1360887 99.1360886 11.819352 99.1360886 19.2631932 82.8022953 99.1360887 81.2800497 99.1360887"/><polygon class="cls-108" points="79.7578042 99.1360887 98.5635362 7.1753158 99.1360886 7.2924012 99.1360886 11.819352 81.2800497 99.1360887 79.7578042 99.1360887"/><polygon class="cls-14" points="78.2355586 99.1360887 97.1023941 6.876516 98.5635362 7.1753158 79.7578042 99.1360887 78.2355586 99.1360887"/><polygon class="cls-41" points="76.713313 99.1360887 95.6412526 6.5777161 97.1023941 6.876516 78.2355586 99.1360887 76.713313 99.1360887"/><polygon class="cls-18" points="75.1910674 99.1360887 94.1801106 6.2789169 95.6412526 6.5777161 76.713313 99.1360887 75.1910674 99.1360887"/><polygon class="cls-77" points="73.6688219 99.1360887 92.7189685 5.980117 94.1801106 6.2789169 75.1910674 99.1360887 73.6688219 99.1360887"/><polygon class="cls-116" points="72.1465763 99.1360887 91.2578271 5.6813177 92.7189685 5.980117 73.6688219 99.1360887 72.1465763 99.1360887"/><polygon class="cls-96" points="70.6243307 99.1360887 89.796685 5.3825179 91.2578271 5.6813177 72.1465763 99.1360887 70.6243307 99.1360887"/><polygon class="cls-70" points="69.1020857 99.1360887 88.3355435 5.0837186 89.796685 5.3825179 70.6243307 99.1360887 69.1020857 99.1360887"/><polygon class="cls-94" points="67.5798402 99.1360887 86.8744015 4.7849188 88.3355435 5.0837186 69.1020857 99.1360887 67.5798402 99.1360887"/><polygon class="cls-95" points="66.0575946 99.1360887 85.41326 4.4861195 86.8744015 4.7849188 67.5798402 99.1360887 66.0575946 99.1360887"/><polygon class="cls-67" points="64.535349 99.1360887 83.9521179 4.1873197 85.41326 4.4861195 66.0575946 99.1360887 64.535349 99.1360887"/><polygon class="cls-56" points="63.0131034 99.1360887 82.4909765 3.8885198 83.9521179 4.1873197 64.535349 99.1360887 63.0131034 99.1360887"/><polygon class="cls-83" points="61.4908579 99.1360887 81.0298344 3.5897206 82.4909765 3.8885198 63.0131034 99.1360887 61.4908579 99.1360887"/><polygon class="cls-57" points="59.9686123 99.1360887 79.5686924 3.2909207 81.0298344 3.5897206 61.4908579 99.1360887 59.9686123 99.1360887"/><polygon class="cls-33" points="58.4463667 99.1360887 78.1075509 2.9921214 79.5686924 3.2909207 59.9686123 99.1360887 58.4463667 99.1360887"/><polygon class="cls-49" points="56.9241212 99.1360887 76.6464088 2.6933216 78.1075509 2.9921214 58.4463667 99.1360887 56.9241212 99.1360887"/><polygon class="cls-47" points="55.4018762 99.1360887 75.1852674 2.3945223 76.6464088 2.6933216 56.9241212 99.1360887 55.4018762 99.1360887"/><polygon class="cls-65" points="53.8796306 99.1360887 73.7241253 2.0957225 75.1852674 2.3945223 55.4018762 99.1360887 53.8796306 99.1360887"/><polygon class="cls-13" points="52.357385 99.1360887 72.2629838 1.7969232 73.7241253 2.0957225 53.8796306 99.1360887 52.357385 99.1360887"/><polygon class="cls-52" points="50.8351394 99.1360887 70.8018418 1.4981234 72.2629838 1.7969232 52.357385 99.1360887 50.8351394 99.1360887"/><polygon class="cls-10" points="49.3128939 99.1360887 69.3407003 1.1993241 70.8018418 1.4981234 50.8351394 99.1360887 49.3128939 99.1360887"/><polygon class="cls-85" points="47.7906483 99.1360887 67.8795582 .9005242 69.3407003 1.1993241 49.3128939 99.1360887 47.7906483 99.1360887"/><polygon class="cls-68" points="46.2684027 99.1360887 66.3648001 .8639115 67.700521 .8639115 67.8795582 .9005242 47.7906483 99.1360887 46.2684027 99.1360887"/><polygon class="cls-71" points="44.7461571 99.1360887 64.8425546 .8639115 66.3648001 .8639115 46.2684027 99.1360887 44.7461571 99.1360887"/><polygon class="cls-84" points="43.2239116 99.1360887 63.320309 .8639115 64.8425546 .8639115 44.7461571 99.1360887 43.2239116 99.1360887"/><polygon class="cls-22" points="41.701666 99.1360887 61.7980634 .8639115 63.320309 .8639115 43.2239116 99.1360887 41.701666 99.1360887"/><polygon class="cls-16" points="40.179421 99.1360887 60.2758179 .8639115 61.7980634 .8639115 41.701666 99.1360887 40.179421 99.1360887"/><polygon class="cls-88" points="38.6571754 99.1360887 58.7535723 .8639115 60.2758179 .8639115 40.179421 99.1360887 38.6571754 99.1360887"/><polygon class="cls-115" points="37.1349299 99.1360887 57.2313267 .8639115 58.7535723 .8639115 38.6571754 99.1360887 37.1349299 99.1360887"/><polygon class="cls-100" points="35.6126843 99.1360887 55.7090811 .8639115 57.2313267 .8639115 37.1349299 99.1360887 35.6126843 99.1360887"/><polygon class="cls-100" points="34.0904387 99.1360887 54.1868361 .8639115 55.7090811 .8639115 35.6126843 99.1360887 34.0904387 99.1360887"/><polygon class="cls-101" points="32.5681931 99.1360887 52.6645906 .8639115 54.1868361 .8639115 34.0904387 99.1360887 32.5681931 99.1360887"/><polygon class="cls-32" points="32.299479 99.1360887 31.0962651 98.8900346 51.142345 .8639115 52.6645906 .8639115 32.5681931 99.1360887 32.299479 99.1360887"/><polygon class="cls-23" points="31.0962651 98.8900346 29.6351231 98.5912347 49.6200994 .8639115 51.142345 .8639115 31.0962651 98.8900346"/><polygon class="cls-9" points="29.6351231 98.5912347 28.1739816 98.2924355 48.0978539 .8639115 49.6200994 .8639115 29.6351231 98.5912347"/><polygon class="cls-11" points="28.1739816 98.2924355 26.7128395 97.9936356 46.5756083 .8639115 48.0978539 .8639115 28.1739816 98.2924355"/><polygon class="cls-107" points="26.7128395 97.9936356 25.2516981 97.6948358 45.0533627 .8639115 46.5756083 .8639115 26.7128395 97.9936356"/><polygon class="cls-15" points="25.2516981 97.6948358 23.790556 97.3960365 43.5311171 .8639115 45.0533627 .8639115 25.2516981 97.6948358"/><polygon class="cls-111" points="23.790556 97.3960365 22.3294145 97.0972367 42.0088716 .8639115 43.5311171 .8639115 23.790556 97.3960365"/><polygon class="cls-19" points="22.3294145 97.0972367 20.8682725 96.7984374 40.486626 .8639115 42.0088716 .8639115 22.3294145 97.0972367"/><polygon class="cls-27" points="20.8682725 96.7984374 19.4071304 96.4996375 38.964381 .8639115 40.486626 .8639115 20.8682725 96.7984374"/><polygon class="cls-2" points="19.4071304 96.4996375 17.945989 96.2008383 37.4421354 .8639115 38.964381 .8639115 19.4071304 96.4996375"/><polygon class="cls-78" points="17.945989 96.2008383 16.4848469 95.9020384 35.9198898 .8639115 37.4421354 .8639115 17.945989 96.2008383"/><polygon class="cls-55" points="16.4848469 95.9020384 15.0237054 95.6032392 34.3976443 .8639115 35.9198898 .8639115 16.4848469 95.9020384"/><polygon class="cls-74" points="15.0237054 95.6032392 13.5625634 95.3044393 32.8753987 .8639115 34.3976443 .8639115 15.0237054 95.6032392"/><polygon class="cls-112" points="13.5625634 95.3044393 12.1014219 95.00564 31.3531531 .8639115 32.8753987 .8639115 13.5625634 95.3044393"/><polygon class="cls-1" points="12.1014219 95.00564 10.6402798 94.7068402 29.8309076 .8639115 31.3531531 .8639115 12.1014219 95.00564"/><polygon class="cls-38" points="10.6402798 94.7068402 9.1791384 94.4080404 28.308662 .8639115 29.8309076 .8639115 10.6402798 94.7068402"/><polygon class="cls-72" points="9.1791384 94.4080404 7.7179963 94.1092411 26.7864164 .8639115 28.308662 .8639115 9.1791384 94.4080404"/><polygon class="cls-60" points="7.7179963 94.1092411 6.2568543 93.8104412 25.2641714 .8639115 26.7864164 .8639115 7.7179963 94.1092411"/><polygon class="cls-92" points="6.2568543 93.8104412 4.7957128 93.511642 23.7419258 .8639115 25.2641714 .8639115 6.2568543 93.8104412"/><polygon class="cls-48" points="4.7957128 93.511642 3.3345707 93.2128421 22.2196803 .8639115 23.7419258 .8639115 4.7957128 93.511642"/><polygon class="cls-89" points="3.3345707 93.2128421 1.8734293 92.9140429 20.6974347 .8639115 22.2196803 .8639115 3.3345707 93.2128421"/><polygon class="cls-63" points="1.8734293 92.9140429 .8639114 92.707599 .8639114 90.4067829 19.1751891 .8639115 20.6974347 .8639115 1.8734293 92.9140429"/><polygon class="cls-109" points=".8639114 82.9629418 17.6529436 .8639115 19.1751891 .8639115 .8639114 90.4067829 .8639114 82.9629418"/><polygon class="cls-64" points=".8639114 75.5191013 16.130698 .8639115 17.6529436 .8639115 .8639114 82.9629418 .8639114 75.5191013"/><polygon class="cls-61" points=".8639114 68.0752607 14.6084524 .8639115 16.130698 .8639115 .8639114 75.5191013 .8639114 68.0752607"/><polygon class="cls-4" points=".8639114 60.6314196 13.0862068 .8639115 14.6084524 .8639115 .8639114 68.0752607 .8639114 60.6314196"/><polygon class="cls-58" points=".8639114 53.1875791 11.5639613 .8639115 13.0862068 .8639115 .8639114 60.6314196 .8639114 53.1875791"/><polygon class="cls-34" points=".8639114 45.7437385 10.0417163 .8639115 11.5639613 .8639115 .8639114 53.1875791 .8639114 45.7437385"/><polygon class="cls-73" points=".8639114 38.2998974 8.5194707 .8639115 10.0417163 .8639115 .8639114 45.7437385 .8639114 38.2998974"/><polygon class="cls-42" points=".8639114 30.8560568 6.9972251 .8639115 8.5194707 .8639115 .8639114 38.2998974 .8639114 30.8560568"/><polygon class="cls-5" points=".8639114 23.4122157 5.4749795 .8639115 6.9972251 .8639115 .8639114 30.8560568 .8639114 23.4122157"/><polygon class="cls-36" points=".8639114 15.9683752 3.952734 .8639115 5.4749795 .8639115 .8639114 23.4122157 .8639114 15.9683752"/><polygon class="cls-104" points=".8639114 8.5245346 2.4304884 .8639115 3.952734 .8639115 .8639114 15.9683752 .8639114 8.5245346"/><polygon class="cls-113" points=".8639114 1.0806935 .9082428 .8639115 2.4304884 .8639115 .8639114 8.5245346 .8639114 1.0806935"/><polygon class="cls-40" points=".9082428 .8639115 .8639114 1.0806935 .8639114 .8639115 .9082428 .8639115"/></g><path class="cls-80" d="M50.0003034,52.4236207c-.5657035,0-1.1172053-.1988247-1.5562764-.5657035l-13.8289656-11.5839038c-1.0260773-.8592066-1.160994-2.388263-.3017874-3.4143403.8592066-1.0272608,2.3894464-1.160994,3.4143403-.3017874l11.840719,9.9187472,19.9262554-27.344309c.7881978-1.0805174,2.3030524-1.3195804,3.3859367-.5313826,1.0817009.7881978,1.3195804,2.3042359.5313826,3.3859367l-21.4529448,29.4402524c-.3952824.5420339-.9976738.897078-1.6639731.9787381-.0982289.0118348-.1964577.0177522-.2946866.0177522Z"/><path class="cls-106" d="M50.0003034,18.3299243c-1.3385161,0-2.4237674-1.0852513-2.4237674-2.4237674V3.8003384c0-1.3385161,1.0852513-2.4237674,2.4237674-2.4237674s2.4237674,1.0852513,2.4237674,2.4237674v12.1058185c0,1.3385161-1.0852513,2.4237674-2.4237674,2.4237674Z"/><path class="cls-17" d="M50.0003034,98.6231355c-1.3385161,0-2.4237674-1.0852513-2.4237674-2.4237674v-12.1058185c0-1.3385161,1.0852513-2.4237674,2.4237674-2.4237674s2.4237674,1.0852513,2.4237674,2.4237674v12.1058185c0,1.3385161-1.0852513,2.4237674-2.4237674,2.4237674Z"/><path class="cls-50" d="M96.1998183,52.4236207h-12.1058185c-1.3385161,0-2.4237674-1.0852513-2.4237674-2.4237674s1.0852513-2.4237674,2.4237674-2.4237674h12.1058185c1.3385161,0,2.4237674,1.0852513,2.4237674,2.4237674s-1.0852513,2.4237674-2.4237674,2.4237674Z"/><path class="cls-46" d="M15.9066071,52.4236207H3.8007885c-1.3385161,0-2.4237674-1.0852513-2.4237674-2.4237674s1.0852513-2.4237674,2.4237674-2.4237674h12.1058185c1.3385161,0,2.4237674,1.0852513,2.4237674,2.4237674s-1.0852513,2.4237674-2.4237674,2.4237674Z"/></svg>