<?xml version="1.0" encoding="UTF-8"?><svg id="_Шар_1" xmlns="http://www.w3.org/2000/svg" xmlns:xlink="http://www.w3.org/1999/xlink" viewBox="0 0 100 96.1276048"><defs><style>.cls-1{fill:url(#linear-gradient-2);}.cls-2{fill:url(#linear-gradient-4);}.cls-3{fill:url(#linear-gradient-3);}.cls-4{fill:url(#linear-gradient-5);}.cls-5{fill:url(#linear-gradient);}</style><linearGradient id="linear-gradient" x1="10.8658052" y1="44.3023916" x2="29.1106068" y2="14.1839889" gradientUnits="userSpaceOnUse"><stop offset="0" stop-color="#564ac7"/><stop offset="1" stop-color="#fff"/></linearGradient><linearGradient id="linear-gradient-2" x1="510.0994643" x2="528.3445803" y2="14.18347" gradientTransform="translate(599.2336591) rotate(-180) scale(1 -1)" xlink:href="#linear-gradient"/><linearGradient id="linear-gradient-3" x1="45.4482628" y1="79.5438212" x2="53.6252302" y2="66.0453353" xlink:href="#linear-gradient"/><linearGradient id="linear-gradient-4" x1="22.0722639" y1="65.6504389" x2="67.2488859" y2="-8.9268419" xlink:href="#linear-gradient"/><linearGradient id="linear-gradient-5" x1="31.0226591" y1="105.5806093" x2="77.8144994" y2="69.0560433" xlink:href="#linear-gradient"/></defs><path class="cls-5" d="M33.4772716,57.2627378C5.606805,45.3177502.8334943,21.1759935.0336486,14.0616994c-.1709773-1.5235715.3150198-3.0518272,1.335028-4.1924564,1.0200083-1.1406292,2.4815126-1.7940903,4.0132816-1.7940903h13.6442206v5.9959153H6.0740648c1.0949572,8.4645461,6.203196,27.5823816,29.7640984,37.6805804l-2.3608917,5.5110894Z"/><path class="cls-1" d="M66.5227284,57.2627378l-2.3608917-5.5110894c23.5609024-10.0981988,28.6691412-29.2160343,29.7640984-37.6805804h-12.953285v-5.9959153h13.6453917c1.531769,0,2.9932734.6534611,4.0132816,1.7940903s1.5060053,2.668885,1.335028,4.1924564c-.7998457,7.1142941-5.5731565,31.2560508-33.443623,43.2010384Z"/><rect class="cls-3" x="46.5151113" y="66.219228" width="6.8004399" height="11.9007698"/><path class="cls-2" d="M22.0397851,0h55.6997731c1.8241358,0,3.3225437,1.4402571,3.3771982,3.2635739.3737036,12.4670403-.3331011,56.8467092-28.6345128,66.0535916-1.9092096.6210951-3.9849142.4502707-5.8073363-.3921176-7.636213-3.5297292-26.7231472-17.1542171-28.0153472-65.4334314-.0510436-1.9070942,1.4724477-3.4916165,3.3802249-3.4916165Z"/><path class="cls-4" d="M27.203843,96.1276048h44.44209c.4894264,0,.8701841-.4171035.831007-.9049594-.3173748-3.9521395-2.8204486-19.5012535-22.5616088-19.5012535-19.6769968,0-23.0057133,15.4482017-23.5385194,19.4623507-.0665799.5016117.3210201.9438622.8270311.9438622Z"/></svg>