<?xml version="1.0" encoding="UTF-8"?><svg id="_Шар_1" xmlns="http://www.w3.org/2000/svg" xmlns:xlink="http://www.w3.org/1999/xlink" viewBox="0 0 100 100"><defs><style>.cls-1{fill:url(#linear-gradient-2);}.cls-2{fill:url(#linear-gradient-4);}.cls-3{fill:url(#linear-gradient-3);}.cls-4{fill:url(#linear-gradient-5);}.cls-5{fill:url(#linear-gradient-7);}.cls-6{fill:url(#linear-gradient-6);}.cls-7{fill:url(#linear-gradient);}</style><linearGradient id="linear-gradient" x1="13.5301304" y1="117.0402015" x2="88.9822244" y2="-21.6585008" gradientUnits="userSpaceOnUse"><stop offset="0" stop-color="#564ac7"/><stop offset="1" stop-color="#fff"/></linearGradient><linearGradient id="linear-gradient-2" x1="-213.3304435" y1="488.5331207" x2="-65.7550243" y2="369.8070316" gradientTransform="translate(-393.4456851 211.3446141) rotate(-129.6254464)" xlink:href="#linear-gradient"/><linearGradient id="linear-gradient-3" x1="33.7477369" y1="35.2794156" x2="73.876825" y2="35.2794156" gradientUnits="userSpaceOnUse"><stop offset="0" stop-color="#564ac7"/><stop offset="1" stop-color="#807ed6"/></linearGradient><linearGradient id="linear-gradient-4" x1="47.5762029" y1="9.8540629" x2="52.4237376" y2="9.8540629" xlink:href="#linear-gradient-3"/><linearGradient id="linear-gradient-5" x1="47.5762029" y1="90.1460907" x2="52.4237376" y2="90.1460907" xlink:href="#linear-gradient-3"/><linearGradient id="linear-gradient-6" x1="-119.827205" y1="13.0074494" x2="-114.9796702" y2="13.0074494" gradientTransform="translate(103.1540252 167.4029227) rotate(90)" xlink:href="#linear-gradient-3"/><linearGradient id="linear-gradient-7" x1="-119.827205" y1="93.3003648" x2="-114.9796702" y2="93.3003648" gradientTransform="translate(103.1540252 167.4029227) rotate(90)" xlink:href="#linear-gradient-3"/></defs><circle class="cls-7" cx="50" cy="50" r="50"/><circle class="cls-1" cx="50" cy="50" r="43.7754135"/><path class="cls-3" d="M49.9999702,52.4232524c-.5662953,0-1.117797-.1988247-1.5562764-.5657035l-13.8283739-11.5839038c-1.0260773-.8592066-1.1615858-2.388263-.3017874-3.4143403.8586149-1.0272608,2.3876712-1.160994,3.4143403-.3017874l11.840719,9.9187472,19.9256637-27.344309c.7881978-1.0817009,2.3048276-1.3195804,3.3859367-.5313826,1.0817009.7881978,1.3201721,2.3042359.5313826,3.3859367l-21.4529448,29.4402524c-.3952824.5432174-.9976738.897078-1.6639731.9787381-.0982289.0118348-.1970494.0177522-.2946866.0177522Z"/><path class="cls-2" d="M49.9999702,18.3307396c-1.3385161,0-2.4237674-1.0852513-2.4237674-2.4237674V3.8011537c0-1.3385161,1.0852513-2.4237674,2.4237674-2.4237674s2.4237674,1.0852513,2.4237674,2.4237674v12.1058185c0,1.3385161-1.0852513,2.4237674-2.4237674,2.4237674Z"/><path class="cls-4" d="M49.9999702,98.6227673c-1.3385161,0-2.4237674-1.0852513-2.4237674-2.4237674v-12.1058185c0-1.3385161,1.0852513-2.4237674,2.4237674-2.4237674s2.4237674,1.0852513,2.4237674,2.4237674v12.1058185c0,1.3385161-1.0852513,2.4237674-2.4237674,2.4237674Z"/><path class="cls-6" d="M96.1994851,52.4232524h-12.1058185c-1.3385161,0-2.4237674-1.0852513-2.4237674-2.4237674s1.0852513-2.4237674,2.4237674-2.4237674h12.1058185c1.3385161,0,2.4237674,1.0852513,2.4237674,2.4237674s-1.0852513,2.4237674-2.4237674,2.4237674Z"/><path class="cls-5" d="M15.9068656,52.4232524H3.8004553c-1.3385161,0-2.4237674-1.0852513-2.4237674-2.4237674s1.0852513-2.4237674,2.4237674-2.4237674h12.1064103c1.3385161,0,2.4237674,1.0852513,2.4237674,2.4237674s-1.0852513,2.4237674-2.4237674,2.4237674Z"/></svg>