<?xml version="1.0" encoding="UTF-8"?><svg id="_Шар_1" xmlns="http://www.w3.org/2000/svg" xmlns:xlink="http://www.w3.org/1999/xlink" viewBox="0 0 97.7876314 100"><defs><style>.cls-1{fill:url(#linear-gradient-2);}.cls-2{fill:url(#linear-gradient-4);}.cls-3{fill:url(#linear-gradient-3);}.cls-4{fill:url(#linear-gradient-5);}.cls-5{fill:url(#linear-gradient);}</style><linearGradient id="linear-gradient" x1="6.8758456" y1="129.483796" x2="100.3985662" y2="2.6733274" gradientUnits="userSpaceOnUse"><stop offset="0" stop-color="#564ac7"/><stop offset="1" stop-color="#fff"/></linearGradient><linearGradient id="linear-gradient-2" x1="29.1196664" y1="32.2111125" x2="49.4446171" y2="4.6518573" xlink:href="#linear-gradient"/><linearGradient id="linear-gradient-3" x1="1258.9633374" y1="32.2112425" x2="1279.2872766" y2="4.6533589" gradientTransform="translate(1327.63137) rotate(-180) scale(1 -1)" xlink:href="#linear-gradient"/><linearGradient id="linear-gradient-4" x1="14.6067427" y1="85.0338783" x2="91.3834296" y2="-19.0701039" gradientUnits="userSpaceOnUse"><stop offset="0" stop-color="#564ac7"/><stop offset="1" stop-color="#807ed6"/></linearGradient><linearGradient id="linear-gradient-5" x1="48.893537" y1="115.2054205" x2="48.893537" y2="41.9478646" xlink:href="#linear-gradient"/></defs><path class="cls-5" d="M7.0591204,49.0470867h83.6693907v44.9525135c0,3.3114901-2.6885099,6-6,6H13.0591204c-3.3114901,0-6-2.6885099-6-6v-44.9525135h0Z"/><path class="cls-1" d="M51.4479362,33.9993195h-19.0288015l-.5360309-.265947c-8.4565228-4.1925063-12.4356805-11.2182344-10.9162368-19.2746547C22.3604291,7.0665739,28.3152773.6294752,34.2405759.1094011c13.5774795-1.1748946,16.9154096,7.4926128,17.051338,7.8637565l.1560222.4255152v25.6006468ZM33.6324438,28.8907737h12.7069464V9.4199092c-.6406367-1.142981-3.4029393-4.9501597-11.6520234-4.220874-3.252236.2848588-7.6640008,4.7102164-8.700603,10.2052719-1.0490131,5.5636107,1.6636461,10.3352904,7.64568,13.4864666Z"/><path class="cls-3" d="M65.3687828,33.9993195h-19.0293925V8.3986728l.1560222-.4255152c.1365194-.3711438,3.4803594-9.0374692,17.051338-7.8637565,5.9258896.5200741,11.8807378,6.9571729,13.2743,14.3493168,1.5188527,8.0564203-2.459714,15.0821484-10.9162368,19.2746547l-.5360309.265947ZM51.4479362,28.8907737h12.7075374c5.9820339-3.1511762,8.6941021-7.9216739,7.645089-13.4852846-1.0360112-5.4962375-5.447776-9.9215951-8.700603-10.2064539-8.2023957-.7269217-10.984201,3.0400694-11.6520234,4.2291479v19.4625906Z"/><rect class="cls-2" y="28.0387769" width="97.7876314" height="21.0083099" rx="3.1099423" ry="3.1099423"/><rect class="cls-4" x="46.3391829" y="49.0467886" width="5.1087082" height="50.9532114"/></svg>