<?xml version="1.0" encoding="UTF-8"?><svg id="_Шар_1" xmlns="http://www.w3.org/2000/svg" xmlns:xlink="http://www.w3.org/1999/xlink" viewBox="0 0 100 87.7093431"><defs><style>.cls-1{fill:url(#linear-gradient-2);}.cls-2{fill:url(#linear-gradient-3);}.cls-3{fill:#191919;}.cls-4{fill:url(#linear-gradient);}</style><linearGradient id="linear-gradient" x1="129.6099617" y1="-28.4604942" x2="-35.1213531" y2="87.0272958" gradientUnits="userSpaceOnUse"><stop offset="0" stop-color="#b1b1b1"/><stop offset="1" stop-color="#333"/></linearGradient><linearGradient id="linear-gradient-2" x1="49.7914332" y1="70.4188362" x2="49.374707" y2="79.7257222" xlink:href="#linear-gradient"/><linearGradient id="linear-gradient-3" x1="43.5447333" y1="105.3528214" x2="60.2940315" y2="-39.4089701" xlink:href="#linear-gradient"/></defs><path class="cls-3" d="M0,51.7002493h100v15.6517413c0,2.2076601-1.7923399,4-4,4H4c-2.2076601,0-4-1.7923399-4-4v-15.6517413h0Z"/><path class="cls-4" d="M0,51.7002493V6.2595851C0,2.8025117,2.8025117,0,6.2595851,0h87.4808298c3.4570734,0,6.2595851,2.8025117,6.2595851,6.2595851v45.4406642H0"/><polygon class="cls-1" points="58.2387664 78.1383165 58.2374237 78.1383165 58.2374237 71.351952 40.4038604 71.351952 40.4038604 78.1383165 40.392224 78.1383165 37.9104047 81.0497847 49.3156444 81.0497847 60.7204365 81.0497847 58.2387664 78.1383165"/><path class="cls-3" d="M65.2198155,87.7093431H31.4649249c-2.0253173,0-3.6663375-1.6410202-3.6663375-3.6663375s1.6410202-3.6663375,3.6663375-3.6663375h33.7548906c2.0253173,0,3.6663375,1.6410202,3.6663375,3.6663375s-1.6410202,3.6663375-3.6663375,3.6663375Z"/><polygon class="cls-2" points="0 47.4214969 27.7985874 27.226433 48.3423702 41.7416352 77.4957228 10.1868479 100 33.2218426 100 51.7002493 0 51.7002493 0 47.4214969"/><circle class="cls-3" cx="27.947707" cy="27.4805173" r="2.5528682"/><circle class="cls-3" cx="77.6200496" cy="10.1868479" r="2.5528682"/><circle class="cls-3" cx="48.3423702" cy="41.1856192" r="2.5528682"/></svg>