<?xml version="1.0" encoding="UTF-8"?><svg id="_Шар_1" xmlns="http://www.w3.org/2000/svg" xmlns:xlink="http://www.w3.org/1999/xlink" viewBox="0 0 100 92.0463607"><defs><style>.cls-1{fill:url(#linear-gradient-2);}.cls-2{fill:url(#linear-gradient-4);}.cls-3{fill:url(#linear-gradient-3);}.cls-4{fill:url(#linear-gradient-5);}.cls-5{fill:url(#linear-gradient-8);}.cls-6{fill:url(#linear-gradient-7);}.cls-7{fill:url(#linear-gradient-9);}.cls-8{fill:url(#linear-gradient-6);}.cls-9{fill:url(#linear-gradient);}</style><linearGradient id="linear-gradient" x1="38.5545745" y1="25.815075" x2="46.6746929" y2="5.0828578" gradientUnits="userSpaceOnUse"><stop offset="0" stop-color="#564ac7"/><stop offset="1" stop-color="#fff"/></linearGradient><linearGradient id="linear-gradient-2" x1="81.7362906" y1="58.1826546" x2="89.7789593" y2="37.6481813" xlink:href="#linear-gradient"/><linearGradient id="linear-gradient-3" x1="67.7126574" y1="42.8236471" x2="85.1427107" y2="-1.6786167" xlink:href="#linear-gradient"/><linearGradient id="linear-gradient-4" x1="1546.1293998" y1="752.8826766" x2="1577.6104173" y2="672.5056106" gradientTransform="translate(623.204196 1664.3281326) rotate(-135)" xlink:href="#linear-gradient"/><linearGradient id="linear-gradient-5" x1="1542.2043926" y1="721.0800046" x2="1557.8412702" y2="681.1560617" gradientTransform="translate(623.204196 1664.3281326) rotate(-135)" xlink:href="#linear-gradient"/><linearGradient id="linear-gradient-6" x1="1524.1340635" y1="731.6955627" x2="1574.5634222" y2="699.4482177" gradientTransform="translate(623.204196 1664.3281326) rotate(-135)" xlink:href="#linear-gradient"/><linearGradient id="linear-gradient-7" x1="1549.5901778" y1="735.9629237" x2="1615.216981" y2="692.3846512" gradientTransform="translate(623.204196 1664.3281326) rotate(-135)" xlink:href="#linear-gradient"/><linearGradient id="linear-gradient-8" x1="59.0791401" y1="6.8857957" x2="61.9617244" y2="-.473994" xlink:href="#linear-gradient"/><linearGradient id="linear-gradient-9" x1="85.7890329" y1="35.1451348" x2="88.6716172" y2="27.7853451" xlink:href="#linear-gradient"/></defs><path class="cls-9" d="M43.5505293,26.1885887l4.4530862-16.5339376c.312148-1.1589795-.5609246-2.2983083-1.7612037-2.2983083h-4.3601661c-1.1017616,0-1.9520032.9693266-1.8084047,2.0616901l2.19342,16.6854919c.0934641.7109874,1.0967761.7774938,1.2832683.0850638Z"/><path class="cls-1" d="M68.6860193,51.1878844l26.9947403-8.2944733c1.6659039-.5118699,3.3869382.6162968,3.5820719,2.3481078l.7192536,6.3833761c.1966128,1.7449387-1.2524716,3.2334617-3.0020597,3.0837644l-28.1754768-2.410736c-.6228373-.0532909-.7160713-.9264367-.1185293-1.110039Z"/><path class="cls-3" d="M57.1717182,35.9077947l25.8970816-31.5231184c1.0279597-1.2512799,2.9387195-1.2644201,3.9837912-.0273964l5.1656998,6.1145018c.9938173,1.1763551.7492189,2.9545773-.5253006,3.8189177l-33.5101591,22.7255719c-.7242083.491136-1.5665738-.432344-1.0111128-1.1084766Z"/><path class="cls-2" d="M28.8062199,26.8108503L.1328252,90.015645c-.541784,1.194255.6714815,2.4289705,1.875047,1.908197l64.1528812-27.7584582s8.5457544-3.897195-12.4557921-24.8987414c-21.0015464-21.0015464-24.8987414-12.4557921-24.8987414-12.4557921Z"/><polygon class="cls-4" points="30.3834621 79.6459425 6.0223338 77.0333949 10.2905591 67.6249413 45.0973857 73.2793409 30.3834621 79.6459425"/><polygon class="cls-8" points="64.9547156 64.6872265 52.3795728 70.1283946 12.3462529 63.0935733 16.4032522 54.1507252 64.9547156 64.6872265"/><path class="cls-6" d="M66.9701553,56.609679l-47.3743677-9.496263,3.8455172-8.4766776,36.6349456,7.5009789s4.5168402,5.1138084,6.8939049,10.4719617Z"/><circle class="cls-5" cx="60.4296041" cy="3.4378024" r="3.4378024"/><circle class="cls-7" cx="87.1394969" cy="31.6971414" r="3.4378024"/></svg>