<?xml version="1.0" encoding="UTF-8"?><svg id="_Шар_1" xmlns="http://www.w3.org/2000/svg" xmlns:xlink="http://www.w3.org/1999/xlink" viewBox="0 0 100 90.8383855"><defs><style>.cls-1{fill:url(#linear-gradient-2);}.cls-2{fill:#191919;}.cls-3{fill:url(#linear-gradient);}</style><linearGradient id="linear-gradient" x1="32.1228361" y1="103.9712056" x2="84.4547523" y2="12.7789556" gradientUnits="userSpaceOnUse"><stop offset="0" stop-color="#b1b1b1"/><stop offset="1" stop-color="#333"/></linearGradient><linearGradient id="linear-gradient-2" x1="-6.3337413" y1="120.8821565" x2="37.249637" y2="-16.613025" xlink:href="#linear-gradient"/></defs><path class="cls-2" d="M100,48.3737447v-20.7213104c0-4.6808951-3.7946153-8.4755104-8.4755104-8.4755104h-18.5215399c-3.6970062,0-6.6940219,2.9970157-6.6940219,6.6940219v29.1367241h27.057147c3.6638157,0,6.6339252-2.9701095,6.6339252-6.6339252Z"/><path class="cls-3" d="M87.322379,19.1769756h-37.5346306c-3.6970117,0-6.6940318,2.9970201-6.6940318,6.6940318v58.2733463c0,3.6970117,2.9970201,6.6940318,6.6940318,6.6940318h18.6118937c5.84693,0,10.5868033-4.7398733,10.5868033-10.5868033V27.5129093s0-8.3359337,8.3359337-8.3359337Z"/><path class="cls-2" d="M65.8729657,90.8383855H30.5399987c-3.6970117,0-6.6940318-2.9970201-6.6940318-6.6940318V6.6940318c0-3.6970117,2.9970201-6.6940318,6.6940318-6.6940318h18.5215522c4.680879,0,8.4754812,3.7946022,8.4754812,8.4754812v74.0269707s0,8.3359337,8.3359337,8.3359337Z"/><path class="cls-1" d="M46.430326,0H6.6940318C2.9970201,0,0,2.9970201,0,6.6940318v68.2346201c0,3.6970117,2.9970201,6.6940318,6.6940318,6.6940318h24.7063287c3.6970117,0,6.6940318-2.9970201,6.6940318-6.6940318V8.3359337s0-8.3359337,8.3359337-8.3359337Z"/></svg>