<?xml version="1.0" encoding="UTF-8"?><svg id="_Шар_1" xmlns="http://www.w3.org/2000/svg" xmlns:xlink="http://www.w3.org/1999/xlink" viewBox="0 0 100 88.1573518"><defs><style>.cls-1{fill:#191919;}.cls-2{fill:url(#linear-gradient);}</style><linearGradient id="linear-gradient" x1="-13.6058315" y1="106.5087692" x2="113.5091579" y2="-10.6279104" gradientUnits="userSpaceOnUse"><stop offset="0" stop-color="#b1b1b1"/><stop offset="1" stop-color="#333"/></linearGradient></defs><path class="cls-2" d="M23.6998951,66.6731226S-3.1922186,62.3809353.3155815,36.6913095C3.8233816,11.0016837,28.6814137,16.220497,28.6814137,16.220497,28.6814137,16.220497,27.9899904.412219,50.7903332.0074578s20.7402849,15.8010277,20.7402849,15.8010277c0,0,11.6096355-3.3711073,20.1885675,8.9269176,8.578932,12.2980249,0,20.8752535,0,20.8752535,0,0,12.772359,6.9444515,6.5921853,21.3260609-6.1801737,14.3816095-20.1885675,6.5533894-20.1885675,6.5533894,0,0-18.3510354,23.7675489-43.372479,1.6521535,0,0-14.2445856,1.5448678-18.0791138,12.5538163-.2549782.7320435-1.3186618.5460764-1.3071956-.2290172.0771801-5.2172514.1408186-7.8082125,8.33588-20.7939369Z"/><path class="cls-1" d="M63.0719897,35.1821187c-2.8232539-4.6294902-8.993329-4.7223285-12.9685742-1.1698423-.0485638.0433992-.1214918.0434656-.1701301.0001993-4.2459669-3.777006-10.4700305-3.4314266-13.3399942,1.8705149-4.0788283,7.5351854,7.2026049,17.1228817,12.5902399,20.5394718.5102301.3235641,1.1591831.3235641,1.6695176-.0000662,5.4293769-3.4430886,15.9630705-12.3792507,12.8647124-19.9565104-.1886325-.461276-.4050349-.8890142-.6457715-1.2837671Z"/></svg>