<?xml version="1.0" encoding="UTF-8"?><svg id="_Шар_1" xmlns="http://www.w3.org/2000/svg" xmlns:xlink="http://www.w3.org/1999/xlink" viewBox="0 0 100 100.0000047"><defs><style>.cls-1{fill:#191919;}.cls-2{fill:url(#linear-gradient);}</style><linearGradient id="linear-gradient" x1="31.8192337" y1="96.9612315" x2="70.8654448" y2="-2.7312225" gradientUnits="userSpaceOnUse"><stop offset="0" stop-color="#b1b1b1"/><stop offset="1" stop-color="#333"/></linearGradient></defs><circle class="cls-1" cx="49.9999983" cy="50.000001" r="39.0360381"/><path class="cls-2" d="M65.5192843,58.4408996l34.2313446-7.5878149c.328986-.072924.3338185-.5401949.0064111-.6199073l-34.0563844-8.2915486c-.2119239-.0515961-.3103131-.2962549-.1931145-.4802071l10.487749-16.4613387c.1810635-.2841933-.1459299-.6180211-.4338072-.4428741l-16.9390841,10.3058805c-.1839734.111931-.423678.0126419-.4746195-.1965941L49.7668739.2429604c-.0797121-.3274076-.5469832-.3225754-.6199073.0064107l-7.5878669,34.2315023c-.0472022.2129457-.2897739.3163736-.4761106.2030045l-16.6444622-10.1266587c-.2878779-.1751478-.614872.1586818-.4338068.4428751l10.4878388,16.4613266c.1171996.1839523.0188106.4286121-.193114.4802083L.2429603,50.2331773c-.3274077.0797122-.3225752.5469836.0064111.6199074l34.2314447,7.5878147c.212946.0472021.3163742.2897742.2030046.476111l-10.1266598,16.6444152c-.175148.2878773.1586803.6148718.4428739.4338078l16.161367-10.2966468c.1862977-.1186931.4338939-.0161357.481698.1995253l7.5038672,33.8525218c.0729241.3289859.5401949.3338182.6199072.0064109l8.2915493-34.0563873c.0515961-.2119236.2962543-.3103129.4802065-.1931149l16.4613475,10.4877058c.2841931.1810625.61802-.1459301.4428739-.4338071l-10.1265723-16.6444317c-.1133684-.1863367-.0099402-.4289077.2030052-.4761098Z"/><circle class="cls-1" cx="49.9999983" cy="50.000001" r="3.929628"/></svg>