<?xml version="1.0" encoding="UTF-8"?><svg id="_Шар_1" xmlns="http://www.w3.org/2000/svg" xmlns:xlink="http://www.w3.org/1999/xlink" viewBox="0 0 93.9073273 100"><defs><style>.cls-1{fill:url(#linear-gradient-2);}.cls-2{fill:#191919;}.cls-3{fill:url(#linear-gradient);}</style><linearGradient id="linear-gradient" x1="41.3049449" y1="21.1048885" x2="50.7508041" y2="3.7046215" gradientUnits="userSpaceOnUse"><stop offset="0" stop-color="#b1b1b1"/><stop offset="1" stop-color="#333"/></linearGradient><linearGradient id="linear-gradient-2" x1="-10.1188185" y1="99.9300347" x2="100.6938636" y2="9.1857911" xlink:href="#linear-gradient"/></defs><rect class="cls-2" x="44.6524652" y="16.4796942" width="4.602397" height="21.8086625"/><path class="cls-3" d="M46.9536723,0s-6.6150368,4.6154776-6.6150368,11.1314012c0,6.5159582,6.6150368,5.2489596,6.6150368,5.2489596,0,0,6.6150196,1.2669986,6.6150196-5.2489596,0-6.5159236-6.6150196-11.1314012-6.6150196-11.1314012Z"/><path class="cls-2" d="M19.7870953,33.0376711h54.3331367c10.9207952,0,19.7870953,8.8663001,19.7870953,19.7870953v41.906613c0,2.9078308-2.3607897,5.2686205-5.2686205,5.2686205H5.2686205C2.3607897,100,0,97.6392103,0,94.7313795v-41.906613C0,41.9039713,8.8663001,33.0376711,19.7870953,33.0376711Z"/><path class="cls-1" d="M24.1846747,33.0376711h45.537978c13.356827,0,24.1846747,10.8278477,24.1846747,24.1846747v.5823776c0,4.3664702-4.5518685,7.2415303-8.4947768,5.3654876l-23.9097651-9.0698927c-1.6418019-.7811723-3.5958277-.4633829-4.9054762.7977929l-8.2670938,7.9611127c-2.1678887,2.0876509-5.5543333,2.2247006-7.8838308.3190593l-10.4468449-8.5460229c-1.6680581-1.3645519-4.0821453-1.3082473-5.6847723.132588l-14.4003286,12.9465566c-3.8244363,3.4383439-9.9144389.7241611-9.9144389-4.4186515v-6.0704076c0-13.356827,10.8278477-24.1846747,24.1846747-24.1846747Z"/></svg>