<?xml version="1.0" encoding="UTF-8"?><svg id="_Шар_1" xmlns="http://www.w3.org/2000/svg" xmlns:xlink="http://www.w3.org/1999/xlink" viewBox="0 0 85.8402437 82.5161702"><defs><style>.cls-1{fill:url(#_Градієнт_без_назви_4-3);}.cls-2{fill:url(#_Градієнт_без_назви_4-4);}.cls-3{fill:url(#_Градієнт_без_назви_4-5);}.cls-4{fill:url(#_Градієнт_без_назви_4-2);}.cls-5{fill:url(#_Градієнт_без_назви_4);}</style><linearGradient id="_Градієнт_без_назви_4" x1="9.3272337" y1="38.0292809" x2="24.9886158" y2="12.1755707" gradientUnits="userSpaceOnUse"><stop offset="0" stop-color="#333"/><stop offset="1" stop-color="#b1b1b1"/></linearGradient><linearGradient id="_Градієнт_без_назви_4-2" x1="486.9889233" x2="502.6505753" y2="12.1751252" gradientTransform="translate(563.5019333) rotate(-180) scale(1 -1)" xlink:href="#_Градієнт_без_назви_4"/><linearGradient id="_Градієнт_без_назви_4-3" x1="39.0128995" y1="68.2806099" x2="46.0320283" y2="56.6934768" xlink:href="#_Градієнт_без_назви_4"/><linearGradient id="_Градієнт_без_назви_4-4" x1="18.9468851" y1="56.3544967" x2="57.7266075" y2="-7.6628228" xlink:href="#_Градієнт_без_назви_4"/><linearGradient id="_Градієнт_без_назви_4-5" x1="26.6299262" y1="90.6306523" x2="66.7961559" y2="59.2778758" xlink:href="#_Градієнт_без_назви_4"/></defs><path class="cls-5" d="M28.7369715,49.1544737C4.8128951,38.9008672.7154735,18.1775244.028884,12.0705971c-.1467673-1.3078374.2704137-2.6196959,1.1459913-3.5988148.8755776-.9791189,2.1301365-1.5400515,3.4450107-1.5400515h11.7122322v5.1469083H5.2139921c.9399139,7.265987,5.3248386,23.6767836,25.5495746,32.345102l-2.0265952,4.7307325Z"/><path class="cls-4" d="M57.1032721,49.1544737l-2.0265952-4.7307325c20.2247361-8.6683185,24.6096607-25.079115,25.5495746-32.345102h-11.1191314v-5.1469083h11.7132375c1.3148742,0,2.5694331.5609326,3.4450107,1.5400515s1.2927586,2.2909774,1.1459913,3.5988148c-.6865895,6.1069274-4.7840111,26.8302702-28.7080875,37.0838766Z"/><rect class="cls-1" x="39.9286849" y="56.8427467" width="5.8375142" height="10.2156498"/><path class="cls-2" d="M18.9190053,0h47.812821c1.5658426,0,2.8520796,1.2363202,2.8989952,2.8014598.3207881,10.7017378-.2859348,48.7973537-24.5799355,56.700564-1.6388701.5331495-3.4206601.3865135-4.9850316-.3365947-6.5549439-3.0299281-22.9392147-14.7252217-24.0484423-56.168217-.043816-1.6370543,1.2639527-2.9972121,2.9015933-2.9972121Z"/><path class="cls-3" d="M23.3518451,82.5161702h38.1491984c.4201248,0,.7469681-.3580427.7133384-.7768194-.2724353-3.3925262-2.42108-16.7399235-19.36694-16.7399235-16.890782,0-19.7481604,13.2607739-20.2055224,16.7065293-.0571524.4305847.2755644.8102136.7099255.8102136Z"/></svg>