<?xml version="1.0" encoding="UTF-8"?><svg id="_Шар_1" xmlns="http://www.w3.org/2000/svg" xmlns:xlink="http://www.w3.org/1999/xlink" viewBox="0 0 100 88.1573518"><defs><style>.cls-1{fill:url(#linear-gradient-2);}.cls-2{fill:url(#linear-gradient);}</style><linearGradient id="linear-gradient" x1="-17.0415323" y1="146.7887557" x2="90.7940165" y2="-43.1305692" gradientUnits="userSpaceOnUse"><stop offset="0" stop-color="#564ac7"/><stop offset="1" stop-color="#fff"/></linearGradient><linearGradient id="linear-gradient-2" x1="33.4037291" y1="43.7957223" x2="66.7241192" y2="43.7957223" gradientUnits="userSpaceOnUse"><stop offset="0" stop-color="#564ac7"/><stop offset="1" stop-color="#807ed6"/></linearGradient></defs><path class="cls-2" d="M95.7790673,12.9222798c-9.8872422-16.2128142-31.4952981-16.5379408-45.4168984-4.0968736-.1700741.1519871-.4254732.1522197-.5958081.0006981C34.8966731-4.4012479,13.0995459-3.1910033,3.0487223,15.3767848c-14.2843559,26.388772,25.2240508,59.965588,44.0919441,71.9307372,1.7868634,1.1331451,4.0595443,1.1331451,5.8467732-.0002318,19.0140763-12.0579489,55.9038442-43.3530445,45.0531669-69.8891639-.6606049-1.6154225-1.418462-3.1133929-2.2615392-4.4958465Z"/><path class="cls-1" d="M64.4343209,39.5045845h-10.0206378v-10.5503726c0-1.2624988-1.0272995-2.2897983-2.2897983-2.2897983h-4.1199212c-1.2624988,0-2.2897983,1.0272995-2.2897983,2.2897983v10.5503726h-10.0206378c-1.2624988,0-2.2897983,1.0272995-2.2897983,2.2897983v3.8847218c0,1.2624988,1.0272995,2.2897983,2.2897983,2.2897983h10.0206378v10.6683297c0,1.2624988,1.0272995,2.2897983,2.2897983,2.2897983h4.1199212c1.2624988,0,2.2897983-1.0272995,2.2897983-2.2897983v-10.6683297h10.0206378c1.2624988,0,2.2897983-1.0272995,2.2897983-2.2897983v-3.8847218c0-1.2624988-1.0272995-2.2897983-2.2897983-2.2897983Z"/></svg>