<?xml version="1.0" encoding="UTF-8"?><svg id="_Шар_1" xmlns="http://www.w3.org/2000/svg" xmlns:xlink="http://www.w3.org/1999/xlink" viewBox="0 0 100 98.3518149"><defs><style>.cls-1{fill:url(#linear-gradient-2);}.cls-2{fill:url(#linear-gradient-3);}.cls-3{fill:#191919;}.cls-4{fill:url(#linear-gradient);}</style><linearGradient id="linear-gradient" x1="8.6130134" y1="77.0569201" x2="33.6446883" y2="47.9760037" gradientUnits="userSpaceOnUse"><stop offset="0" stop-color="#b1b1b1"/><stop offset="1" stop-color="#333"/></linearGradient><linearGradient id="linear-gradient-2" x1="2.8394161" y1="116.4983294" x2="38.6274175" y2="74.9210925" xlink:href="#linear-gradient"/><linearGradient id="linear-gradient-3" x1="5.9323392" y1="56.8374419" x2="66.5047174" y2="-13.5334093" xlink:href="#linear-gradient"/></defs><circle class="cls-4" cx="22.1538795" cy="61.3256198" r="12.4321978"/><path class="cls-1" d="M0,98.3518149h43.5051546v-.0000206c-.0000001-11.3873031-9.231233-20.6185361-20.6185361-20.6185361h-2.2680825C9.231233,77.7332582,0,86.9644912,0,98.3517943v.0000206Z"/><circle class="cls-3" cx="78.6487249" cy="61.3256198" r="12.4321978"/><path class="cls-3" d="M56.4948454,98.3518149h43.5051546v-.0000206c-.0000001-11.3873031-9.231233-20.6185361-20.6185361-20.6185361h-2.2680825c-11.387303,0-20.618536,9.231233-20.6185361,20.6185361v.0000206Z"/><path class="cls-2" d="M16.3129599,0h44.8007885c2.8181868,0,5.1027787,2.2845918,5.1027787,5.1027787v27.301674c0,2.8181868-2.2845918,5.1027787-5.1027787,5.1027787h-28.9464694c-.0761461,0-.1486358.0326569-.1990882.0896901l-6.6157942,7.4787238c-.2365061.2673548-.678081.1000726-.678081-.256878v-6.9873533c0-.1468009-.1190057-.2658066-.2658066-.2658066h-8.0955491c-2.8181868,0-5.1027787-2.2845918-5.1027787-5.1027787V5.1027787c0-2.8181868,2.2845918-5.1027787,5.1027787-5.1027787Z"/><path class="cls-3" d="M83.6689018,9.4475902h-38.5474816c-2.4248235,0-4.3905314,1.9657078-4.3905314,4.3905314v23.4908985c0,2.4248235,1.9657078,4.3905314,4.3905314,4.3905314h24.9061129c.0655176,0,.1278891.0280986.1712994.0771711l5.6923597,6.4348414c.2034945.2300373.5834343.0861044.5834343-.2210229v-6.0120565c0-.1263104.1023948-.2287052.2287052-.2287052h6.96557c2.4248235,0,4.3905314-1.9657078,4.3905314-4.3905314V13.8381215c0-2.4248235-1.9657078-4.3905314-4.3905314-4.3905314Z"/></svg>