<?xml version="1.0" encoding="UTF-8"?><svg id="_Шар_1" xmlns="http://www.w3.org/2000/svg" xmlns:xlink="http://www.w3.org/1999/xlink" viewBox="0 0 100 100.0001951"><defs><style>.cls-1{fill:url(#linear-gradient-2);}.cls-2{fill:url(#linear-gradient-4);}.cls-3{fill:url(#linear-gradient-3);}.cls-4{fill:url(#linear-gradient-5);}.cls-5{fill:url(#linear-gradient-6);}.cls-6{fill:#1d1d1b;}.cls-7{fill:url(#linear-gradient);}</style><linearGradient id="linear-gradient" x1="30.5267706" y1="109.6378844" x2="69.7859022" y2="14.5312557" gradientUnits="userSpaceOnUse"><stop offset="0" stop-color="#2a2958"/><stop offset="1" stop-color="#ea0e55"/></linearGradient><linearGradient id="linear-gradient-2" x1="41.2766723" y1="88.5313825" x2="65.99141" y2="36.0756127" gradientUnits="userSpaceOnUse"><stop offset="0" stop-color="#2a2958"/><stop offset="1" stop-color="#fff"/></linearGradient><linearGradient id="linear-gradient-3" x1="35.5193814" y1="88.9298382" x2="62.5693536" y2="31.5176523" xlink:href="#linear-gradient-2"/><linearGradient id="linear-gradient-4" x1="50.2720743" y1="76.5184432" x2="50.0347515" y2="81.8186533" xlink:href="#linear-gradient-2"/><linearGradient id="linear-gradient-5" x1="41.7889023" y1="83.855244" x2="58.2053179" y2="83.855244" xlink:href="#linear-gradient-2"/><linearGradient id="linear-gradient-6" x1="41.7889023" y1="83.855244" x2="58.2053179" y2="83.855244" xlink:href="#linear-gradient-2"/></defs><path class="cls-6" d="M100,100H0V0h100v100ZM.0999001,99.9000999h99.8001998V.0999001H.0999001v99.8001998Z"/><path class="cls-6" d="M50,100c-6.7498907,0-13.2980301-1.3219203-19.462276-3.9292739-5.9540069-2.5183801-11.3011988-6.1235639-15.8930913-10.7152613-4.5918925-4.5918925-8.1970764-9.9390844-10.7153589-15.8930913-2.607256-6.1643435-3.9292739-12.7122877-3.9292739-19.4621784s1.3220178-13.2980301,3.9292739-19.4623736c2.5182825-5.9540069,6.1234664-11.3011988,10.7153589-15.8930913S24.5837171,6.4476539,30.5376264,3.9292739c6.1643435-2.6073536,12.7123853-3.9292739,19.462276-3.9292739,6.7499883,0,13.2980301,1.3219203,19.4623736,3.9292739,5.9539094,2.5183801,11.3011988,6.1235639,15.8930913,10.7154564s8.1970764,9.9390844,10.7153589,15.8930913c2.607256,6.1641484,3.9292739,12.7122877,3.9292739,19.4621784s-1.3220178,13.2980301-3.9292739,19.4621784c-2.5182825,5.9540069-6.1234664,11.3011988-10.7153589,15.8930913-4.5918925,4.5918925-9.9390844,8.1970764-15.8930913,10.7154564-6.1642459,2.6073536-12.7123853,3.9292739-19.462276,3.9292739ZM50,.0999001C22.4850345.0999001.0999001,22.4849369.0999001,50s22.3850368,49.9000999,49.9000023,49.9000999h.0000976c27.5149655,0,49.9000999-22.3850368,49.9000999-49.8999048C99.9000999,22.4851321,77.5149655.0999001,50,.0999001Z"/><path class="cls-6" d="M70.02997,100.0001951H29.97003V.0001951h40.0599401v100ZM30.0699301,99.900295h39.8601399V.1000952H30.0699301v99.8001998Z"/><rect class="cls-6" x="49.9499524" y=".04995" width=".0999001" height="99.9000999"/><path class="cls-6" d="M100,70.02997H0V29.97003h100v40.0599401ZM.0999001,69.9300699h99.8001998V30.0699301H.0999001v39.8601399Z"/><rect class="cls-6" x=".04995" y="49.95005" width="99.9000999" height=".0999001"/><rect class="cls-6" x="49.9500553" y="-20.6400381" width=".0998894" height="141.2800762" transform="translate(-20.7106781 50) rotate(-45)"/><rect class="cls-6" x="-20.6400381" y="49.9500553" width="141.2800762" height=".0998894" transform="translate(-20.7106781 50) rotate(-45)"/><path class="cls-6" d="M85.4199511,85.4200487H14.5800489V14.5801464h70.8399023v70.8399023ZM14.7798491,85.2202485h70.4403019V14.7799466H14.7798491v70.4403019Z"/><path class="cls-6" d="M50,85.4200487c-19.5306646,0-35.4199511-15.8891889-35.4199511-35.4198536S30.4693354,14.5801464,50,14.5801464s35.4199511,15.8891889,35.4199511,35.4198536-15.8892865,35.4200487-35.4199511,35.4200487ZM50,14.7799466c-19.4204233,0-35.2201509,15.7996301-35.2201509,35.2200534s15.7997276,35.2202485,35.2201509,35.2202485,35.2201509-15.7996301,35.2201509-35.2200534S69.4204233,14.7799466,50,14.7799466Z"/><path class="cls-6" d="M50,70.0301651c-11.044717,0-20.0301651-8.9853506-20.0301651-20.02997s8.9854481-20.0301651,20.0301651-20.0301651c11.0446194,0,20.0300676,8.9853506,20.0300676,20.02997s-8.9854481,20.0301651-20.0300676,20.0301651ZM50,30.0699301c-10.9895963,0-19.930265,8.9406687-19.930265,19.9300699,0,10.9895963,8.9406687,19.930265,19.930265,19.930265,10.9894988,0,19.9301675-8.9406687,19.9301675-19.9300699,0-10.9895963-8.9406687-19.930265-19.9301675-19.930265Z"/><path class="cls-6" d="M50,60.03996c-5.5360655,0-10.03996-4.5038945-10.03996-10.03996s4.5038945-10.03996,10.03996-10.03996,10.03996,4.5038945,10.03996,10.03996-4.5038945,10.03996-10.03996,10.03996ZM50,40.0599401c-5.4809448,0-9.9400599,4.4590175-9.9400599,9.9400599s4.4591151,9.9400599,9.9400599,9.9400599,9.9400599-4.4590175,9.9400599-9.9400599-4.4591151-9.9400599-9.9400599-9.9400599Z"/><polygon class="cls-7" points="14.679961 39.6065084 50.4442719 14.680051 85.3200284 39.6065084 85.3200284 85.3201183 14.679961 85.3201183 14.679961 39.6065084"/><path class="cls-1" d="M30.0254552,69.1298918h39.9547049v.0000078c0,4.3335194-3.518268,7.8517874-7.8517874,7.8517874h-24.2511301c-4.3335194,0-7.8517874-3.518268-7.8517874-7.8517874v-.0000078h0Z"/><path class="cls-3" d="M30.0254552,69.1298918l-.0057258-21.3075632c0-1.3812635,1.1197353-2.5009988,2.5009988-2.5009988h34.9527074c1.3812635,0,2.5009988,1.1197353,2.5009988,2.5009988l.0057258,21.3075632H30.0254552"/><polygon class="cls-2" points="53.5624066 81.4960429 53.5618701 81.4960429 53.5597839 76.9816871 46.4344363 76.9816871 46.4365225 81.4960429 46.4318732 81.4960429 45.4402697 82.6593114 49.9971995 82.6593114 54.5539505 82.6593114 53.5624066 81.4960429"/><path class="cls-4" d="M56.7404436,85.3201183h-13.4866669c-.8092096,0-1.4648743-.6556648-1.4648743-1.4648743s.6556648-1.4648743,1.4648743-1.4648743h13.4866669c.8092096,0,1.4648743.6556648,1.4648743,1.4648743s-.6556648,1.4648743-1.4648743,1.4648743Z"/><rect class="cls-5" x="41.7889023" y="82.3903696" width="16.4164156" height="2.9297487"/></svg>