<?xml version="1.0" encoding="UTF-8"?><svg id="_Шар_1" xmlns="http://www.w3.org/2000/svg" xmlns:xlink="http://www.w3.org/1999/xlink" viewBox="0 0 100 100.0000976"><defs><style>.cls-1{fill:url(#linear-gradient-2);}.cls-2{fill:url(#linear-gradient-4);}.cls-3{fill:url(#linear-gradient-3);}.cls-4{fill:#1d1d1b;}.cls-5{fill:url(#linear-gradient);}</style><linearGradient id="linear-gradient" x1="49.5795372" y1="43.0113832" x2="50.2488737" y2="4.4575998" gradientUnits="userSpaceOnUse"><stop offset="0" stop-color="#2a2958"/><stop offset="1" stop-color="#ea0e55"/></linearGradient><linearGradient id="linear-gradient-2" x1="49.653283" y1="27.6072496" x2="49.7676761" y2="19.7141261" xlink:href="#linear-gradient"/><linearGradient id="linear-gradient-3" x1="48.693903" y1="81.1490108" x2="60.2255559" y2="24.3144361" xlink:href="#linear-gradient"/><linearGradient id="linear-gradient-4" x1="49.723089" y1="75.7497126" x2="49.723089" y2="35.0744756" gradientUnits="userSpaceOnUse"><stop offset="0" stop-color="#2a2958"/><stop offset="1" stop-color="#fff"/></linearGradient></defs><path class="cls-4" d="M100,100H0V0h100v100ZM.0999001,99.9000999h99.8001998V.0999001H.0999001v99.8001998Z"/><path class="cls-4" d="M50,100c-6.7498907,0-13.2980301-1.3220178-19.462276-3.9292739-5.9540069-2.5182825-11.3011988-6.1234664-15.8930913-10.7153589s-8.1970764-9.9390844-10.7153589-15.8929937c-2.607256-6.1643435-3.9292739-12.7123853-3.9292739-19.462276,0-6.7499883,1.3220178-13.2980301,3.9292739-19.4623736,2.5182825-5.9539094,6.1234664-11.3011988,10.7153589-15.8930913,4.5918925-4.5918925,9.9390844-8.1970764,15.8930913-10.7153589,6.1642459-2.607256,12.7123853-3.9292739,19.462276-3.9292739s13.2980301,1.3220178,19.4621784,3.9292739c5.9540069,2.5182825,11.3011988,6.1234664,15.8930913,10.7153589,4.5918925,4.5918925,8.1970764,9.9390844,10.7154564,15.8930913,2.6073536,6.1642459,3.9292739,12.7123853,3.9292739,19.462276s-1.3219203,13.2980301-3.9292739,19.462276c-2.5183801,5.9540069-6.1235639,11.3011988-10.7154564,15.8930913s-9.9390844,8.1970764-15.8930913,10.7153589c-6.1641484,2.607256-12.7122877,3.9292739-19.4621784,3.9292739ZM50,.0999001C22.4850345.0999001.0999001,22.4850345.0999001,50s22.3851344,49.9000999,49.9000999,49.9000999c27.5150631,0,49.9000999-22.3850368,49.9000999-49.9000023C99.9000999,22.4850345,77.5150631.0999001,50,.0999001Z"/><path class="cls-4" d="M70.02997,100.0000976H29.97003V.0000976h40.0599401v100ZM30.0699301,99.9001975h39.8601399V.0999977H30.0699301v99.8001998Z"/><rect class="cls-4" x="49.95005" y=".04995" width=".0999001" height="99.9000999"/><path class="cls-4" d="M100,70.0298725H0V29.9699324h100v40.0599401ZM.0999001,69.9299724h99.8001998V30.0698325H.0999001v39.8601399Z"/><rect class="cls-4" x=".04995" y="49.95005" width="99.9000999" height=".0999001"/><rect class="cls-4" x="49.9500553" y="-20.6400381" width=".0998894" height="141.2800762" transform="translate(-20.7106781 50) rotate(-45)"/><rect class="cls-4" x="-20.6400381" y="49.9500553" width="141.2800762" height=".0998894" transform="translate(-20.7106781 50) rotate(-45)"/><path class="cls-4" d="M85.4198536,85.4199511H14.5800489V14.5800489h70.8398047v70.8399023ZM14.7798491,85.2201509h70.4402043V14.7798491H14.7798491v70.4403019Z"/><path class="cls-4" d="M50,85.4199511c-19.5306646,0-35.4199511-15.8892865-35.4199511-35.4198536,0-19.5306646,15.8892865-35.4200487,35.4199511-35.4200487s35.4198536,15.8892865,35.4198536,35.4199511-15.8891889,35.4199511-35.4198536,35.4199511ZM50,14.7798491c-19.4204233,0-35.2201509,15.7997276-35.2201509,35.2201509s15.7997276,35.2201509,35.2201509,35.2201509,35.2200534-15.7996301,35.2200534-35.2200534c0-19.4205209-15.7996301-35.2202485-35.2200534-35.2202485Z"/><path class="cls-4" d="M50,70.0301651c-11.0446194,0-20.0301651-8.9854481-20.0301651-20.0301651,0-11.0446194,8.9855457-20.0300676,20.0301651-20.0300676s20.0301651,8.9854481,20.0301651,20.0300676c0,11.044717-8.9855457,20.0301651-20.0301651,20.0301651ZM50,30.0698325c-10.9895963,0-19.930265,8.9406687-19.930265,19.9301675,0,10.9895963,8.9406687,19.930265,19.930265,19.930265s19.930265-8.9406687,19.930265-19.930265c0-10.9894988-8.9406687-19.9301675-19.930265-19.9301675Z"/><path class="cls-4" d="M50,60.03996c-5.5360655,0-10.03996-4.5038945-10.03996-10.03996s4.5038945-10.03996,10.03996-10.03996,10.03996,4.5038945,10.03996,10.03996-4.5038945,10.03996-10.03996,10.03996ZM50,40.0599401c-5.4810424,0-9.9400599,4.4591151-9.9400599,9.9400599s4.4590175,9.9400599,9.9400599,9.9400599,9.9400599-4.4591151,9.9400599-9.9400599-4.4590175-9.9400599-9.9400599-9.9400599Z"/><rect class="cls-5" x="48.0056257" y="26.4264709" width="3.4349266" height="16.6326596"/><path class="cls-1" d="M49.7230954,14.4832181s-4.9370286,3.444689-4.9370286,8.3077461c0,3.7688892,2.9653028,4.0489356,4.2996891,3.9841564.4245459-.02061.8501331-.0206099,1.274679,0,1.3343836.0647788,4.2996762-.2152688,4.2996762-3.9841565,0-4.863057-4.9370157-8.3077461-4.9370157-8.3077461Z"/><path class="cls-3" d="M49.723054,35.3437806h.0000701c19.3408094,0,35.0430928,15.7022834,35.0430928,35.0430928v14.9331874H14.6799612v-14.9331874c0-19.3408094,15.7022834-35.0430928,35.0430928-35.0430928Z"/><path class="cls-2" d="M32.7298125,35.3437806h33.9865531c9.9686576,0,18.0498513,8.0811937,18.0498513,18.0498513v.4346484c0,3.2588463-3.3972154,5.4046022-6.3399429,4.0044472l-17.8446768-6.7691717c-1.225333-.5830156-2.6836894-.3458386-3.6611249.5954202l-6.1700153,5.9416512c-1.6179696,1.5580854-4.1453892,1.6603703-5.883973.2381249l-7.7968382-6.3781897c-1.2449289-1.0184119-3.0466449-.9763898-4.2427403.0989549l-10.7474586,9.6624588c-2.8543078,2.5661538-7.3994854.5404662-7.3994854-3.297791v-4.5305532c0-9.9686576,8.0811937-18.0498513,18.0498513-18.0498513Z"/></svg>