<?xml version="1.0" encoding="UTF-8"?><svg id="_Шар_1" xmlns="http://www.w3.org/2000/svg" xmlns:xlink="http://www.w3.org/1999/xlink" viewBox="0 0 100 100.0000976"><defs><style>.cls-1{fill:url(#linear-gradient-2);}.cls-2{fill:url(#linear-gradient-4);}.cls-3{fill:url(#linear-gradient-3);}.cls-4{fill:url(#linear-gradient-5);}.cls-5{fill:url(#linear-gradient-6);}.cls-6{fill:#1d1d1b;}.cls-7{fill:url(#linear-gradient);}</style><linearGradient id="linear-gradient" x1="30.0868331" y1="106.5335185" x2="30.6305345" y2="-.5756522" gradientUnits="userSpaceOnUse"><stop offset="0" stop-color="#2a2958"/><stop offset="1" stop-color="#fff"/></linearGradient><linearGradient id="linear-gradient-2" x1="29.9382349" y1="106.5327642" x2="30.4819362" y2="-.5764066" xlink:href="#linear-gradient"/><linearGradient id="linear-gradient-3" x1="74.648838" y1="108.1368538" x2="66.4933173" y2="16.7950228" gradientUnits="userSpaceOnUse"><stop offset="0" stop-color="#2a2958"/><stop offset="1" stop-color="#ea0e55"/></linearGradient><linearGradient id="linear-gradient-4" x1="72.042395" y1="108.3695719" x2="63.8868744" y2="17.027741" xlink:href="#linear-gradient-3"/><linearGradient id="linear-gradient-5" x1="39.6118811" y1="106.581869" x2="40.1555825" y2="-.5273018" xlink:href="#linear-gradient"/><linearGradient id="linear-gradient-6" x1="68.2971185" y1="108.7039716" x2="60.1415979" y2="17.3621406" xlink:href="#linear-gradient-3"/></defs><path class="cls-6" d="M100,100H0V0h100v100ZM.0999001,99.9000999h99.8001998V.0999001H.0999001v99.8001998Z"/><path class="cls-6" d="M50,100c-6.7498907,0-13.2980301-1.3220178-19.4621784-3.9292739-5.9540069-2.5182825-11.3011988-6.1234664-15.8930913-10.7153589-4.5918925-4.5918925-8.1970764-9.9390844-10.7154564-15.8929937-2.6073536-6.1643435-3.9292739-12.7123853-3.9292739-19.462276,0-6.7499883,1.3219203-13.2980301,3.9292739-19.4623736,2.5183801-5.9539094,6.1235639-11.3011988,10.7154564-15.8930913S24.5838146,6.4475563,30.5378216,3.9292739c6.1641484-2.607256,12.7122877-3.9292739,19.4621784-3.9292739s13.2980301,1.3220178,19.4621784,3.9292739c5.9540069,2.5182825,11.3011988,6.1234664,15.8930913,10.7153589s8.1970764,9.9390844,10.7154564,15.8930913c2.6073536,6.1642459,3.9292739,12.7123853,3.9292739,19.462276s-1.3219203,13.2980301-3.9292739,19.462276c-2.5183801,5.9540069-6.1235639,11.3011988-10.7154564,15.8930913-4.5918925,4.5918925-9.9390844,8.1970764-15.8930913,10.7153589-6.1641484,2.607256-12.7122877,3.9292739-19.4621784,3.9292739ZM50,.0999001C22.4849369.0999001.0999001,22.4850345.0999001,50s22.3850368,49.9000999,49.9000999,49.9000999,49.9000999-22.3850368,49.9000999-49.9000023C99.9000999,22.4850345,77.5150631.0999001,50,.0999001Z"/><path class="cls-6" d="M70.02997,100.0000976H29.97003V.0000976h40.0599401v100ZM30.0699301,99.9001975h39.8601399V.0999977H30.0699301v99.8001998Z"/><rect class="cls-6" x="49.95005" y=".04995" width=".0999001" height="99.9000999"/><path class="cls-6" d="M100,70.0298725H0V29.9699324h100v40.0599401ZM.0999001,69.9299724h99.8001998V30.0698325H.0999001v39.8601399Z"/><rect class="cls-6" x=".04995" y="49.95005" width="99.9000999" height=".0999001"/><rect class="cls-6" x="49.9500553" y="-20.6400381" width=".0998894" height="141.2800762" transform="translate(-20.7106781 50) rotate(-45)"/><rect class="cls-6" x="-20.6400381" y="49.9500553" width="141.2800762" height=".0998894" transform="translate(-20.7106781 50) rotate(-45)"/><path class="cls-6" d="M85.4198536,85.4199511H14.5801464V14.5800489h70.8397072v70.8399023ZM14.7799466,85.2201509h70.4401068V14.7798491H14.7799466v70.4403019Z"/><path class="cls-6" d="M50,85.4199511c-19.5306646,0-35.4198536-15.8892865-35.4198536-35.4198536,0-19.5306646,15.8891889-35.4200487,35.4198536-35.4200487s35.4198536,15.8892865,35.4198536,35.4199511-15.8891889,35.4199511-35.4198536,35.4199511ZM50,14.7798491c-19.4204233,0-35.2200534,15.7997276-35.2200534,35.2201509s15.7996301,35.2201509,35.2200534,35.2201509,35.2200534-15.7996301,35.2200534-35.2200534c0-19.4205209-15.7996301-35.2202485-35.2200534-35.2202485Z"/><path class="cls-6" d="M50,70.0301651c-11.0446194,0-20.0301651-8.9854481-20.0301651-20.0301651,0-11.0446194,8.9855457-20.0300676,20.0301651-20.0300676s20.0301651,8.9854481,20.0301651,20.0300676c0,11.044717-8.9855457,20.0301651-20.0301651,20.0301651ZM50,30.0698325c-10.9895963,0-19.930265,8.9406687-19.930265,19.9301675,0,10.9895963,8.9406687,19.930265,19.930265,19.930265s19.930265-8.9406687,19.930265-19.930265c0-10.9894988-8.9406687-19.9301675-19.930265-19.9301675Z"/><path class="cls-6" d="M50,60.03996c-5.5360655,0-10.03996-4.5038945-10.03996-10.03996s4.5038945-10.03996,10.03996-10.03996,10.03996,4.5038945,10.03996,10.03996-4.5038945,10.03996-10.03996,10.03996ZM50,40.0599401c-5.4810424,0-9.9400599,4.4591151-9.9400599,9.9400599s4.4590175,9.9400599,9.9400599,9.9400599,9.9400599-4.4591151,9.9400599-9.9400599-4.4590175-9.9400599-9.9400599-9.9400599Z"/><ellipse class="cls-7" cx="30.3294927" cy="58.7295816" rx="8.7821096" ry="8.9282222"/><path class="cls-1" d="M14.6799832,85.3200607h30.7320589v-.0000148c0-8.1778277-6.5209468-14.8072669-14.5649423-14.8072669h-1.6021744c-8.0439955,0-14.5649422,6.6294392-14.5649423,14.8072669v.0000148Z"/><ellipse class="cls-3" cx="70.2374744" cy="58.7295816" rx="8.7821096" ry="8.9282222"/><path class="cls-2" d="M54.5879649,85.3200607h30.7320589v-.0000148c0-8.1778277-6.5209468-14.8072669-14.5649423-14.8072669h-1.6021744c-8.0439955,0-14.5649422,6.6294392-14.5649423,14.8072669v.0000148Z"/><path class="cls-4" d="M24.1863326,14.6883938h31.6472951c1.9907683,0,3.6046049,1.6406868,3.6046049,3.6645766v19.6067835c0,2.0238898-1.6138366,3.6645766-3.6046049,3.6645766h-20.4477977c-.0537897,0-.1049964.0234526-.140636.0644112l-4.6733997,5.3708692c-.167068.1920017-.4789967.0718674-.4789967-.1844778v-5.0179899c0-.1054255-.0840656-.1908898-.1877659-.1908898h-5.7186992c-1.9907683,0-3.6046049-1.6406868-3.6046049-3.6645766v-19.6487065c0-2.0238898,1.6138366-3.6645766,3.6046049-3.6645766Z"/><path class="cls-5" d="M75.0703431,20.4882241h-27.2299566c-1.7128963,0-3.1014731,1.4116793-3.1014731,3.153074v16.8700631c0,1.7413947,1.3885768,3.153074,3.1014731,3.153074h17.5936883c.0462817,0,.0903409.0201791.121006.0554207l4.0210852,4.6212017c.1437486.165202.4121382.0618361.4121382-.1587283v-4.3175774c0-.0907102.0723317-.1642454.1615575-.1642454h4.9204815c1.7128963,0,3.1014731-1.4116793,3.1014731-3.153074v-16.9061344c0-1.7413947-1.3885768-3.153074-3.1014731-3.153074Z"/></svg>