<?xml version="1.0" encoding="UTF-8"?><svg id="_Шар_1" xmlns="http://www.w3.org/2000/svg" xmlns:xlink="http://www.w3.org/1999/xlink" viewBox="0 0 100 100.0000976"><defs><style>.cls-1{fill:url(#linear-gradient-2);}.cls-2{fill:#1d1d1b;}.cls-3{fill:url(#linear-gradient);}</style><linearGradient id="linear-gradient" x1="5.9634776" y1="106.0225749" x2="67.2332361" y2="33.7791283" gradientUnits="userSpaceOnUse"><stop offset="0" stop-color="#2a2958"/><stop offset="1" stop-color="#ea0e55"/></linearGradient><linearGradient id="linear-gradient-2" x1="47.0645162" y1="70.8294573" x2="51.151965" y2="36.494888" gradientUnits="userSpaceOnUse"><stop offset="0" stop-color="#2a2958"/><stop offset="1" stop-color="#fff"/></linearGradient></defs><path class="cls-2" d="M100,100H0V0h100v100ZM.0999001,99.9000999h99.8001998V.0999001H.0999001v99.8001998Z"/><path class="cls-2" d="M50,100c-6.7498907,0-13.2980301-1.3220178-19.462276-3.9292739-5.9540069-2.5182825-11.3011988-6.1234664-15.8930913-10.7153589s-8.1970764-9.9390844-10.7153589-15.8929937c-2.607256-6.1643435-3.9292739-12.7123853-3.9292739-19.462276,0-6.7499883,1.3220178-13.2980301,3.9292739-19.4623736,2.5182825-5.9539094,6.1234664-11.3011988,10.7153589-15.8930913,4.5918925-4.5918925,9.9390844-8.1970764,15.8929937-10.7153589,6.1643435-2.607256,12.7123853-3.9292739,19.462276-3.9292739,6.7499883,0,13.2980301,1.3220178,19.4623736,3.9292739,5.9539094,2.5182825,11.3011988,6.1234664,15.8930913,10.7153589s8.1970764,9.9390844,10.7153589,15.8930913c2.607256,6.1642459,3.9292739,12.7123853,3.9292739,19.462276s-1.3220178,13.2980301-3.9292739,19.462276c-2.5182825,5.9540069-6.1234664,11.3011988-10.7153589,15.8930913-4.5918925,4.5918925-9.9390844,8.1970764-15.8930913,10.7153589-6.1642459,2.607256-12.7123853,3.9292739-19.462276,3.9292739ZM50,.0999001C22.4850345.0999001.0999001,22.4850345.0999001,50s22.3850368,49.9000999,49.9000023,49.9000999h.0000976c27.5149655,0,49.9000999-22.3850368,49.9000999-49.9000023C99.9000999,22.4850345,77.5149655.0999001,50,.0999001Z"/><path class="cls-2" d="M70.02997,100.0000976H29.97003V.0000976h40.0599401v100ZM30.0699301,99.9001975h39.8601399V.0999977H30.0699301v99.8001998Z"/><rect class="cls-2" x="49.9499524" y=".04995" width=".0999001" height="99.9000999"/><path class="cls-2" d="M100,70.0298725H0V29.9699324h100v40.0599401ZM.0999001,69.9299724h99.8001998V30.0698325H.0999001v39.8601399Z"/><rect class="cls-2" x=".04995" y="49.95005" width="99.9000999" height=".0999001"/><rect class="cls-2" x="49.9500553" y="-20.6400381" width=".0998894" height="141.2800762" transform="translate(-20.7106781 50) rotate(-45)"/><rect class="cls-2" x="-20.6400381" y="49.9500553" width="141.2800762" height=".0998894" transform="translate(-20.7106781 50) rotate(-45)"/><path class="cls-2" d="M85.4199511,85.4199511H14.5800489V14.5800489h70.8399023v70.8399023ZM14.7798491,85.2201509h70.4403019V14.7798491H14.7798491v70.4403019Z"/><path class="cls-2" d="M50,85.4199511c-19.5306646,0-35.4199511-15.8892865-35.4199511-35.4198536,0-19.5306646,15.8892865-35.4200487,35.4199511-35.4200487s35.4199511,15.8892865,35.4199511,35.4199511-15.8892865,35.4199511-35.4199511,35.4199511ZM50,14.7798491c-19.4204233,0-35.2201509,15.7997276-35.2201509,35.2201509s15.7997276,35.2201509,35.2201509,35.2201509,35.2201509-15.7996301,35.2201509-35.2200534c0-19.4205209-15.7997276-35.2202485-35.2201509-35.2202485Z"/><path class="cls-2" d="M50,70.0301651c-11.044717,0-20.0301651-8.9854481-20.0301651-20.0301651,0-11.0446194,8.9854481-20.0300676,20.0301651-20.0300676,11.0446194,0,20.0300676,8.9854481,20.0300676,20.0300676,0,11.044717-8.9854481,20.0301651-20.0300676,20.0301651ZM50,30.0698325c-10.9895963,0-19.930265,8.9406687-19.930265,19.9301675,0,10.9895963,8.9406687,19.930265,19.930265,19.930265,10.9894988,0,19.9301675-8.9406687,19.9301675-19.930265,0-10.9894988-8.9406687-19.9301675-19.9301675-19.9301675Z"/><path class="cls-2" d="M50,60.03996c-5.5360655,0-10.03996-4.5038945-10.03996-10.03996s4.5038945-10.03996,10.03996-10.03996,10.03996,4.5038945,10.03996,10.03996-4.5038945,10.03996-10.03996,10.03996ZM50,40.0599401c-5.4809448,0-9.9400599,4.4591151-9.9400599,9.9400599s4.4591151,9.9400599,9.9400599,9.9400599,9.9400599-4.4591151,9.9400599-9.9400599-4.4591151-9.9400599-9.9400599-9.9400599Z"/><path class="cls-3" d="M80.6496319,52.4722628c3.0497205-3.0837471,4.9076173-7.3486015,4.8212448-12.048068-.1600562-8.7085469-7.1060884-15.90233-15.8044269-16.3532346-2.07321-.1074711-4.0677021.166401-5.9230074.7535597-1.9050773-5.8886914-7.4305577-10.1486404-13.9535757-10.1486404-7.86445,0-14.2818119,6.1905868-14.6479497,13.9644535-.0026829,0-.0053169-.0000976-.0079998-.0000976-11.4933894,0-20.8106347,9.317294-20.8106347,20.8106835,0,6.2107326,2.7223265,11.7841143,7.0369084,15.5970007-.0842907.5571577-.2125675,1.13362-.1283872,1.7081551.1482419,1.0117597.2407588,1.3432695,1.6073206,3.1328625h0l-8.1591632,15.4311236h0c1.8821079-1.9883948,7.642627-6.8489189,17.618803-7.2445438.086437.0019512.1721423.0065364.2590183.0065364.0030409,0,.0060814-.0000016.0091216-.0000047.5680757-.0005801,1.1076633.2349997,1.4843426.6602327,3.5727434,4.033267,8.7877585,6.5777488,14.5997688,6.5777488,8.3962912,0,15.5529529-5.305388,18.3018642-12.7465308,1.9540161,1.1948719,4.2705437,1.8550339,6.7466312,1.7749954,6.3447199-.2050905,11.5236088-5.3520219,11.765187-11.6954573.1582575-4.1555754-1.7678868-7.8684064-4.8150657-10.1807748Z"/><path class="cls-1" d="M58.3316078,45.0247391c-1.8448241-3.2243803-5.8765916-3.289041-8.4741717-.8147801-.0317335.030227-.0793875.0302732-.1111696.0001388-2.7744802-2.6306361-6.8415259-2.3899445-8.716872,1.3027896-2.6652653,5.2481597,4.7064627,11.9258668,8.2269534,14.3054778.3334043.2253582.7574554.2253582,1.0909279-.0000461,3.5477664-2.3980669,10.4308923-8.6219889,8.4063044-13.8994528-.1232598-.3212728-.2646656-.6191869-.4219723-.8941273Z"/></svg>