<?xml version="1.0" encoding="UTF-8"?><svg id="_Шар_1" xmlns="http://www.w3.org/2000/svg" xmlns:xlink="http://www.w3.org/1999/xlink" viewBox="0 0 100 100.0000976"><defs><style>.cls-1{fill:url(#linear-gradient-2);}.cls-2{fill:url(#linear-gradient-4);}.cls-3{fill:url(#linear-gradient-3);}.cls-4{fill:#1d1d1b;}.cls-5{fill:url(#linear-gradient);}</style><linearGradient id="linear-gradient" x1="63.5742357" y1="43.5246534" x2="87.4797927" y2="43.5246534" gradientUnits="userSpaceOnUse"><stop offset="0" stop-color="#2a2958"/><stop offset="1" stop-color="#ea0e55"/></linearGradient><linearGradient id="linear-gradient-2" x1="36.0216974" y1="94.8509308" x2="75.8560106" y2="25.4366821" xlink:href="#linear-gradient"/><linearGradient id="linear-gradient-3" x1="39.1954428" y1="50.000027" x2="62.1451678" y2="50.000027" xlink:href="#linear-gradient"/><linearGradient id="linear-gradient-4" x1="33.5546415" y1="97.0022263" x2="28.7808928" y2="-10.4071184" gradientUnits="userSpaceOnUse"><stop offset="0" stop-color="#2a2958"/><stop offset="1" stop-color="#fff"/></linearGradient></defs><path class="cls-4" d="M100,100H0V0h100v100ZM.0999001,99.9000999h99.8001998V.0999001H.0999001v99.8001998Z"/><path class="cls-4" d="M50.0000976,100c-6.7499883,0-13.2980301-1.3220178-19.4623736-3.9292739-5.9539094-2.5182825-11.3011988-6.1234664-15.8930913-10.7153589s-8.1970764-9.9390844-10.7153589-15.8929937c-2.607256-6.1643435-3.9292739-12.7123853-3.9292739-19.462276,0-6.7499883,1.3220178-13.2980301,3.9292739-19.4623736,2.5182825-5.9539094,6.1234664-11.3011988,10.7153589-15.8930913S24.5837171,6.4475563,30.537724,3.9292739c6.1642459-2.607256,12.7123853-3.9292739,19.462276-3.9292739s13.2980301,1.3220178,19.462276,3.9292739c5.9540069,2.5182825,11.3011988,6.1234664,15.8930913,10.7153589,4.5918925,4.5918925,8.1970764,9.9390844,10.7153589,15.8930913,2.607256,6.1642459,3.9292739,12.7123853,3.9292739,19.462276s-1.3220178,13.2980301-3.9292739,19.462276c-2.5182825,5.9540069-6.1234664,11.3011988-10.7153589,15.8930913s-9.9390844,8.1970764-15.8929937,10.7153589c-6.1643435,2.607256-12.7123853,3.9292739-19.462276,3.9292739ZM50.0000976.0999001C22.4850345.0999001.0999001,22.4850345.0999001,50s22.3851344,49.9000999,49.9000999,49.9000999h.0000976c27.5149655,0,49.9000023-22.3850368,49.9000023-49.9000023C99.9000999,22.4850345,77.5150631.0999001,50.0000976.0999001Z"/><path class="cls-4" d="M70.02997,100.0000976H29.97003V.0000976h40.0599401v100ZM30.0699301,99.9001975h39.8601399V.0999977H30.0699301v99.8001998Z"/><rect class="cls-4" x="49.95005" y=".04995" width=".0999001" height="99.9000999"/><path class="cls-4" d="M100,70.0298725H0V29.9699324h100v40.0599401ZM.0999001,69.9299724h99.8001998V30.0698325H.0999001v39.8601399Z"/><rect class="cls-4" x=".04995" y="49.95005" width="99.9000999" height=".0999001"/><rect class="cls-4" x="49.9500553" y="-20.6400381" width=".0998894" height="141.2800762" transform="translate(-20.7106781 50) rotate(-45)"/><rect class="cls-4" x="-20.6400381" y="49.9500553" width="141.2800762" height=".0998894" transform="translate(-20.7106781 50) rotate(-45)"/><path class="cls-4" d="M85.4199511,85.4199511H14.5800489V14.5800489h70.8399023v70.8399023ZM14.7798491,85.2201509h70.4403019V14.7798491H14.7798491v70.4403019Z"/><path class="cls-4" d="M50.0000976,85.4199511c-19.5306646,0-35.4200487-15.8892865-35.4200487-35.4198536,0-19.5306646,15.8892865-35.4200487,35.4199511-35.4200487s35.4199511,15.8892865,35.4199511,35.4199511-15.8892865,35.4199511-35.4198536,35.4199511ZM50.0000976,14.7798491c-19.4205209,0-35.2202485,15.7997276-35.2202485,35.2201509s15.7997276,35.2201509,35.2201509,35.2201509h.0000976c19.4204233,0,35.2200534-15.7996301,35.2200534-35.2200534,0-19.4205209-15.7996301-35.2202485-35.2200534-35.2202485Z"/><path class="cls-4" d="M50,70.0301651c-11.0446194,0-20.0300676-8.9854481-20.0300676-20.0301651,0-11.0446194,8.9854481-20.0300676,20.0300676-20.0300676,11.044717,0,20.0301651,8.9854481,20.0301651,20.0300676,0,11.044717-8.9854481,20.0301651-20.0301651,20.0301651ZM50,30.0698325c-10.9894988,0-19.9301675,8.9406687-19.9301675,19.9301675,0,10.9895963,8.9406687,19.930265,19.9301675,19.930265,10.9895963,0,19.930265-8.9406687,19.930265-19.930265,0-10.9894988-8.9406687-19.9301675-19.930265-19.9301675Z"/><path class="cls-4" d="M50,60.03996c-5.5360655,0-10.03996-4.5038945-10.03996-10.03996s4.5038945-10.03996,10.03996-10.03996,10.03996,4.5038945,10.03996,10.03996-4.5038945,10.03996-10.03996,10.03996ZM50,40.0599401c-5.4809448,0-9.9400599,4.4591151-9.9400599,9.9400599s4.4591151,9.9400599,9.9400599,9.9400599,9.9400599-4.4591151,9.9400599-9.9400599-4.4591151-9.9400599-9.9400599-9.9400599Z"/><path class="cls-5" d="M85.8127599,52.2976213v-16.1138351c0-3.6400773-2.6992149-6.590943-6.0288653-6.590943h-13.1748843c-2.6297829,0-4.7616432,2.3306159-4.7616432,5.2055764v22.6580441h19.246498c2.6061736,0,4.7188947-2.3096924,4.7188947-5.1588425Z"/><path class="cls-1" d="M76.794817,29.5928834h-26.6994223c-2.6297868,0-4.7616502,2.3306194-4.7616502,5.2055841v45.3160091c0,2.8749647,2.1318634,5.2055841,4.7616502,5.2055841h13.2391554c4.1590832,0,7.5306864-3.6859414,7.5306864-8.2327806v-41.0119949s0-6.4824018,5.9295805-6.4824018Z"/><path class="cls-3" d="M61.5372553,85.3200607h-25.133318c-2.6297868,0-4.7616502-2.3306194-4.7616502-5.2055841V19.8855775c0-2.8749647,2.1318634-5.2055841,4.7616502-5.2055841h13.174893c3.3296389,0,6.0288445,2.9508556,6.0288445,6.5909204v57.5667452s0,6.4824018,5.9295805,6.4824018Z"/><path class="cls-2" d="M47.7071672,14.6799934h-28.2655265c-2.6297868,0-4.7616502,2.3306194-4.7616502,5.2055841v53.0623495c0,2.8749647,2.1318634,5.2055841,4.7616502,5.2055841h17.5742959c2.6297868,0,4.7616502-2.3306194,4.7616502-5.2055841V21.1623952s0-6.4824018,5.9295805-6.4824018Z"/></svg>