<?xml version="1.0" encoding="UTF-8"?><svg id="_Шар_1" xmlns="http://www.w3.org/2000/svg" xmlns:xlink="http://www.w3.org/1999/xlink" viewBox="0 0 100 100.0000976"><defs><style>.cls-1{fill:url(#linear-gradient-2);}.cls-2{fill:url(#linear-gradient-4);}.cls-3{fill:url(#linear-gradient-3);}.cls-4{fill:url(#linear-gradient-5);}.cls-5{fill:#1d1d1b;}.cls-6{fill:url(#linear-gradient);}</style><linearGradient id="linear-gradient" x1="49.999979" y1="39.1718331" x2="49.999979" y2="85.3786963" gradientUnits="userSpaceOnUse"><stop offset="0" stop-color="#2a2958"/><stop offset="1" stop-color="#ea0e55"/></linearGradient><linearGradient id="linear-gradient-2" x1="40.6924211" y1="5.087525" x2="40.6924211" y2="39.3843006" gradientUnits="userSpaceOnUse"><stop offset="0" stop-color="#2a2958"/><stop offset="1" stop-color="#fff"/></linearGradient><linearGradient id="linear-gradient-3" x1="59.3073699" x2="59.3073699" y2="39.3843006" xlink:href="#linear-gradient-2"/><linearGradient id="linear-gradient-4" x1="49.999979" y1="55.0444197" x2="49.999979" y2="33.1755226" xlink:href="#linear-gradient"/><linearGradient id="linear-gradient-5" x1="49.999777" y1="39.7839285" x2="49.999777" y2="82.9428694" xlink:href="#linear-gradient-2"/></defs><path class="cls-5" d="M100,100H0V0h100v100ZM.0999001,99.9000999h99.8001998V.0999001H.0999001v99.8001998Z"/><path class="cls-5" d="M50,100c-6.7498907,0-13.2980301-1.3220178-19.4621784-3.9292739-5.9540069-2.5182825-11.3011988-6.1234664-15.8930913-10.7153589s-8.1970764-9.9390844-10.7154564-15.8929937c-2.6073536-6.1643435-3.9292739-12.7123853-3.9292739-19.462276,0-6.7499883,1.3219203-13.2980301,3.9292739-19.4623736,2.5183801-5.9539094,6.1235639-11.3011988,10.7154564-15.8930913S24.5838146,6.4475563,30.5378216,3.9292739c6.1641484-2.607256,12.7122877-3.9292739,19.4621784-3.9292739s13.2980301,1.3220178,19.4621784,3.9292739c5.9540069,2.5182825,11.3011988,6.1234664,15.8930913,10.7153589s8.1970764,9.9390844,10.7154564,15.8930913c2.6073536,6.1642459,3.9292739,12.7123853,3.9292739,19.462276s-1.3219203,13.2980301-3.9292739,19.462276c-2.5183801,5.9540069-6.1235639,11.3011988-10.7154564,15.8930913s-9.9390844,8.1970764-15.8930913,10.7153589c-6.1641484,2.607256-12.7122877,3.9292739-19.4621784,3.9292739ZM50,.0999001C22.4849369.0999001.0999001,22.4850345.0999001,50s22.3850368,49.9000999,49.9000999,49.9000999,49.9000999-22.3850368,49.9000999-49.9000023C99.9000999,22.4850345,77.5150631.0999001,50,.0999001Z"/><path class="cls-5" d="M70.02997,100.0000976H29.97003V.0000976h40.0599401v100ZM30.0699301,99.9001975h39.8601399V.0999977H30.0699301v99.8001998Z"/><rect class="cls-5" x="49.95005" y=".04995" width=".0999001" height="99.9000999"/><path class="cls-5" d="M100,70.0298725H0V29.9699324h100v40.0599401ZM.0999001,69.9299724h99.8001998V30.0698325H.0999001v39.8601399Z"/><rect class="cls-5" x=".04995" y="49.95005" width="99.9000999" height=".0999001"/><rect class="cls-5" x="49.9500553" y="-20.6400381" width=".0998894" height="141.2800762" transform="translate(-20.7106781 50) rotate(-45)"/><rect class="cls-5" x="-20.6400381" y="49.9500553" width="141.2800762" height=".0998894" transform="translate(-20.7106781 50) rotate(-45)"/><path class="cls-5" d="M85.4198536,85.4199511H14.5799513V14.5800489h70.8399023v70.8399023ZM14.7797515,85.2201509h70.4403019V14.7798491H14.7797515v70.4403019Z"/><path class="cls-5" d="M50,85.4199511c-19.5306646,0-35.4200487-15.8892865-35.4200487-35.4198536,0-19.5306646,15.8893841-35.4200487,35.4200487-35.4200487s35.4198536,15.8892865,35.4198536,35.4199511-15.8891889,35.4199511-35.4198536,35.4199511ZM50,14.7798491c-19.4204233,0-35.2202485,15.7997276-35.2202485,35.2201509s15.7998252,35.2201509,35.2202485,35.2201509,35.2200534-15.7996301,35.2200534-35.2200534c0-19.4205209-15.7996301-35.2202485-35.2200534-35.2202485Z"/><path class="cls-5" d="M50,70.0301651c-11.0446194,0-20.0301651-8.9854481-20.0301651-20.0301651,0-11.0446194,8.9855457-20.0300676,20.0301651-20.0300676s20.0301651,8.9854481,20.0301651,20.0300676c0,11.044717-8.9855457,20.0301651-20.0301651,20.0301651ZM50,30.0698325c-10.9895963,0-19.930265,8.9406687-19.930265,19.9301675,0,10.9895963,8.9406687,19.930265,19.930265,19.930265s19.930265-8.9406687,19.930265-19.930265c0-10.9894988-8.9406687-19.9301675-19.930265-19.9301675Z"/><path class="cls-5" d="M50,60.03996c-5.5360655,0-10.03996-4.5038945-10.03996-10.03996s4.5038945-10.03996,10.03996-10.03996,10.03996,4.5038945,10.03996,10.03996-4.5038945,10.03996-10.03996,10.03996ZM50,40.0599401c-5.4810424,0-9.9400599,4.4591151-9.9400599,9.9400599s4.4590175,9.9400599,9.9400599,9.9400599,9.9400599-4.4591151,9.9400599-9.9400599-4.4590175-9.9400599-9.9400599-9.9400599Z"/><rect class="cls-6" x="19.6859341" y="48.398819" width="60.6280897" height="36.9209521"/><path class="cls-1" d="M49.9996814,39.1964192h-11.5034514c-.2706493,0-.5370162-.0625234-.7794014-.1824313-6.0861832-3.017397-8.9502693-8.0702309-7.8573944-13.8630679,1.0020876-5.3166313,5.2776612-9.945505,9.5309662-10.3180761,9.7690691-.8556286,12.1586626,5.3684486,12.2563019,5.633959.0710883.1935656.1070606.3982656.1070606.6042502v16.3712845c0,.9686847-.7853968,1.7540815-1.7540815,1.7540815ZM38.9176206,35.6882562h9.3279793v-14.2305c-.4547936-.8273646-2.4803809-3.6597609-8.5485778-3.1304531-2.3913064.2098389-5.6322461,3.4503502-6.3902354,7.473689-.4496547,2.3814568-.2989133,6.7906422,5.6108339,9.8872641Z"/><path class="cls-3" d="M61.5039893,39.1964192h-11.5043079c-.9686847,0-1.7540815-.7853968-1.7540815-1.7540815v-16.3712845c0-.2059847.0359724-.4106846.1070606-.6042502.0976393-.2655104,2.4966541-6.4938701,12.2563019-5.633959,4.253305.372571,8.5297352,5.0014448,9.5318227,10.3180761,1.092875,5.792837-1.7712112,10.8456709-7.8573944,13.8630679-.2423853.1199079-.5087522.1824313-.7794014.1824313ZM51.7537629,35.6882562h9.3288358c5.9097472-3.0966219,6.0604886-7.5058072,5.6108339-9.8872641-.7588458-4.0233388-3.9997854-7.2638502-6.3910919-7.473689-6.0459284-.5301643-8.0749416,2.2765374-8.5485778,3.135592v14.2253611Z"/><rect class="cls-2" x="14.5707901" y="33.175884" width="70.8583778" height="15.222935" rx="7.6114599" ry="7.6114599"/><rect class="cls-4" x="48.1488539" y="48.3986029" width="3.7018463" height="36.9214578"/></svg>