<?xml version="1.0" encoding="UTF-8"?><svg id="_Шар_1" xmlns="http://www.w3.org/2000/svg" xmlns:xlink="http://www.w3.org/1999/xlink" viewBox="0 0 100 100.0001951"><defs><style>.cls-1{fill:url(#linear-gradient-2);}.cls-2{fill:url(#linear-gradient-3);}.cls-3{fill:#1d1d1b;}.cls-4{fill:url(#linear-gradient);}</style><linearGradient id="linear-gradient" x1="15.2297014" y1="69.5998113" x2="83.6307057" y2="-32.5331951" gradientUnits="userSpaceOnUse"><stop offset="0" stop-color="#2a2958"/><stop offset="1" stop-color="#fff"/></linearGradient><linearGradient id="linear-gradient-2" x1="46.7353122" y1="100.9676056" x2="77.6563142" y2="11.0155999" gradientUnits="userSpaceOnUse"><stop offset="0" stop-color="#2a2958"/><stop offset="1" stop-color="#ea0e55"/></linearGradient><linearGradient id="linear-gradient-3" x1="47.732434" y1="80.0974679" x2="65.0450262" y2="54.465838" xlink:href="#linear-gradient"/></defs><path class="cls-3" d="M100,100H0V0h100v100ZM.0999001,99.9000999h99.8001998V.0999001H.0999001v99.8001998Z"/><path class="cls-3" d="M50,100c-6.7498907,0-13.2980301-1.3219203-19.462276-3.9292739-5.9540069-2.5183801-11.3011988-6.1235639-15.8930913-10.7152613-4.5918925-4.5918925-8.1970764-9.9390844-10.7153589-15.8930913-2.607256-6.1643435-3.9292739-12.7122877-3.9292739-19.4621784s1.3220178-13.2980301,3.9292739-19.4623736c2.5182825-5.9540069,6.1234664-11.3011988,10.7153589-15.8930913S24.5837171,6.4476539,30.5376264,3.9292739c6.1643435-2.6073536,12.7123853-3.9292739,19.462276-3.9292739,6.7499883,0,13.2980301,1.3219203,19.4623736,3.9292739,5.9539094,2.5183801,11.3011988,6.1235639,15.8930913,10.7154564s8.1970764,9.9390844,10.7153589,15.8930913c2.607256,6.1641484,3.9292739,12.7122877,3.9292739,19.4621784s-1.3220178,13.2980301-3.9292739,19.4621784c-2.5182825,5.9540069-6.1234664,11.3011988-10.7153589,15.8930913-4.5918925,4.5918925-9.9390844,8.1970764-15.8930913,10.7154564-6.1642459,2.6073536-12.7123853,3.9292739-19.462276,3.9292739ZM50,.0999001C22.4850345.0999001.0999001,22.4849369.0999001,50s22.3850368,49.9000999,49.9000023,49.9000999h.0000976c27.5149655,0,49.9000999-22.3850368,49.9000999-49.8999048C99.9000999,22.4851321,77.5149655.0999001,50,.0999001Z"/><path class="cls-3" d="M70.02997,100.0001951H29.97003V.0001951h40.0599401v100ZM30.0699301,99.900295h39.8601399V.1000952H30.0699301v99.8001998Z"/><rect class="cls-3" x="49.9499524" y=".04995" width=".0999001" height="99.9000999"/><path class="cls-3" d="M100,70.02997H0V29.97003h100v40.0599401ZM.0999001,69.9300699h99.8001998V30.0699301H.0999001v39.8601399Z"/><rect class="cls-3" x=".04995" y="49.95005" width="99.9000999" height=".0999001"/><rect class="cls-3" x="49.9500553" y="-20.6400381" width=".0998894" height="141.2800762" transform="translate(-20.7106781 50) rotate(-45)"/><rect class="cls-3" x="-20.6400381" y="49.9500553" width="141.2800762" height=".0998894" transform="translate(-20.7106781 50) rotate(-45)"/><path class="cls-3" d="M85.4198536,85.4200487H14.5800489V14.5801464h70.8398047v70.8399023ZM14.7798491,85.2202485h70.4402043V14.7799466H14.7798491v70.4403019Z"/><path class="cls-3" d="M50,85.4200487c-19.5306646,0-35.4199511-15.8891889-35.4199511-35.4198536S30.4693354,14.5801464,49.9999024,14.5801464c19.5306646,0,35.4199511,15.8891889,35.4199511,35.4198536s-15.8892865,35.4200487-35.4198536,35.4200487ZM50,14.7799466c-19.4204233,0-35.2201509,15.7996301-35.2201509,35.2200534s15.7996301,35.2202485,35.2200534,35.2202485h.0000976c19.4204233,0,35.2200534-15.7996301,35.2200534-35.2200534S69.4204233,14.7799466,50,14.7799466Z"/><path class="cls-3" d="M50,70.0301651c-11.044717,0-20.0301651-8.9853506-20.0301651-20.02997s8.9854481-20.0301651,20.0300676-20.0301651c11.044717,0,20.0301651,8.9853506,20.0301651,20.02997s-8.9854481,20.0301651-20.0300676,20.0301651ZM50,30.0699301c-10.9895963,0-19.930265,8.9406687-19.930265,19.9300699,0,10.9895963,8.9406687,19.930265,19.9301675,19.930265h.0000976c10.9894988,0,19.9301675-8.9406687,19.9301675-19.9300699,0-10.9895963-8.9406687-19.930265-19.9301675-19.930265Z"/><path class="cls-3" d="M50,60.03996c-5.5360655,0-10.03996-4.5038945-10.03996-10.03996s4.5038945-10.03996,10.0398625-10.03996c5.5360655,0,10.0400576,4.5038945,10.0400576,10.03996s-4.5038945,10.03996-10.03996,10.03996ZM50,40.0599401c-5.4809448,0-9.9400599,4.4590175-9.9400599,9.9400599s4.4590175,9.9400599,9.9399624,9.9400599h.0000976c5.4809448,0,9.9400599-4.4590175,9.9400599-9.9400599s-4.4591151-9.9400599-9.9400599-9.9400599Z"/><path class="cls-4" d="M19.4100514,14.680051h41.5290582c2.6123791,0,4.7301309,2.1529859,4.7301309,4.8088286v25.7289368c0,2.6558427-2.1177517,4.8088286-4.7301309,4.8088286h-17.4890192c-6.0062374,0-11.7180879,2.6013679-15.6607318,7.1324216l-.0000062.0000071c-.2192345.2519535-.6285618.0943078-.6285618-.2420803v-6.5848406c0-.1383443-.1103149-.2504945-.2463951-.2504945h-7.504344c-2.6123791,0-4.7301309-2.1529859-4.7301309-4.8088286v-25.78395c0-2.6558427,2.1177517-4.8088286,4.7301309-4.8088286Z"/><path class="cls-1" d="M80.7077751,43.7791278h-40.4937814c-2.5472552,0-4.6122136,2.0993142-4.6122136,4.6889494v25.0875408c0,2.5896352,2.0649583,4.6889494,4.6122136,4.6889494h17.0530359c5.8565081,0,11.4259681,2.5365184,15.2703258,6.9546176l.0000061.000007c.2137692.2456726.6128924.0919568.6128924-.2360455v-6.4206872c0-.1348955.1075648-.24425.2402528-.24425h7.3172684c2.5472552,0,4.6122136-2.0993142,4.6122136-4.6889494v-25.1411826c0-2.5896352-2.0649583-4.6889494-4.6122136-4.6889494Z"/><path class="cls-2" d="M65.3810798,66.5144484c-.8150009.8083206-1.9552828,1.3080611-3.4205887,1.4997353v1.890021h-2.6294828v-1.8080585c-2.0272249-.1970699-3.6980795-.8722976-5.0128209-2.0272249l2.1572345-3.0264489c.5475306.5341699,1.2016896.9624822,1.9619631,1.2839091.7600166.3219408,1.5783577.4827827,2.4547663.4827827.4244582,0,.7839117-.0932678,1.0786172-.2800602.2944486-.1867925.4416729-.4409021.4416729-.7615582,0-.3383847-.1472243-.6094521-.4416729-.8142301-.2947056-.204778-.7908489-.3872025-1.4894579-.5477875-1.1503024-.1988684-2.0953129-.4146947-2.8350316-.6469648-.7394617-.2325271-1.4038982-.634118-1.9927954-1.2050297s-.8833459-1.3674133-.8833459-2.3902754c0-.69013.1747165-1.3340116.5238925-1.9316447s.8661312-1.1022553,1.5511225-1.5138668c.6847344-.4116114,1.513096-.6772832,2.4858556-.7967585v-1.8489113h2.6294828v1.8889933c1.6847292.2232774,3.1227999.8003556,4.314212,1.7317485l-2.2186422,2.8710026c-.5752797-.4380758-1.2122239-.7733773-1.9105759-1.0064182-.6986089-.232784-1.3352963-.3494329-1.9105759-.3494329-.8355558,0-1.2533337.2718383-1.2533337.8155148,0,.2952194.1438841.5166983.4316524.6644364.2875114.1474813.814487.2911085,1.5816979.4306247,1.0408476.1783136,1.9480886.3938829,2.7222367.6472217.7733773.2535958,1.4483481.6677766,2.0233708,1.2427993.5752797.5752797.8630479,1.3491708.8630479,2.3214166,0,1.3149983-.4077574,2.3764009-1.2225014,3.1844645Z"/></svg>