<?xml version="1.0" encoding="UTF-8"?><svg id="_Шар_1" xmlns="http://www.w3.org/2000/svg" xmlns:xlink="http://www.w3.org/1999/xlink" viewBox="0 0 100 100.0001951"><defs><style>.cls-1{fill:url(#linear-gradient-2);}.cls-2{fill:url(#linear-gradient-4);}.cls-3{fill:url(#linear-gradient-3);}.cls-4{fill:url(#linear-gradient-5);}.cls-5{fill:url(#linear-gradient-8);}.cls-6{fill:url(#linear-gradient-7);}.cls-7{fill:url(#linear-gradient-6);}.cls-8{fill:#1d1d1b;}.cls-9{fill:url(#linear-gradient);}</style><linearGradient id="linear-gradient" x1="621.6873251" y1="-185.9400323" x2="627.9190268" y2="-201.8507601" gradientTransform="translate(-484.9317034 410.9143499) rotate(-18.8589641)" gradientUnits="userSpaceOnUse"><stop offset="0" stop-color="#2a2958"/><stop offset="1" stop-color="#ea0e55"/></linearGradient><linearGradient id="linear-gradient-2" x1="-46.5201236" y1="139.1085776" x2="-41.0517511" y2="125.1467754" gradientTransform="translate(130.0829216 -77.1965859) rotate(4.0802465)" xlink:href="#linear-gradient"/><linearGradient id="linear-gradient-3" x1="65.0352183" y1="47.6422673" x2="79.588387" y2="10.4852408" gradientTransform="matrix(1,0,0,1,0,0)" xlink:href="#linear-gradient"/><linearGradient id="linear-gradient-4" x1="37.8460361" y1="96.3723681" x2="45.1445072" y2="25.8204808" gradientTransform="matrix(1,0,0,1,0,0)" xlink:href="#linear-gradient"/><linearGradient id="linear-gradient-5" x1="33.8264649" y1="107.2389499" x2="33.8264649" y2="31.8214151" gradientUnits="userSpaceOnUse"><stop offset="0" stop-color="#2a2958"/><stop offset="1" stop-color="#fff"/></linearGradient><linearGradient id="linear-gradient-6" x1="52.0288922" y1="82.0157446" x2="40.5598662" y2="21.195152" xlink:href="#linear-gradient-5"/><linearGradient id="linear-gradient-7" x1="58.4177358" y1="17.3183724" x2="63.6943483" y2="17.3183724" xlink:href="#linear-gradient-5"/><linearGradient id="linear-gradient-8" x1="79.5956631" y1="36.3674066" x2="84.8722755" y2="36.3674066" xlink:href="#linear-gradient-5"/></defs><path class="cls-8" d="M100,100H0V0h100v100ZM.0999001,99.9000999h99.8001998V.0999001H.0999001v99.8001998Z"/><path class="cls-8" d="M50,100c-6.7498907,0-13.2980301-1.3219203-19.462276-3.9292739-5.9540069-2.5183801-11.3011988-6.1235639-15.8930913-10.7152613-4.5918925-4.5918925-8.1970764-9.9390844-10.7153589-15.8930913-2.607256-6.1643435-3.9292739-12.7122877-3.9292739-19.4621784s1.3220178-13.2980301,3.9292739-19.4623736c2.5182825-5.9540069,6.1234664-11.3011988,10.7153589-15.8930913S24.5837171,6.4476539,30.537724,3.9292739c6.1642459-2.6073536,12.7123853-3.9292739,19.462276-3.9292739s13.2980301,1.3219203,19.4621784,3.9292739c5.9540069,2.5183801,11.3011988,6.1235639,15.8930913,10.7154564s8.1970764,9.9390844,10.7154564,15.8930913c2.6073536,6.1641484,3.9292739,12.7122877,3.9292739,19.4621784s-1.3219203,13.2980301-3.9292739,19.4621784c-2.5183801,5.9540069-6.1235639,11.3011988-10.7154564,15.8930913s-9.9390844,8.1970764-15.8930913,10.7154564c-6.1641484,2.6073536-12.7122877,3.9292739-19.4621784,3.9292739ZM50,.0999001C22.4850345.0999001.0999001,22.4849369.0999001,50s22.3851344,49.9000999,49.9000999,49.9000999c27.5150631,0,49.9000999-22.3850368,49.9000999-49.8999048C99.9000999,22.4851321,77.5150631.0999001,50,.0999001Z"/><path class="cls-8" d="M70.02997,100.0001951H29.97003V.0001951h40.0599401v100ZM30.0699301,99.900295h39.8601399V.1000952H30.0699301v99.8001998Z"/><rect class="cls-8" x="49.95005" y=".04995" width=".0999001" height="99.9000999"/><path class="cls-8" d="M100,70.02997H0V29.97003h100v40.0599401ZM.0999001,69.9300699h99.8001998V30.0699301H.0999001v39.8601399Z"/><rect class="cls-8" x=".04995" y="49.95005" width="99.9000999" height=".0999001"/><rect class="cls-8" x="49.9500553" y="-20.6400381" width=".0998894" height="141.2800762" transform="translate(-20.7106781 50) rotate(-45)"/><rect class="cls-8" x="-20.6400381" y="49.9500553" width="141.2800762" height=".0998894" transform="translate(-20.7106781 50) rotate(-45)"/><path class="cls-8" d="M85.4198536,85.4200487H14.5800489V14.5801464h70.8398047v70.8399023ZM14.7798491,85.2202485h70.4402043V14.7799466H14.7798491v70.4403019Z"/><path class="cls-8" d="M50,85.4200487c-19.5306646,0-35.4199511-15.8891889-35.4199511-35.4198536S30.4693354,14.5801464,50,14.5801464s35.4198536,15.8891889,35.4198536,35.4198536-15.8891889,35.4200487-35.4198536,35.4200487ZM50,14.7799466c-19.4204233,0-35.2201509,15.7996301-35.2201509,35.2200534s15.7997276,35.2202485,35.2201509,35.2202485,35.2200534-15.7996301,35.2200534-35.2200534S69.4204233,14.7799466,50,14.7799466Z"/><path class="cls-8" d="M50,70.0301651c-11.0446194,0-20.0301651-8.9853506-20.0301651-20.02997s8.9855457-20.0301651,20.0301651-20.0301651,20.0301651,8.9853506,20.0301651,20.02997-8.9855457,20.0301651-20.0301651,20.0301651ZM50,30.0699301c-10.9895963,0-19.930265,8.9406687-19.930265,19.9300699,0,10.9895963,8.9406687,19.930265,19.930265,19.930265s19.930265-8.9406687,19.930265-19.9300699c0-10.9895963-8.9406687-19.930265-19.930265-19.930265Z"/><path class="cls-8" d="M50,60.03996c-5.5360655,0-10.03996-4.5038945-10.03996-10.03996s4.5038945-10.03996,10.03996-10.03996,10.03996,4.5038945,10.03996,10.03996-4.5038945,10.03996-10.03996,10.03996ZM50,40.0599401c-5.4810424,0-9.9400599,4.4590175-9.9400599,9.9400599s4.4590175,9.9400599,9.9400599,9.9400599,9.9400599-4.4590175,9.9400599-9.9400599-4.4590175-9.9400599-9.9400599-9.9400599Z"/><path class="cls-9" d="M46.999367,33.033997l-.8675093-13.1122934c-.0608098-.9191325-.9775012-1.5299797-1.8491935-1.23223l-3.166533,1.0816134c-.8001449.2733107-1.1771675,1.1881927-.801901,1.9458903l5.7320727,11.5735794c.24425.4931631.9893948.2925742.9530641-.2565597Z"/><path class="cls-1" d="M65.9827529,53.1149344l16.7234399-5.1079518c1.3031916-.3008652,2.5590293.6567192,2.6138357,1.9930667l.2020137,4.9257155c.0552218,1.3464774-1.1353269,2.4068049-2.4664527,2.1966743l-17.0427179-3.1513033c-.4738686-.0748046-.4975596-.7482842-.0301187-.8562013Z"/><path class="cls-3" d="M57.0399118,42.2558067l20.7884933-26.8490718c.7888972-.9602819,2.2552902-.9703663,3.0573198-.0210251l3.9643634,4.6925118c.7626949.9027817.5749803,2.2674601-.4031366,2.9307893l-26.6310717,20.0974848c-.5557862.3769173-1.202251-.3317979-.7759682-.850689Z"/><path class="cls-2" d="M35.7168143,36.3259629l-21.0368532,48.9941554,49.7042069-20.3268008s6.4154618-2.8479726-9.7019597-18.9653946c-16.1174215-16.117422-18.965394-9.70196-18.965394-9.70196Z"/><polygon class="cls-4" points="34.3636045 77.2703876 19.4791066 74.1430628 22.535743 67.0285373 48.1738232 71.6226246 34.3636045 77.2703876"/><path class="cls-7" d="M64.9092738,59.2908307l-35.7723495-7.6419172,2.7362816-6.3710277,27.7043223,6.0174339s3.473258,3.9176846,5.3317456,7.9955109Z"/><circle class="cls-6" cx="61.056042" cy="17.3183724" r="2.6383062"/><circle class="cls-5" cx="82.2339693" cy="36.3674066" r="2.6383062"/></svg>