<?xml version="1.0" encoding="UTF-8"?><svg id="_Шар_1" xmlns="http://www.w3.org/2000/svg" xmlns:xlink="http://www.w3.org/1999/xlink" viewBox="0 0 100 100.0000976"><defs><style>.cls-1{fill:url(#Gradient_bez_nazwy_6);}.cls-2{fill:#1d1d1b;}.cls-3{fill:url(#linear-gradient);}</style><linearGradient id="Gradient_bez_nazwy_6" x1="-11.7155524" y1="85.2094559" x2="73.3305303" y2="26.6831194" gradientUnits="userSpaceOnUse"><stop offset="0" stop-color="#2a2958"/><stop offset="1" stop-color="#ea0e55"/></linearGradient><linearGradient id="linear-gradient" x1="44.980527" y1="67.1754132" x2="53.5641693" y2="37.7457823" gradientUnits="userSpaceOnUse"><stop offset="0" stop-color="#2a2958"/><stop offset="1" stop-color="#fff"/></linearGradient></defs><path class="cls-2" d="M100,100H0V0h100v100ZM.0999001,99.9000999h99.8001998V.0999001H.0999001v99.8001998Z"/><path class="cls-2" d="M50.0000976,100c-6.7499883,0-13.2980301-1.3220178-19.4623736-3.9292739-5.9539094-2.5182825-11.3011988-6.1234664-15.8930913-10.7153589s-8.1970764-9.9390844-10.7153589-15.8929937c-2.607256-6.1643435-3.9292739-12.7123853-3.9292739-19.462276,0-6.7499883,1.3220178-13.2980301,3.9292739-19.4623736,2.5182825-5.9539094,6.1234664-11.3011988,10.7153589-15.8930913S24.5837171,6.4475563,30.537724,3.9292739c6.1642459-2.607256,12.7123853-3.9292739,19.462276-3.9292739s13.2980301,1.3220178,19.462276,3.9292739c5.9540069,2.5182825,11.3011988,6.1234664,15.8930913,10.7153589s8.1970764,9.9390844,10.7153589,15.8930913c2.607256,6.1642459,3.9292739,12.7123853,3.9292739,19.462276s-1.3220178,13.2980301-3.9292739,19.462276c-2.5182825,5.9540069-6.1234664,11.3011988-10.7153589,15.8930913-4.5918925,4.5918925-9.9390844,8.1970764-15.8929937,10.7153589-6.1643435,2.607256-12.7123853,3.9292739-19.462276,3.9292739ZM50.0000976.0999001C22.4850345.0999001.0999001,22.4850345.0999001,50s22.3851344,49.9000999,49.9000999,49.9000999h.0000976c27.5149655,0,49.9000023-22.3850368,49.9000023-49.9000023C99.9000999,22.4850345,77.5150631.0999001,50.0000976.0999001Z"/><path class="cls-2" d="M70.02997,100.0000976H29.97003V.0000976h40.0599401v100ZM30.0699301,99.9001975h39.8601399V.0999977H30.0699301v99.8001998Z"/><rect class="cls-2" x="49.95005" y=".04995" width=".0999001" height="99.9000999"/><path class="cls-2" d="M100,70.0298725H0V29.9699324h100v40.0599401ZM.0999001,69.9299724h99.8001998V30.0698325H.0999001v39.8601399Z"/><rect class="cls-2" x=".04995" y="49.95005" width="99.9000999" height=".0999001"/><rect class="cls-2" x="49.9500553" y="-20.6400381" width=".0998894" height="141.2800762" transform="translate(-20.7106781 50) rotate(-45)"/><rect class="cls-2" x="-20.6400381" y="49.9500553" width="141.2800762" height=".0998894" transform="translate(-20.7106781 50) rotate(-45)"/><path class="cls-2" d="M85.4199511,85.4199511H14.5801464V14.5800489h70.8398047v70.8399023ZM14.7799466,85.2201509h70.4402043V14.7798491H14.7799466v70.4403019Z"/><path class="cls-2" d="M50.0000976,85.4199511c-19.5306646,0-35.4199511-15.8892865-35.4199511-35.4198536,0-19.5306646,15.8892865-35.4200487,35.4198536-35.4200487,19.5306646,0,35.4199511,15.8892865,35.4199511,35.4199511s-15.8892865,35.4199511-35.4198536,35.4199511ZM50.0000976,14.7798491c-19.4204233,0-35.2201509,15.7997276-35.2201509,35.2201509s15.7996301,35.2201509,35.2200534,35.2201509h.0000976c19.4204233,0,35.2200534-15.7996301,35.2200534-35.2200534,0-19.4205209-15.7996301-35.2202485-35.2200534-35.2202485Z"/><path class="cls-2" d="M50.0000976,70.0301651c-11.044717,0-20.0301651-8.9854481-20.0301651-20.0301651,0-11.0446194,8.9854481-20.0300676,20.0300676-20.0300676,11.044717,0,20.0301651,8.9854481,20.0301651,20.0300676,0,11.044717-8.9854481,20.0301651-20.0300676,20.0301651ZM50.0000976,30.0698325c-10.9895963,0-19.930265,8.9406687-19.930265,19.9301675,0,10.9895963,8.9406687,19.930265,19.9301675,19.930265h.0000976c10.9894988,0,19.9301675-8.9406687,19.9301675-19.930265,0-10.9894988-8.9406687-19.9301675-19.9301675-19.9301675Z"/><path class="cls-2" d="M50,60.03996c-5.5360655,0-10.03996-4.5038945-10.03996-10.03996s4.5038945-10.03996,10.03996-10.03996,10.03996,4.5038945,10.03996,10.03996-4.5038945,10.03996-10.03996,10.03996ZM50,40.0599401c-5.4809448,0-9.9400599,4.4591151-9.9400599,9.9400599s4.4591151,9.9400599,9.9400599,9.9400599,9.9400599-4.4591151,9.9400599-9.9400599-4.4591151-9.9400599-9.9400599-9.9400599Z"/><path class="cls-1" d="M82.3383954,25.0345548c-7.0343009-13.0841538-22.4670336-13.2548484-32.2926683-3.0673677-10.5077282-10.8262784-26.0645702-9.9439434-33.2121099,5.0341509-10.6488605,22.3153202,20.9735265,50.2977841,33.1664495,58.3187227,12.5757446-8.3682832,42.0151907-34.270198,33.9358814-56.6830054-.4666517-1.2944303-1.0020025-2.4947469-1.5975528-3.6025005Z"/><path class="cls-3" d="M58.6333977,47.4977155h-6.0201425v-6.152411c0-.7362216-.6171752-1.3352875-1.3756522-1.3352875h-2.4751431c-.758477,0-1.3756522.5990659-1.3756522,1.3352875v6.152411h-6.0201425c-.758477,0-1.3756522.5990659-1.3756522,1.3352875v2.2653613c0,.7362216.6171752,1.3352875,1.3756522,1.3352875h6.0201425v6.2211973c0,.7362216.6171752,1.3352875,1.3756522,1.3352875h2.4751431c.758477,0,1.3756522-.5990659,1.3756522-1.3352875v-6.2211973h6.0201425c.758477,0,1.3756522-.5990659,1.3756522-1.3352875v-2.2653613c0-.7362216-.6171752-1.3352875-1.3756522-1.3352875Z"/></svg>