<?xml version="1.0" encoding="UTF-8"?><svg id="_Шар_1" xmlns="http://www.w3.org/2000/svg" xmlns:xlink="http://www.w3.org/1999/xlink" viewBox="0 0 100 100.0001951"><defs><style>.cls-1{fill:url(#linear-gradient-2);}.cls-2{fill:url(#linear-gradient-4);}.cls-3{fill:url(#linear-gradient-3);}.cls-4{fill:url(#linear-gradient-5);}.cls-5{fill:#1d1d1b;}.cls-6{fill:url(#linear-gradient);}</style><linearGradient id="linear-gradient" x1="32.8102182" y1="80.2745651" x2="67.189713" y2="19.7256041" gradientUnits="userSpaceOnUse"><stop offset="0" stop-color="#2a2958"/><stop offset="1" stop-color="#ea0e55"/></linearGradient><linearGradient id="linear-gradient-2" x1="55.4942221" y1="50.3313672" x2="63.8558953" y2="87.9588962" gradientUnits="userSpaceOnUse"><stop offset="0" stop-color="#2a2958"/><stop offset="1" stop-color="#fff"/></linearGradient><linearGradient id="linear-gradient-3" x1="45.871221" y1="48.5367252" x2="35.2797684" y2="88.1153113" xlink:href="#linear-gradient-2"/><linearGradient id="linear-gradient-4" x1="27.4614922" y1="37.3350728" x2="72.7715359" y2="37.3350728" xlink:href="#linear-gradient-2"/><linearGradient id="linear-gradient-5" x1="38.5898047" y1="37.3350728" x2="61.6432234" y2="37.3350728" xlink:href="#linear-gradient"/></defs><path class="cls-5" d="M100,100H0V0h100v100ZM.0999001,99.9000999h99.8001998V.0999001H.0999001v99.8001998Z"/><path class="cls-5" d="M50,100c-6.7498907,0-13.2980301-1.3219203-19.4621784-3.9292739-5.9540069-2.5183801-11.3011988-6.1235639-15.8930913-10.7152613-4.5918925-4.5918925-8.1970764-9.9390844-10.7154564-15.8930913-2.6073536-6.1643435-3.9292739-12.7122877-3.9292739-19.4621784s1.3219203-13.2980301,3.9292739-19.4623736c2.5183801-5.9540069,6.1235639-11.3011988,10.7154564-15.8930913S24.5838146,6.4476539,30.5378216,3.9292739c6.1641484-2.6073536,12.7122877-3.9292739,19.4621784-3.9292739s13.2980301,1.3219203,19.4621784,3.9292739c5.9540069,2.5183801,11.3011988,6.1235639,15.8930913,10.7154564s8.1970764,9.9390844,10.7154564,15.8930913c2.6073536,6.1641484,3.9292739,12.7122877,3.9292739,19.4621784s-1.3219203,13.2980301-3.9292739,19.4621784c-2.5183801,5.9540069-6.1235639,11.3011988-10.7154564,15.8930913s-9.9390844,8.1970764-15.8930913,10.7154564c-6.1641484,2.6073536-12.7122877,3.9292739-19.4621784,3.9292739ZM50,.0999001C22.4849369.0999001.0999001,22.4849369.0999001,50s22.3850368,49.9000999,49.9000999,49.9000999,49.9000999-22.3850368,49.9000999-49.8999048C99.9000999,22.4851321,77.5150631.0999001,50,.0999001Z"/><path class="cls-5" d="M70.02997,100.0001951H29.97003V.0001951h40.0599401v100ZM30.0699301,99.900295h39.8601399V.1000952H30.0699301v99.8001998Z"/><rect class="cls-5" x="49.95005" y=".04995" width=".0999001" height="99.9000999"/><path class="cls-5" d="M100,70.02997H0V29.97003h100v40.0599401ZM.0999001,69.9300699h99.8001998V30.0699301H.0999001v39.8601399Z"/><rect class="cls-5" x=".04995" y="49.95005" width="99.9000999" height=".0999001"/><rect class="cls-5" x="49.9500553" y="-20.6400381" width=".0998894" height="141.2800762" transform="translate(-20.7106781 50) rotate(-45)"/><rect class="cls-5" x="-20.6400381" y="49.9500553" width="141.2800762" height=".0998894" transform="translate(-20.7106781 50) rotate(-45)"/><path class="cls-5" d="M85.4198536,85.4200487H14.5799513V14.5801464h70.8399023v70.8399023ZM14.7797515,85.2202485h70.4403019V14.7799466H14.7797515v70.4403019Z"/><path class="cls-5" d="M50,85.4200487c-19.5306646,0-35.4200487-15.8891889-35.4200487-35.4198536S30.4693354,14.5801464,50,14.5801464s35.4198536,15.8891889,35.4198536,35.4198536-15.8891889,35.4200487-35.4198536,35.4200487ZM50,14.7799466c-19.4204233,0-35.2202485,15.7996301-35.2202485,35.2200534s15.7998252,35.2202485,35.2202485,35.2202485,35.2200534-15.7996301,35.2200534-35.2200534S69.4204233,14.7799466,50,14.7799466Z"/><path class="cls-5" d="M50,70.0301651c-11.0446194,0-20.0301651-8.9853506-20.0301651-20.02997s8.9855457-20.0301651,20.0301651-20.0301651,20.0301651,8.9853506,20.0301651,20.02997-8.9855457,20.0301651-20.0301651,20.0301651ZM50,30.0699301c-10.9895963,0-19.930265,8.9406687-19.930265,19.9300699,0,10.9895963,8.9406687,19.930265,19.930265,19.930265s19.930265-8.9406687,19.930265-19.9300699c0-10.9895963-8.9406687-19.930265-19.930265-19.930265Z"/><path class="cls-5" d="M50,60.03996c-5.5360655,0-10.03996-4.5038945-10.03996-10.03996s4.5038945-10.03996,10.03996-10.03996,10.03996,4.5038945,10.03996,10.03996-4.5038945,10.03996-10.03996,10.03996ZM50,40.0599401c-5.4810424,0-9.9400599,4.4590175-9.9400599,9.9400599s4.4590175,9.9400599,9.9400599,9.9400599,9.9400599-4.4590175,9.9400599-9.9400599-4.4590175-9.9400599-9.9400599-9.9400599Z"/><rect class="cls-6" x="14.6799319" y="30.0199192" width="70.6400673" height="39.9603309"/><path class="cls-1" d="M49.9999157,52.04772l9.5370315-2.5130701,8.9770971,32.9474945c.1057223.3880189-.3729542.6684361-.6695689.3922454l-6.1561573-6.4603949c-.2276222-.2119488-.6032801-.1001276-.673173.2003819l-1.3648377,8.3962975c-.0943164.4055202-.6781256.4151722-.7862495.0129989l-8.8641423-32.9759531Z"/><path class="cls-3" d="M50.116514,52.04772l-9.5370315-2.5130701-8.9770971,32.9474945c-.1057223.3880189.3729542.6684361.6695689.3922454l6.1561573-6.4603949c.2276222-.2119488.6032801-.1001276.673173.2003819l1.3648377,8.3962975c.0943164.4055202.6781256.4151722.7862495.0129989l8.8641423-32.9759531Z"/><path class="cls-2" d="M72.7715359,37.3350729c0,1.8781675-3.5461885,3.26535-4.009185,4.9975458-.4790458,1.7922408,1.884252,4.7636744.9763586,6.3328443-.9209496,1.5917359-4.6842014,1.024191-5.9760088,2.315981-1.2917999,1.2917825-.7242941,5.0550354-2.3160328,5.975961-1.5691517.9078575-4.5405315-1.4554832-6.332743-.9764593-1.7321519.4629711-3.1192962,4.0091489-4.9974106,4.0091489-1.8781675,0-3.26535-3.5461885-4.9975459-4.009185-1.7922408-.4790458-4.7636745,1.884252-6.3328444.9763586-1.5917359-.9209496-1.024191-4.6842014-2.315981-5.9760088-1.2917825-1.2917999-5.0550354-.7242941-5.975961-2.3160328-.9078575-1.5691517,1.4554832-4.5405315.9764593-6.332743-.4629711-1.7321519-4.0091489-3.1192962-4.0091489-4.9974107,0-1.8781675,3.5461885-3.2653501,4.009185-4.9975459.4790458-1.7922408-1.8842519-4.7636745-.9763585-6.3328444.9209496-1.5917359,4.6842013-1.0241908,5.9760087-2.3159808,1.2917999-1.2917825.7242942-5.0550356,2.3160329-5.9759612,1.5691517-.9078575,4.5405314,1.4554833,6.3327429.9764594,1.7321519-.4629711,3.1192963-4.0091489,4.9974107-4.0091489,1.8781675,0,3.26535,3.5461885,4.9975459,4.009185,1.7922408.4790458,4.7636745-1.8842519,6.3328444-.9763585,1.5917359.9209496,1.0241908,4.6842013,2.3159808,5.9760087,1.2917825,1.2917999,5.0550355.7242942,5.9759611,2.3160329.9078575,1.5691517-1.4554832,4.5405312-.9764593,6.3327428.4629711,1.7321519,4.0091489,3.1192965,4.0091489,4.997411Z"/><circle class="cls-4" cx="50.116514" cy="37.3350728" r="11.5267093"/></svg>