<?xml version="1.0" encoding="UTF-8"?><svg id="_Шар_1" xmlns="http://www.w3.org/2000/svg" xmlns:xlink="http://www.w3.org/1999/xlink" viewBox="0 0 100 100.0001951"><defs><style>.cls-1{fill:url(#linear-gradient-2);}.cls-2{fill:#191919;}.cls-3{fill:#1d1d1b;}.cls-4{fill:url(#linear-gradient);}</style><linearGradient id="linear-gradient" x1="14.6799378" y1="50.0000831" x2="85.3200051" y2="50.0000831" gradientUnits="userSpaceOnUse"><stop offset="0" stop-color="#b1b1b1"/><stop offset="1" stop-color="#333"/></linearGradient><linearGradient id="linear-gradient-2" x1="50.2720511" y1="76.5184416" x2="50.0347283" y2="81.8186517" xlink:href="#linear-gradient"/></defs><path class="cls-3" d="M100,100H0V0h100v100ZM.0999001,99.9000999h99.8001998V.0999001H.0999001v99.8001998Z"/><path class="cls-3" d="M50,100c-6.7498907,0-13.2980301-1.3219203-19.4621784-3.9292739-5.9540069-2.5183801-11.3011988-6.1235639-15.8930913-10.7152613-4.5918925-4.5918925-8.1970764-9.9390844-10.7154564-15.8930913-2.6073536-6.1643435-3.9292739-12.7122877-3.9292739-19.4621784s1.3219203-13.2980301,3.9292739-19.4623736c2.5183801-5.9540069,6.1235639-11.3011988,10.7154564-15.8930913S24.5838146,6.4476539,30.5378216,3.9292739c6.1641484-2.6073536,12.7122877-3.9292739,19.4621784-3.9292739s13.2980301,1.3219203,19.4621784,3.9292739c5.9540069,2.5183801,11.3011988,6.1235639,15.8930913,10.7154564s8.1970764,9.9390844,10.7154564,15.8930913c2.6073536,6.1641484,3.9292739,12.7122877,3.9292739,19.4621784s-1.3219203,13.2980301-3.9292739,19.4621784c-2.5183801,5.9540069-6.1235639,11.3011988-10.7154564,15.8930913-4.5918925,4.5918925-9.9390844,8.1970764-15.8930913,10.7154564-6.1641484,2.6073536-12.7122877,3.9292739-19.4621784,3.9292739ZM50,.0999001C22.4849369.0999001.0999001,22.4849369.0999001,50s22.3850368,49.9000999,49.9000999,49.9000999,49.9000999-22.3850368,49.9000999-49.8999048C99.9000999,22.4851321,77.5150631.0999001,50,.0999001Z"/><path class="cls-3" d="M70.02997,100.0001951H29.97003V.0001951h40.0599401v100ZM30.0699301,99.900295h39.8601399V.1000952H30.0699301v99.8001998Z"/><rect class="cls-3" x="49.95005" y=".04995" width=".0999001" height="99.9000999"/><path class="cls-3" d="M100,70.02997H0V29.97003h100v40.0599401ZM.0999001,69.9300699h99.8001998V30.0699301H.0999001v39.8601399Z"/><rect class="cls-3" x=".04995" y="49.95005" width="99.9000999" height=".0999001"/><rect class="cls-3" x="49.9500553" y="-20.6400381" width=".0998894" height="141.2800762" transform="translate(-20.7106781 50) rotate(-45)"/><rect class="cls-3" x="-20.6400381" y="49.9500553" width="141.2800762" height=".0998894" transform="translate(-20.7106781 50) rotate(-45)"/><path class="cls-3" d="M85.4198536,85.4200487H14.5799513V14.5801464h70.8399023v70.8399023ZM14.7797515,85.2202485h70.4403019V14.7799466H14.7797515v70.4403019Z"/><path class="cls-3" d="M50,85.4200487c-19.5306646,0-35.4200487-15.8891889-35.4200487-35.4198536S30.4693354,14.5801464,50,14.5801464s35.4198536,15.8891889,35.4198536,35.4198536-15.8891889,35.4200487-35.4198536,35.4200487ZM50,14.7799466c-19.4204233,0-35.2202485,15.7996301-35.2202485,35.2200534s15.7998252,35.2202485,35.2202485,35.2202485,35.2200534-15.7996301,35.2200534-35.2200534S69.4204233,14.7799466,50,14.7799466Z"/><path class="cls-3" d="M50,70.0301651c-11.0446194,0-20.0301651-8.9853506-20.0301651-20.02997s8.9855457-20.0301651,20.0301651-20.0301651,20.0301651,8.9853506,20.0301651,20.02997-8.9855457,20.0301651-20.0301651,20.0301651ZM50,30.0699301c-10.9895963,0-19.930265,8.9406687-19.930265,19.9300699,0,10.9895963,8.9406687,19.930265,19.930265,19.930265s19.930265-8.9406687,19.930265-19.9300699c0-10.9895963-8.9406687-19.930265-19.930265-19.930265Z"/><path class="cls-3" d="M50,60.03996c-5.5360655,0-10.03996-4.5038945-10.03996-10.03996s4.5038945-10.03996,10.03996-10.03996,10.03996,4.5038945,10.03996,10.03996-4.5038945,10.03996-10.03996,10.03996ZM50,40.0599401c-5.4810424,0-9.9400599,4.4590175-9.9400599,9.9400599s4.4590175,9.9400599,9.9400599,9.9400599,9.9400599-4.4590175,9.9400599-9.9400599-4.4590175-9.9400599-9.9400599-9.9400599Z"/><polygon class="cls-4" points="14.6799378 39.6065069 50.4442486 14.6800494 85.3200051 39.6065069 85.3200051 85.3201167 14.6799378 85.3201167 14.6799378 39.6065069"/><path class="cls-2" d="M30.025432,69.1298903h39.9547048v.0000078c0,4.3335195-3.518268,7.8517875-7.8517875,7.8517875h-24.2511299c-4.3335195,0-7.8517875-3.518268-7.8517875-7.8517875v-.0000078h0Z"/><path class="cls-2" d="M30.025432,69.1298903l-.0057258-21.3075632c0-1.3812635,1.1197353-2.5009988,2.5009988-2.5009988h34.9527074c1.3812635,0,2.5009988,1.1197353,2.5009988,2.5009988l.0057258,21.3075632H30.025432"/><polygon class="cls-1" points="53.5623833 81.4960413 53.5618469 81.4960413 53.5597607 76.9816855 46.4344131 76.9816855 46.4364993 81.4960413 46.43185 81.4960413 45.4402464 82.6593098 49.9971763 82.6593098 54.5539273 82.6593098 53.5623833 81.4960413"/><path class="cls-2" d="M56.7404203,85.3201167h-13.4866669c-.8092096,0-1.4648743-.6556648-1.4648743-1.4648743s.6556648-1.4648743,1.4648743-1.4648743h13.4866669c.8092096,0,1.4648743.6556648,1.4648743,1.4648743s-.6556648,1.4648743-1.4648743,1.4648743Z"/><rect class="cls-2" x="41.7888791" y="82.3903681" width="16.4164156" height="2.9297487"/></svg>