<?xml version="1.0" encoding="UTF-8"?><svg id="_Шар_1" xmlns="http://www.w3.org/2000/svg" xmlns:xlink="http://www.w3.org/1999/xlink" viewBox="0 0 100 100.0000976"><defs><style>.cls-1{fill:#191919;}.cls-2{fill:#1d1d1b;}.cls-3{fill:url(#linear-gradient);}</style><linearGradient id="linear-gradient" x1="52.4331526" y1="61.288055" x2="80.3140642" y2="-9.8972511" gradientTransform="translate(-15.5461738 22.944974) rotate(-.6856816)" gradientUnits="userSpaceOnUse"><stop offset="0" stop-color="#b1b1b1"/><stop offset="1" stop-color="#333"/></linearGradient></defs><path class="cls-2" d="M100,100.0000976H0V0h100v100.0000976ZM.0999001,99.9001975h99.8001998V.0999001H.0999001v99.8002974Z"/><path class="cls-2" d="M50,100.0000976c-6.7498907,0-13.2980301-1.3219203-19.4621784-3.9292739-5.9540069-2.5183801-11.3011988-6.1235639-15.8930913-10.7154564-4.5918925-4.5918925-8.1970764-9.9390844-10.7154564-15.8930913-2.6073536-6.1641484-3.9292739-12.7122877-3.9292739-19.4621784s1.3219203-13.2980301,3.9292739-19.4623736c2.5183801-5.9538118,6.1235639-11.3011988,10.7154564-15.8930913S24.5838146,6.4475563,30.5378216,3.9293714c6.1641484-2.6073536,12.7122877-3.9293714,19.4621784-3.9293714s13.2980301,1.3220178,19.4621784,3.9293714c5.9540069,2.5181849,11.3011988,6.1233688,15.8930913,10.7152613s8.1970764,9.9390844,10.7154564,15.8930913c2.6073536,6.1643435,3.9292739,12.7122877,3.9292739,19.4621784s-1.3219203,13.2980301-3.9292739,19.4623736c-2.5183801,5.9540069-6.1235639,11.3011988-10.7154564,15.8930913-4.5918925,4.5918925-9.9390844,8.1970764-15.8930913,10.7154564-6.1641484,2.6073536-12.7122877,3.9292739-19.4621784,3.9292739ZM50,.0999001C22.4849369.0999001.0999001,22.4850345.0999001,49.9999024c0,27.5150631,22.3850368,49.900295,49.9000999,49.900295s49.9000999-22.3850368,49.9000999-49.9000999S77.5150631.0999001,50,.0999001Z"/><path class="cls-2" d="M70.02997,100.0000976H29.97003V.0000976h40.0599401v100ZM30.0699301,99.9001975h39.8601399V.0999977H30.0699301v99.8001998Z"/><rect class="cls-2" x="49.95005" y=".04995" width=".0999001" height="99.9001975"/><path class="cls-2" d="M100,70.0298725H0V29.9699324h100v40.0599401ZM.0999001,69.9299724h99.8001998V30.0698325H.0999001v39.8601399Z"/><rect class="cls-2" x=".04995" y="49.9499524" width="99.9000999" height=".0999001"/><rect class="cls-2" x="49.9500553" y="-20.6400238" width=".0998894" height="141.2801451" transform="translate(-20.7107126 49.9999798) rotate(-44.999972)"/><rect class="cls-2" x="-20.6400726" y="49.9501041" width="141.2801451" height=".0998894" transform="translate(-20.7107126 50.0000143) rotate(-45)"/><path class="cls-2" d="M85.4200487,85.4199511H14.5801464V14.5800489h70.8399023v70.8399023ZM14.7799466,85.2201509h70.4403019V14.7798491H14.7799466v70.4403019Z"/><path class="cls-2" d="M50,85.4199511c-19.5306646,0-35.4198536-15.8891889-35.4198536-35.4198536S30.4693354,14.5800489,50,14.5800489s35.4200487,15.8891889,35.4200487,35.4198536-15.8893841,35.4200487-35.4200487,35.4200487ZM50,14.7798491c-19.4204233,0-35.2200534,15.7996301-35.2200534,35.2200534s15.7996301,35.2202485,35.2200534,35.2202485,35.2202485-15.7996301,35.2202485-35.2200534S69.4204233,14.7798491,50,14.7798491Z"/><path class="cls-2" d="M50,70.0300676c-11.0446194,0-20.0301651-8.9853506-20.0301651-20.02997s8.9855457-20.0301651,20.0301651-20.0301651,20.0301651,8.9855457,20.0301651,20.0301651-8.9855457,20.02997-20.0301651,20.02997ZM50,30.0698325c-10.9895963,0-19.930265,8.9406687-19.930265,19.930265,0,10.9894012,8.9406687,19.9300699,19.930265,19.9300699s19.930265-8.9406687,19.930265-19.9300699c0-10.9895963-8.9406687-19.930265-19.930265-19.930265Z"/><path class="cls-2" d="M50,60.0400576c-5.5360655,0-10.03996-4.5038945-10.03996-10.03996s4.5038945-10.03996,10.03996-10.03996,10.03996,4.5038945,10.03996,10.03996-4.5038945,10.03996-10.03996,10.03996ZM50,40.0600376c-5.4810424,0-9.9400599,4.4590175-9.9400599,9.9400599s4.4590175,9.9400599,9.9400599,9.9400599,9.9400599-4.4590175,9.9400599-9.9400599-4.4590175-9.9400599-9.9400599-9.9400599Z"/><circle class="cls-1" cx="50.0212591" cy="49.9790043" r="27.5614159" transform="translate(-.5944673 .6021325) rotate(-.6856174)"/><path class="cls-3" d="M61.0491942,55.8070634l24.1032172-5.6461534c.231648-.0542633.2311116-.3841926-.0007115-.4377023l-24.1138643-5.5659923c-.1500542-.0346357-.2215842-.206531-.1403963-.3373896l9.04732-13.4552707c.1254296-.2021674-.1082483-.4350835-.3100099-.3089992l-13.6539716,9.1640903c-.1289395.0805766-.2990098.0125049-.3367424-.1347831l-5.4252486-24.321197c-.0590431-.2304729-.3888956-.2231132-.4376004.0097637l-5.8503268,24.3205503c-.0315255.1507363-.2019072.2258049-.3344188.1473419l-13.2356722-9.188581c-.2047217-.1212202-.4327589.117223-.3025257.3163306l8.9426195,13.7128112c.0842972.1288781.0169017.3024368-.1322811.3406538l-24.0196423,5.3586892c-.2304764.0590424-.2231165.3888903.009764.4375941l24.2773332,5.8504995c.1507387.0315249.2258085.2019044.1473441.3344142l-9.2306249,13.23543c-.1212221.2047183.1172235.4327524.3163343.3025218l13.544762-8.8049603c.1305233-.0853702.3061927-.0150578.3417646.1367928l5.5255159,23.923207c.0542641.2316445.3841981.2311079.4377087-.0007118l5.6243254-24.2005956c.0346362-.1500519.2065336-.2215809.3373941-.1403946l13.4548072,9.0898556c.2021702.125427.4350891-.108247.3090036-.3100054l-9.0344759-13.4899658c-.0816125-.1305939-.0106417-.3027205.1392989-.3378439Z"/><circle class="cls-1" cx="50.0212591" cy="49.9790043" r="2.774516" transform="translate(-.5944665 .6021316) rotate(-.6856165)"/></svg>