<?xml version="1.0" encoding="UTF-8"?><svg id="_Шар_1" xmlns="http://www.w3.org/2000/svg" xmlns:xlink="http://www.w3.org/1999/xlink" viewBox="0 0 100 100.0001951"><defs><style>.cls-1{fill:url(#linear-gradient-2);}.cls-2{fill:url(#linear-gradient-4);}.cls-3{fill:url(#linear-gradient-3);}.cls-4{fill:#191919;}.cls-5{fill:#1d1d1b;}.cls-6{fill:url(#linear-gradient);}</style><linearGradient id="linear-gradient" x1="605.7065855" y1="-82.1742418" x2="611.9382872" y2="-98.0849696" gradientTransform="translate(-503.3500088 307.5533954) rotate(-18.8589641)" gradientUnits="userSpaceOnUse"><stop offset="0" stop-color="#b1b1b1"/><stop offset="1" stop-color="#333"/></linearGradient><linearGradient id="linear-gradient-2" x1="-47.6004015" y1="116.321111" x2="-42.132029" y2="102.3593087" gradientTransform="translate(129.5391264 -54.3900128) rotate(4.0802465)" xlink:href="#linear-gradient"/><linearGradient id="linear-gradient-3" x1="65.0352926" y1="47.6422657" x2="79.5884613" y2="10.4852392" gradientTransform="matrix(1,0,0,1,0,0)" xlink:href="#linear-gradient"/><linearGradient id="linear-gradient-4" x1="-642.9010634" y1="1917.019276" x2="-618.5885365" y2="1854.9447393" gradientTransform="translate(-1708.3886998 906.0490125) rotate(-134.9999992) scale(1 .970073)" xlink:href="#linear-gradient"/></defs><path class="cls-5" d="M100,100H0V0h100v100ZM.0999001,99.9000999h99.8001998V.0999001H.0999001v99.8001998Z"/><path class="cls-5" d="M50.0001951,100c-6.7498907,0-13.2980301-1.3219203-19.4623736-3.9292739-5.9540069-2.5183801-11.3011988-6.1235639-15.8930913-10.7152613-4.5918925-4.5918925-8.1970764-9.9390844-10.7154564-15.8930913-2.6073536-6.1643435-3.9292739-12.7122877-3.9292739-19.4621784s1.3219203-13.2980301,3.9292739-19.4623736c2.5183801-5.9540069,6.1235639-11.3011988,10.7154564-15.8930913S24.5838146,6.4476539,30.5378216,3.9292739c6.1641484-2.6073536,12.7122877-3.9292739,19.4621784-3.9292739s13.2980301,1.3219203,19.4621784,3.9292739c5.9540069,2.5183801,11.3011988,6.1235639,15.8930913,10.7154564s8.1970764,9.9390844,10.7154564,15.8930913c2.6073536,6.1641484,3.9292739,12.7122877,3.9292739,19.4621784s-1.3219203,13.2980301-3.9292739,19.4621784c-2.5183801,5.9540069-6.1235639,11.3011988-10.7152613,15.8930913-4.5918925,4.5918925-9.9390844,8.1970764-15.8930913,10.7154564-6.1643435,2.6073536-12.7122877,3.9292739-19.4621784,3.9292739ZM50.0001951.0999001C22.4851321.0999001.0999001,22.4849369.0999001,50s22.3850368,49.9000999,49.9000999,49.9000999h.0001951c27.5148679,0,49.8999048-22.3850368,49.8999048-49.8999048C99.9000999,22.4851321,77.5150631.0999001,50.0001951.0999001Z"/><path class="cls-5" d="M70.02997,100.0001951H29.97003V.0001951h40.0599401v100ZM30.0699301,99.900295h39.8601399V.1000952H30.0699301v99.8001998Z"/><rect class="cls-5" x="49.95005" y=".04995" width=".0999001" height="99.9000999"/><path class="cls-5" d="M100,70.02997H0V29.97003h100v40.0599401ZM.0999001,69.9300699h99.8001998V30.0699301H.0999001v39.8601399Z"/><rect class="cls-5" x=".04995" y="49.95005" width="99.9000999" height=".0999001"/><rect class="cls-5" x="49.9500553" y="-20.6400381" width=".0998894" height="141.2800762" transform="translate(-20.7106781 50) rotate(-45)"/><rect class="cls-5" x="-20.6400381" y="49.9500553" width="141.2800762" height=".0998894" transform="translate(-20.7106781 50) rotate(-45)"/><path class="cls-5" d="M85.4200487,85.4200487H14.5801464V14.5801464h70.8399023v70.8399023ZM14.7799466,85.2202485h70.4403019V14.7799466H14.7799466v70.4403019Z"/><path class="cls-5" d="M50.0001951,85.4200487c-19.5306646,0-35.4200487-15.8891889-35.4200487-35.4198536S30.4693354,14.5801464,50,14.5801464s35.4200487,15.8891889,35.4200487,35.4198536-15.8891889,35.4200487-35.4198536,35.4200487ZM50.0001951,14.7799466c-19.4204233,0-35.2202485,15.7996301-35.2202485,35.2200534s15.7996301,35.2202485,35.2200534,35.2202485h.0001951c19.4204233,0,35.2200534-15.7996301,35.2200534-35.2200534S69.4206184,14.7799466,50.0001951,14.7799466Z"/><path class="cls-5" d="M50,70.0301651c-11.0446194,0-20.02997-8.9853506-20.02997-20.02997s8.9853506-20.0301651,20.02997-20.0301651,20.0301651,8.9853506,20.0301651,20.02997-8.9855457,20.0301651-20.0301651,20.0301651ZM50,30.0699301c-10.9894012,0-19.9300699,8.9406687-19.9300699,19.9300699,0,10.9895963,8.9406687,19.930265,19.9300699,19.930265,10.9895963,0,19.930265-8.9406687,19.930265-19.9300699,0-10.9895963-8.9406687-19.930265-19.930265-19.930265Z"/><path class="cls-5" d="M50,60.03996c-5.5360655,0-10.03996-4.5038945-10.03996-10.03996s4.5038945-10.03996,10.03996-10.03996,10.03996,4.5038945,10.03996,10.03996-4.5038945,10.03996-10.03996,10.03996ZM50,40.0599401c-5.4810424,0-9.9400599,4.4590175-9.9400599,9.9400599s4.4590175,9.9400599,9.9400599,9.9400599,9.9400599-4.4590175,9.9400599-9.9400599-4.4590175-9.9400599-9.9400599-9.9400599Z"/><path class="cls-6" d="M46.9994413,33.0339955l-.8675093-13.1122934c-.0608098-.9191325-.9775012-1.5299797-1.8491935-1.23223l-3.166533,1.0816134c-.8001449.2733107-1.1771675,1.1881927-.801901,1.9458903l5.7320727,11.5735794c.24425.4931631.9893948.2925742.9530641-.2565597Z"/><path class="cls-1" d="M65.9828272,53.1149329l16.7234399-5.1079518c1.3031916-.3008652,2.5590293.6567192,2.6138357,1.9930667l.2020137,4.9257155c.0552218,1.3464774-1.1353269,2.4068049-2.4664527,2.1966743l-17.0427179-3.1513033c-.4738686-.0748046-.4975596-.7482842-.0301187-.8562013Z"/><path class="cls-3" d="M57.0399861,42.2558051l20.7884933-26.8490718c.7888972-.9602819,2.2552902-.9703663,3.0573198-.0210251l3.9643634,4.6925118c.7626949.9027817.5749803,2.2674601-.4031366,2.9307893l-26.6310717,20.0974848c-.5557862.3769173-1.202251-.3317979-.7759682-.850689Z"/><path class="cls-2" d="M35.7168887,36.3259614l-21.0368532,48.9941554,49.7042069-20.3268008s6.4154618-2.8479726-9.7019597-18.9653946c-16.1174215-16.117422-18.965394-9.70196-18.965394-9.70196Z"/><polygon class="cls-4" points="34.3636788 77.2703861 19.4791809 74.1430613 22.5358173 67.0285357 48.1738975 71.6226231 34.3636788 77.2703861"/><path class="cls-4" d="M64.9093482,59.2908291l-35.7723495-7.6419172,2.7362816-6.3710277,27.7043223,6.0174339s3.473258,3.9176846,5.3317456,7.9955109Z"/><circle class="cls-4" cx="61.0561163" cy="17.3183709" r="2.6383062"/><circle class="cls-4" cx="82.2340436" cy="36.367405" r="2.6383062"/></svg>