<?xml version="1.0" encoding="UTF-8"?><svg id="_Шар_1" xmlns="http://www.w3.org/2000/svg" xmlns:xlink="http://www.w3.org/1999/xlink" viewBox="0 0 100 100.0000976"><defs><style>.cls-1{fill:url(#linear-gradient-2);}.cls-2{fill:#191919;}.cls-3{fill:#1d1d1b;}.cls-4{fill:url(#linear-gradient);}</style><linearGradient id="linear-gradient" x1="18.9168535" y1="109.0059737" x2="88.5192797" y2="14.6298026" gradientUnits="userSpaceOnUse"><stop offset="0" stop-color="#b1b1b1"/><stop offset="1" stop-color="#333"/></linearGradient><linearGradient id="linear-gradient-2" x1="27.1743143" y1="71.7374732" x2="78.2863759" y2="2.4329828" xlink:href="#linear-gradient"/></defs><path class="cls-3" d="M100,100.0000976H0V0h100v100.0000976ZM.0999001,99.9001975h99.8001998V.0999001H.0999001v99.8002974Z"/><path class="cls-3" d="M50,100.0000976c-6.7498907,0-13.2980301-1.3219203-19.4621784-3.9292739-5.9540069-2.5183801-11.3011988-6.1235639-15.8930913-10.7154564s-8.1970764-9.9390844-10.7154564-15.8930913c-2.6073536-6.1641484-3.9292739-12.7122877-3.9292739-19.4621784s1.3219203-13.2980301,3.9292739-19.4623736c2.5183801-5.9538118,6.1235639-11.3011988,10.7154564-15.8930913S24.5838146,6.4475563,30.5378216,3.9293714c6.1641484-2.6073536,12.7122877-3.9293714,19.4621784-3.9293714s13.2980301,1.3220178,19.4621784,3.9293714c5.9540069,2.5181849,11.3011988,6.1233688,15.8930913,10.7152613s8.1970764,9.9390844,10.7154564,15.8930913c2.6073536,6.1643435,3.9292739,12.7122877,3.9292739,19.4621784s-1.3219203,13.2980301-3.9292739,19.4623736c-2.5183801,5.9540069-6.1235639,11.3011988-10.7154564,15.8930913s-9.9390844,8.1970764-15.8930913,10.7154564c-6.1641484,2.6073536-12.7122877,3.9292739-19.4621784,3.9292739ZM50,.0999001C22.4849369.0999001.0999001,22.4850345.0999001,49.9999024c0,27.5150631,22.3850368,49.900295,49.9000999,49.900295s49.9000999-22.3850368,49.9000999-49.9000999S77.5150631.0999001,50,.0999001Z"/><path class="cls-3" d="M70.02997,100.0000976H29.97003V.0000976h40.0599401v100ZM30.0699301,99.9001975h39.8601399V.0999977H30.0699301v99.8001998Z"/><rect class="cls-3" x="49.95005" y=".04995" width=".0999001" height="99.9001975"/><path class="cls-3" d="M100,70.0298725H0V29.9699324h100v40.0599401ZM.0999001,69.9299724h99.8001998V30.0698325H.0999001v39.8601399Z"/><rect class="cls-3" x=".04995" y="49.9499524" width="99.9000999" height=".0999001"/><rect class="cls-3" x="49.9500553" y="-20.6400238" width=".0998894" height="141.2801451" transform="translate(-20.7107126 49.9999798) rotate(-44.999972)"/><rect class="cls-3" x="-20.6400726" y="49.9501041" width="141.2801451" height=".0998894" transform="translate(-20.7107126 50.0000143) rotate(-45)"/><path class="cls-3" d="M85.4200487,85.4199511H14.5801464V14.5800489h70.8399023v70.8399023ZM14.7799466,85.2201509h70.4403019V14.7798491H14.7799466v70.4403019Z"/><path class="cls-3" d="M50,85.4199511c-19.5306646,0-35.4198536-15.8891889-35.4198536-35.4198536S30.4693354,14.5800489,50,14.5800489s35.4200487,15.8891889,35.4200487,35.4198536-15.8893841,35.4200487-35.4200487,35.4200487ZM50,14.7798491c-19.4204233,0-35.2200534,15.7996301-35.2200534,35.2200534s15.7996301,35.2202485,35.2200534,35.2202485,35.2202485-15.7996301,35.2202485-35.2200534S69.4204233,14.7798491,50,14.7798491Z"/><path class="cls-3" d="M50,70.0300676c-11.0446194,0-20.0301651-8.9853506-20.0301651-20.02997s8.9855457-20.0301651,20.0301651-20.0301651,20.0301651,8.9855457,20.0301651,20.0301651-8.9855457,20.02997-20.0301651,20.02997ZM50,30.0698325c-10.9895963,0-19.930265,8.9406687-19.930265,19.930265,0,10.9894012,8.9406687,19.9300699,19.930265,19.9300699s19.930265-8.9406687,19.930265-19.9300699c0-10.9895963-8.9406687-19.930265-19.930265-19.930265Z"/><path class="cls-3" d="M50,60.0400576c-5.5360655,0-10.03996-4.5038945-10.03996-10.03996s4.5038945-10.03996,10.03996-10.03996,10.03996,4.5038945,10.03996,10.03996-4.5038945,10.03996-10.03996,10.03996ZM50,40.0600376c-5.4810424,0-9.9400599,4.4590175-9.9400599,9.9400599s4.4590175,9.9400599,9.9400599,9.9400599,9.9400599-4.4590175,9.9400599-9.9400599-4.4590175-9.9400599-9.9400599-9.9400599Z"/><rect class="cls-4" x="19.6859872" y="48.3988148" width="60.6280897" height="36.9209521"/><path class="cls-2" d="M49.9997345,39.1964151h-11.5034514c-.2706493,0-.5370162-.0625234-.7794014-.1824313-6.0861832-3.017397-8.9502693-8.0702309-7.8573944-13.8630679,1.0020876-5.3166313,5.2776612-9.945505,9.5309662-10.3180761,9.7690691-.8556286,12.1586626,5.3684486,12.2563019,5.633959.0710883.1935656.1070606.3982656.1070606.6042502v16.3712845c0,.9686847-.7853968,1.7540815-1.7540815,1.7540815ZM38.9176737,35.6882521h9.3279793v-14.2305c-.4547936-.8273646-2.4803809-3.6597609-8.5485778-3.1304531-2.3913064.2098389-5.6322461,3.4503502-6.3902354,7.473689-.4496547,2.3814568-.2989133,6.7906422,5.6108339,9.8872641Z"/><path class="cls-2" d="M61.5040424,39.1964151h-11.5043079c-.9686847,0-1.7540815-.7853968-1.7540815-1.7540815v-16.3712845c0-.2059847.0359724-.4106846.1070606-.6042502.0976393-.2655104,2.4966541-6.4938701,12.2563019-5.633959,4.253305.372571,8.5297352,5.0014448,9.5318227,10.3180761,1.092875,5.792837-1.7712112,10.8456709-7.8573944,13.8630679-.2423853.1199079-.5087522.1824313-.7794014.1824313ZM51.753816,35.6882521h9.3288358c5.9097472-3.0966219,6.0604886-7.5058072,5.6108339-9.8872641-.7588458-4.0233388-3.9997854-7.2638502-6.3910919-7.473689-6.0459284-.5301643-8.0749416,2.2765374-8.5485778,3.135592v14.2253611Z"/><rect class="cls-1" x="14.5708432" y="33.1758798" width="70.8583778" height="15.222935" rx="7.6114599" ry="7.6114599"/><rect class="cls-2" x="48.148907" y="48.3985988" width="3.7018463" height="36.9214578"/></svg>