<?xml version="1.0" encoding="UTF-8"?><svg id="_Шар_1" xmlns="http://www.w3.org/2000/svg" viewBox="0 0 100 99.9999024"><defs><style>.cls-1{fill:#1d1d1b;}</style></defs><path class="cls-1" d="M100,99.9999024H0V0h100v99.9999024ZM.0999,99.9000024h99.8002V.0999H.0999v99.8001024Z"/><path class="cls-1" d="M50.0000488,99.9999024c-6.7498841,0-13.2980171-1.321919-19.4623546-3.92927-5.9539036-2.5183776-11.3011878-6.123558-15.8930758-10.715446s-8.1970684-9.9390747-10.7153484-15.8930758c-2.6072535-6.1641423-3.92927-12.7122753-3.92927-19.4621595s1.3220165-13.2980171,3.92927-19.462257c2.51828-5.9540011,6.1234604-11.3011878,10.7153484-15.8930758S24.5836931,6.4475501,30.5375966,3.92927c6.1642399-2.6072535,12.7123729-3.92927,19.462257-3.92927s13.2980171,1.3220165,19.4623546,3.92927c5.9540011,2.51828,11.3011878,6.1234604,15.8930758,10.7153484s8.1970684,9.9390747,10.715446,15.8929782c2.607351,6.1643375,3.92927,12.7123729,3.92927,19.462257,0,6.7499817-1.321919,13.2981147-3.92927,19.462257-2.5183776,5.9540011-6.123558,11.3011878-10.715446,15.8930758s-9.9390747,8.1970684-15.8930758,10.715446c-6.1641423,2.607351-12.7122753,3.92927-19.4621595,3.92927ZM50.0000488.0999C22.4850126.0999.0999,22.484915.0999,49.9998537s22.385015,49.9001488,49.8999537,49.9001488h.0001951c27.5150362,0,49.9000512-22.385015,49.9000512-49.9000512C99.9001,22.4850126,77.515085.0999,50.0000488.0999Z"/><path class="cls-1" d="M70.0299993,99.9999024H29.9700007V0h40.0599985v99.9999024ZM30.0699007,99.9000024h39.8601985V.0999H30.0699007v99.8001024Z"/><rect class="cls-1" x="49.9499037" y=".04995" width=".0999" height="99.9000024"/><path class="cls-1" d="M100,70.0297066H0V29.9698056h100v40.059901ZM.0999,69.9298066h99.8002V30.0697056H.0999v39.860101Z"/><rect class="cls-1" x=".04995" y="49.9499037" width="99.9001" height=".0999"/><rect class="cls-1" x="49.9500553" y="-20.6400524" width=".0998893" height="141.2800073" transform="translate(-20.7106436 50.0000202) rotate(-45.000028)"/><rect class="cls-1" x="-20.6400037" y="49.9500066" width="141.2800073" height=".0998893" transform="translate(-20.7106436 49.9999857) rotate(-45)"/><path class="cls-1" d="M85.4198678,85.4197702H14.5801322V14.5800346h70.8397356v70.8397356ZM14.7799322,85.2199702h70.4401356V14.7798346H14.7799322v70.4401356Z"/><path class="cls-1" d="M50.0000488,85.4197702c-19.5306456,0-35.4199166-15.8891734-35.4199166-35.419819S30.4693056,14.5800346,49.9998537,14.5800346c19.5306456,0,35.4200141,15.889271,35.4200141,35.419819s-15.8891734,35.4199166-35.419819,35.4199166ZM50.0000488,14.7798346c-19.4204044,0-35.2201166,15.7996146-35.2201166,35.220019,0,19.4205019,15.7996146,35.2201166,35.2199215,35.2201166h.0001951c19.4204044,0,35.220019-15.7996146,35.220019-35.220019S69.4204532,14.7798346,50.0000488,14.7798346Z"/><path class="cls-1" d="M50.0000488,70.0300968c-11.0446087,0-20.0301456-8.9855369-20.0301456-20.0301456,0-11.0447062,8.9855369-20.0301456,20.0301456-20.0301456s20.0299505,8.9854394,20.0299505,20.0301456c0,11.0446087-8.9853418,20.0301456-20.0299505,20.0301456ZM50.0000488,30.0697056c-10.9895856,0-19.9302456,8.94066-19.9302456,19.9302456s8.94066,19.9302456,19.9302456,19.9302456c10.9893905,0,19.9300505-8.94066,19.9300505-19.9302456s-8.94066-19.9302456-19.9300505-19.9302456Z"/><path class="cls-1" d="M50.0000488,60.0399015c-5.5360601,0-10.0399502-4.5038901-10.0399502-10.0399502s4.5038901-10.0399502,10.0399502-10.0399502,10.0399502,4.5038901,10.0399502,10.0399502-4.5038901,10.0399502-10.0399502,10.0399502ZM50.0000488,40.059901c-5.481037,0-9.9400502,4.4591108-9.9400502,9.9400502,0,5.481037,4.4590132,9.9400502,9.9400502,9.9400502s9.9400502-4.4590132,9.9400502-9.9400502c0-5.4809395-4.4590132-9.9400502-9.9400502-9.9400502Z"/></svg>