<?xml version="1.0" encoding="UTF-8"?><svg id="_Шар_1" xmlns="http://www.w3.org/2000/svg" xmlns:xlink="http://www.w3.org/1999/xlink" viewBox="0 0 100 100.0001951"><defs><style>.cls-1{fill:url(#linear-gradient-2);}.cls-2{fill:url(#linear-gradient-3);}.cls-3{fill:#191919;}.cls-4{fill:#1d1d1b;}.cls-5{fill:url(#linear-gradient);}</style><linearGradient id="linear-gradient" x1="108.5618426" y1="-4.2711464" x2="-12.5873838" y2="80.6626529" gradientUnits="userSpaceOnUse"><stop offset="0" stop-color="#b1b1b1"/><stop offset="1" stop-color="#333"/></linearGradient><linearGradient id="linear-gradient-2" x1="50.4860569" y1="69.8209358" x2="50.0665889" y2="79.1890553" xlink:href="#linear-gradient"/><linearGradient id="linear-gradient-3" x1="45.7275237" y1="92.2647872" x2="56.7226998" y2="-2.7649495" xlink:href="#linear-gradient"/></defs><path class="cls-4" d="M100,100H0V0h100v100ZM.0999001,99.9000999h99.8001998V.0999001H.0999001v99.8001998Z"/><path class="cls-4" d="M50.0001951,100c-6.7498907,0-13.2980301-1.3219203-19.4623736-3.9292739-5.9540069-2.5183801-11.3011988-6.1235639-15.8930913-10.7152613-4.5918925-4.5918925-8.1970764-9.9390844-10.7154564-15.8930913-2.6073536-6.1643435-3.9292739-12.7122877-3.9292739-19.4621784s1.3219203-13.2980301,3.9292739-19.4623736c2.5183801-5.9540069,6.1235639-11.3011988,10.7154564-15.8930913S24.5838146,6.4476539,30.5378216,3.9292739c6.1641484-2.6073536,12.7122877-3.9292739,19.4621784-3.9292739s13.2980301,1.3219203,19.4621784,3.9292739c5.9540069,2.5183801,11.3011988,6.1235639,15.8930913,10.7154564s8.1970764,9.9390844,10.7154564,15.8930913c2.6073536,6.1641484,3.9292739,12.7122877,3.9292739,19.4621784s-1.3219203,13.2980301-3.9292739,19.4621784c-2.5183801,5.9540069-6.1235639,11.3011988-10.7152613,15.8930913-4.5918925,4.5918925-9.9390844,8.1970764-15.8930913,10.7154564-6.1643435,2.6073536-12.7122877,3.9292739-19.4621784,3.9292739ZM50.0001951.0999001C22.4851321.0999001.0999001,22.4849369.0999001,50s22.3850368,49.9000999,49.9000999,49.9000999h.0001951c27.5148679,0,49.8999048-22.3850368,49.8999048-49.8999048C99.9000999,22.4851321,77.5150631.0999001,50.0001951.0999001Z"/><path class="cls-4" d="M70.02997,100.0001951H29.97003V.0001951h40.0599401v100ZM30.0699301,99.900295h39.8601399V.1000952H30.0699301v99.8001998Z"/><rect class="cls-4" x="49.95005" y=".04995" width=".0999001" height="99.9000999"/><path class="cls-4" d="M100,70.02997H0V29.97003h100v40.0599401ZM.0999001,69.9300699h99.8001998V30.0699301H.0999001v39.8601399Z"/><rect class="cls-4" x=".04995" y="49.95005" width="99.9000999" height=".0999001"/><rect class="cls-4" x="49.9500553" y="-20.6400381" width=".0998894" height="141.2800762" transform="translate(-20.7106781 50) rotate(-45)"/><rect class="cls-4" x="-20.6400381" y="49.9500553" width="141.2800762" height=".0998894" transform="translate(-20.7106781 50) rotate(-45)"/><path class="cls-4" d="M85.4200487,85.4200487H14.5801464V14.5801464h70.8399023v70.8399023ZM14.7799466,85.2202485h70.4403019V14.7799466H14.7799466v70.4403019Z"/><path class="cls-4" d="M50,85.4200487c-19.5306646,0-35.4198536-15.8891889-35.4198536-35.4198536S30.4693354,14.5801464,50,14.5801464s35.4200487,15.8891889,35.4200487,35.4198536-15.8893841,35.4200487-35.4200487,35.4200487ZM50,14.7799466c-19.4204233,0-35.2200534,15.7996301-35.2200534,35.2200534s15.7996301,35.2202485,35.2200534,35.2202485,35.2202485-15.7996301,35.2202485-35.2200534S69.4204233,14.7799466,50,14.7799466Z"/><path class="cls-4" d="M50,70.0301651c-11.0446194,0-20.02997-8.9853506-20.02997-20.02997s8.9853506-20.0301651,20.02997-20.0301651,20.0301651,8.9853506,20.0301651,20.02997-8.9855457,20.0301651-20.0301651,20.0301651ZM50,30.0699301c-10.9894012,0-19.9300699,8.9406687-19.9300699,19.9300699,0,10.9895963,8.9406687,19.930265,19.9300699,19.930265,10.9895963,0,19.930265-8.9406687,19.930265-19.9300699,0-10.9895963-8.9406687-19.930265-19.930265-19.930265Z"/><path class="cls-4" d="M50,60.03996c-5.5360655,0-10.03996-4.5038945-10.03996-10.03996s4.5038945-10.03996,10.03996-10.03996,10.03996,4.5038945,10.03996,10.03996-4.5038945,10.03996-10.03996,10.03996ZM50,40.0599401c-5.4810424,0-9.9400599,4.4590175-9.9400599,9.9400599s4.4590175,9.9400599,9.9400599,9.9400599,9.9400599-4.4590175,9.9400599-9.9400599-4.4590175-9.9400599-9.9400599-9.9400599Z"/><path class="cls-3" d="M14.700165,56.761674h70.6199264v.0000139c0,7.659494-6.2185373,13.8780313-13.8780313,13.8780313H28.5781964c-7.659494,0-13.8780314-6.2185373-13.8780314-13.8780314v-.0000139h0Z"/><path class="cls-5" d="M14.700165,56.761674l-.0101204-37.6611102c0-2.4413827,1.9791317-4.4205144,4.4205144-4.4205144h61.7788976c2.4413827,0,4.4205144,1.9791317,4.4205144,4.4205144l.0101204,37.6611102H14.700165"/><polygon class="cls-1" points="56.3017179 78.6188415 56.3007697 78.6188415 56.2970824 70.6397192 43.7030331 70.6397192 43.7067204 78.6188415 43.6985029 78.6188415 41.9458439 80.6749182 50.0002157 80.6749182 58.0542715 80.6749182 56.3017179 78.6188415"/><polygon class="cls-2" points="14.700165 53.7400222 35.7209818 36.0264188 50.0000577 49.9999377 69.9802231 30.0199177 85.3200914 43.7122368 85.3200914 56.761674 14.700165 56.761674 14.700165 53.7400222"/><circle class="cls-3" cx="35.7209818" cy="35.7208617" r="1.8028336"/><circle class="cls-3" cx="69.9802231" cy="30.0199177" r="1.8028336"/><circle class="cls-3" cx="50.0000577" cy="49.9999377" r="1.8028336"/><rect class="cls-3" x="35.4920558" y="80.1995623" width="29.0160038" height="5.1783325"/></svg>