<?xml version="1.0" encoding="UTF-8"?><svg id="_Шар_1" xmlns="http://www.w3.org/2000/svg" xmlns:xlink="http://www.w3.org/1999/xlink" viewBox="0 0 100 100.0000976"><defs><style>.cls-1{fill:#191919;}.cls-2{fill:#1d1d1b;}.cls-3{fill:url(#linear-gradient);}</style><linearGradient id="linear-gradient" x1="-2.4132575" y1="130.1120864" x2="81.4033731" y2="-17.505263" gradientUnits="userSpaceOnUse"><stop offset="0" stop-color="#b1b1b1"/><stop offset="1" stop-color="#333"/></linearGradient></defs><path class="cls-2" d="M100,100.0000976H0V0h100v100.0000976ZM.0999001,99.9001975h99.8001998V.0999001H.0999001v99.8002974Z"/><path class="cls-2" d="M50,100.0000976c-6.7498907,0-13.2980301-1.3219203-19.462276-3.9292739-5.9540069-2.5183801-11.3011988-6.1235639-15.8930913-10.7154564s-8.1970764-9.9390844-10.7153589-15.8930913c-2.607256-6.1641484-3.9292739-12.7122877-3.9292739-19.4621784s1.3220178-13.2980301,3.9292739-19.4623736c2.5182825-5.9538118,6.1234664-11.3011988,10.7153589-15.8930913,4.5918925-4.5918925,9.9390844-8.1970764,15.8929937-10.7152613,6.1643435-2.6073536,12.7123853-3.9293714,19.462276-3.9293714,6.7499883,0,13.2980301,1.3220178,19.4623736,3.9293714,5.9539094,2.5181849,11.3011012,6.1233688,15.8930913,10.7152613,4.5918925,4.5918925,8.1970764,9.9390844,10.7153589,15.8930913,2.607256,6.1643435,3.9292739,12.7122877,3.9292739,19.4621784s-1.3220178,13.2980301-3.9292739,19.4623736c-2.5182825,5.9540069-6.1234664,11.3011988-10.7153589,15.8930913s-9.9390844,8.1970764-15.8930913,10.7154564c-6.1642459,2.6073536-12.7123853,3.9292739-19.462276,3.9292739ZM50,.0999001C22.4850345.0999001.0999001,22.4850345.0999001,49.9999024c0,27.5150631,22.3850368,49.900295,49.9000023,49.900295h.0000976c27.5149655,0,49.9000999-22.3850368,49.9000999-49.9000999S77.5149655.0999001,50,.0999001Z"/><path class="cls-2" d="M70.02997,100.0000976H29.97003V.0000976h40.0599401v100ZM30.0699301,99.9001975h39.8601399V.0999977H30.0699301v99.8001998Z"/><rect class="cls-2" x="49.9499524" y=".04995" width=".0999001" height="99.9001975"/><path class="cls-2" d="M100,70.0298725H0V29.9699324h100v40.0599401ZM.0999001,69.9299724h99.8001998V30.0698325H.0999001v39.8601399Z"/><rect class="cls-2" x=".04995" y="49.9499524" width="99.9000999" height=".0999001"/><rect class="cls-2" x="49.9500553" y="-20.6400238" width=".0998894" height="141.2801451" transform="translate(-20.7107126 49.9999798) rotate(-44.999972)"/><rect class="cls-2" x="-20.6400726" y="49.9501041" width="141.2801451" height=".0998894" transform="translate(-20.7107126 50.0000143) rotate(-45)"/><path class="cls-2" d="M85.4199511,85.4199511H14.5800489V14.5800489h70.8399023v70.8399023ZM14.7798491,85.2201509h70.4403019V14.7798491H14.7798491v70.4403019Z"/><path class="cls-2" d="M50,85.4199511c-19.5306646,0-35.4199511-15.8891889-35.4199511-35.4198536S30.4693354,14.5800489,50,14.5800489s35.4199511,15.8891889,35.4199511,35.4198536-15.8892865,35.4200487-35.4199511,35.4200487ZM50,14.7798491c-19.4204233,0-35.2201509,15.7996301-35.2201509,35.2200534s15.7997276,35.2202485,35.2201509,35.2202485,35.2201509-15.7996301,35.2201509-35.2200534S69.4204233,14.7798491,50,14.7798491Z"/><path class="cls-2" d="M50,70.0300676c-11.044717,0-20.0301651-8.9853506-20.0301651-20.02997s8.9854481-20.0301651,20.0301651-20.0301651c11.0446194,0,20.0300676,8.9855457,20.0300676,20.0301651s-8.9854481,20.02997-20.0300676,20.02997ZM50,30.0698325c-10.9895963,0-19.930265,8.9406687-19.930265,19.930265,0,10.9894012,8.9406687,19.9300699,19.930265,19.9300699,10.9894988,0,19.9301675-8.9406687,19.9301675-19.9300699,0-10.9895963-8.9406687-19.930265-19.9301675-19.930265Z"/><path class="cls-2" d="M50,60.0400576c-5.5360655,0-10.03996-4.5038945-10.03996-10.03996s4.5038945-10.03996,10.03996-10.03996,10.03996,4.5038945,10.03996,10.03996-4.5038945,10.03996-10.03996,10.03996ZM50,40.0600376c-5.4809448,0-9.9400599,4.4590175-9.9400599,9.9400599s4.4591151,9.9400599,9.9400599,9.9400599,9.9400599-4.4590175,9.9400599-9.9400599-4.4591151-9.9400599-9.9400599-9.9400599Z"/><path class="cls-3" d="M82.3383509,25.0345506c-7.0343009-13.0841538-22.4670336-13.2548484-32.2926683-3.0673677-10.5077282-10.8262784-26.0645702-9.9439434-33.2121099,5.0341509-10.6488605,22.3153202,20.9735265,50.2977841,33.1664495,58.3187227,12.5757446-8.3682832,42.0151907-34.270198,33.9358814-56.6830054-.4666517-1.2944303-1.0020025-2.4947469-1.5975528-3.6025005Z"/><path class="cls-1" d="M58.6333533,47.4977114h-6.0201425v-6.152411c0-.7362216-.6171752-1.3352875-1.3756522-1.3352875h-2.4751431c-.758477,0-1.3756522.5990659-1.3756522,1.3352875v6.152411h-6.0201425c-.758477,0-1.3756522.5990659-1.3756522,1.3352875v2.2653613c0,.7362216.6171752,1.3352875,1.3756522,1.3352875h6.0201425v6.2211973c0,.7362216.6171752,1.3352875,1.3756522,1.3352875h2.4751431c.758477,0,1.3756522-.5990659,1.3756522-1.3352875v-6.2211973h6.0201425c.758477,0,1.3756522-.5990659,1.3756522-1.3352875v-2.2653613c0-.7362216-.6171752-1.3352875-1.3756522-1.3352875Z"/></svg>