<?xml version="1.0" encoding="UTF-8"?><svg id="_Шар_1" xmlns="http://www.w3.org/2000/svg" xmlns:xlink="http://www.w3.org/1999/xlink" viewBox="0 0 100 100.0000976"><defs><style>.cls-1{fill:url(#linear-gradient-2);}.cls-2{fill:#191919;}.cls-3{fill:#1d1d1b;}.cls-4{fill:url(#linear-gradient);}</style><linearGradient id="linear-gradient" x1="45.5073098" y1="30.2345153" x2="52.5570781" y2="17.2480999" gradientUnits="userSpaceOnUse"><stop offset="0" stop-color="#b1b1b1"/><stop offset="1" stop-color="#333"/></linearGradient><linearGradient id="linear-gradient-2" x1="7.1279934" y1="85.267839" x2="89.8312944" y2="17.5423012" xlink:href="#linear-gradient"/></defs><path class="cls-3" d="M100,100.0000976H0V0h100v100.0000976ZM.0999001,99.9001975h99.8001998V.0999001H.0999001v99.8002974Z"/><path class="cls-3" d="M50.0001951,100.0000976c-6.7498907,0-13.2980301-1.3219203-19.4623736-3.9292739-5.9540069-2.5183801-11.3011988-6.1235639-15.8930913-10.7154564s-8.1970764-9.9390844-10.7154564-15.8930913c-2.6073536-6.1641484-3.9292739-12.7122877-3.9292739-19.4621784s1.3219203-13.2980301,3.9292739-19.4623736c2.5183801-5.9538118,6.1235639-11.3011988,10.7154564-15.8930913S24.5838146,6.4475563,30.5378216,3.9293714c6.1641484-2.6073536,12.7122877-3.9293714,19.4621784-3.9293714s13.2980301,1.3220178,19.4621784,3.9293714c5.9540069,2.5181849,11.3011988,6.1233688,15.8930913,10.7152613s8.1970764,9.9390844,10.7154564,15.8930913c2.6073536,6.1643435,3.9292739,12.7122877,3.9292739,19.4621784s-1.3219203,13.2980301-3.9292739,19.4623736c-2.5183801,5.9540069-6.1235639,11.3011988-10.7152613,15.8930913-4.5918925,4.5918925-9.9390844,8.1970764-15.8930913,10.7154564-6.1643435,2.6073536-12.7122877,3.9292739-19.4621784,3.9292739ZM50.0001951.0999001C22.4851321.0999001.0999001,22.4850345.0999001,49.9999024c0,27.5150631,22.3850368,49.900295,49.9000999,49.900295h.0001951c27.5148679,0,49.8999048-22.3850368,49.8999048-49.9000999S77.5150631.0999001,50.0001951.0999001Z"/><path class="cls-3" d="M70.02997,100.0000976H29.97003V.0000976h40.0599401v100ZM30.0699301,99.9001975h39.8601399V.0999977H30.0699301v99.8001998Z"/><rect class="cls-3" x="49.95005" y=".04995" width=".0999001" height="99.9001975"/><path class="cls-3" d="M100,70.0298725H0V29.9699324h100v40.0599401ZM.0999001,69.9299724h99.8001998V30.0698325H.0999001v39.8601399Z"/><rect class="cls-3" x=".04995" y="49.9499524" width="99.9000999" height=".0999001"/><rect class="cls-3" x="49.9500553" y="-20.6400238" width=".0998894" height="141.2801451" transform="translate(-20.7107126 49.9999798) rotate(-44.999972)"/><rect class="cls-3" x="-20.6400726" y="49.9501041" width="141.2801451" height=".0998894" transform="translate(-20.7107126 50.0000143) rotate(-45)"/><path class="cls-3" d="M85.4200487,85.4199511H14.5801464V14.5800489h70.8399023v70.8399023ZM14.7799466,85.2201509h70.4403019V14.7798491H14.7799466v70.4403019Z"/><path class="cls-3" d="M50,85.4199511c-19.5306646,0-35.4198536-15.8891889-35.4198536-35.4198536S30.4693354,14.5800489,50,14.5800489s35.4200487,15.8891889,35.4200487,35.4198536-15.8893841,35.4200487-35.4200487,35.4200487ZM50,14.7798491c-19.4204233,0-35.2200534,15.7996301-35.2200534,35.2200534s15.7996301,35.2202485,35.2200534,35.2202485,35.2202485-15.7996301,35.2202485-35.2200534S69.4204233,14.7798491,50,14.7798491Z"/><path class="cls-3" d="M50,70.0300676c-11.0446194,0-20.02997-8.9853506-20.02997-20.02997s8.9853506-20.0301651,20.02997-20.0301651,20.0301651,8.9855457,20.0301651,20.0301651-8.9855457,20.02997-20.0301651,20.02997ZM50,30.0698325c-10.9894012,0-19.9300699,8.9406687-19.9300699,19.930265,0,10.9894012,8.9406687,19.9300699,19.9300699,19.9300699,10.9895963,0,19.930265-8.9406687,19.930265-19.9300699,0-10.9895963-8.9406687-19.930265-19.930265-19.930265Z"/><path class="cls-3" d="M50,60.0400576c-5.5360655,0-10.03996-4.5038945-10.03996-10.03996s4.5038945-10.03996,10.03996-10.03996,10.03996,4.5038945,10.03996,10.03996-4.5038945,10.03996-10.03996,10.03996ZM50,40.0600376c-5.4810424,0-9.9400599,4.4590175-9.9400599,9.9400599s4.4590175,9.9400599,9.9400599,9.9400599,9.9400599-4.4590175,9.9400599-9.9400599-4.4590175-9.9400599-9.9400599-9.9400599Z"/><rect class="cls-2" x="48.0056788" y="26.7825744" width="3.4349266" height="16.276552"/><path class="cls-4" d="M49.7231485,14.483214s-4.9370286,3.444689-4.9370286,8.3077461c0,4.8630828,4.9370286,3.9174784,4.9370286,3.9174784,0,0,4.9370157.9456044,4.9370157-3.9174784,0-4.863057-4.9370157-8.3077461-4.9370157-8.3077461Z"/><path class="cls-2" d="M49.7231071,35.3437764h.0000701c19.3408094,0,35.0430928,15.7022834,35.0430928,35.0430928v14.9331874H14.6800143v-14.9331874c0-19.3408094,15.7022834-35.0430928,35.0430928-35.0430928Z"/><path class="cls-1" d="M32.7298656,35.3437764h33.9865531c9.9686576,0,18.0498513,8.0811937,18.0498513,18.0498513v.4346484c0,3.2588463-3.3972154,5.4046022-6.3399429,4.0044472l-17.8446768-6.7691717c-1.225333-.5830156-2.6836894-.3458386-3.6611249.5954202l-6.1700153,5.9416512c-1.6179696,1.5580854-4.1453892,1.6603703-5.883973.2381249l-7.7968382-6.3781897c-1.2449289-1.0184119-3.0466449-.9763898-4.2427403.0989549l-10.7474586,9.6624588c-2.8543078,2.5661538-7.3994854.5404662-7.3994854-3.297791v-4.5305532c0-9.9686576,8.0811937-18.0498513,18.0498513-18.0498513Z"/></svg>