<?xml version="1.0" encoding="UTF-8"?><svg id="_Шар_1" xmlns="http://www.w3.org/2000/svg" xmlns:xlink="http://www.w3.org/1999/xlink" viewBox="0 0 100 100"><defs><style>.cls-1{fill:#191919;}.cls-2{fill:#1d1d1b;}.cls-3{fill:url(#linear-gradient);}</style><linearGradient id="linear-gradient" x1="14.3233216" y1="49.9979172" x2="85.4737325" y2="49.9979172" gradientUnits="userSpaceOnUse"><stop offset="0" stop-color="#b1b1b1"/><stop offset="1" stop-color="#333"/></linearGradient></defs><path class="cls-2" d="M100,100H0V0h100v100ZM.0999,99.9001h99.8002V.0999H.0999v99.8002Z"/><path class="cls-2" d="M50.0000488,100c-6.7498841,0-13.2980171-1.321919-19.4623546-3.92927-5.953806-2.5183776-11.3011878-6.123558-15.8930758-10.715446-4.5917904-4.591888-8.1970684-9.9390747-10.7153484-15.8930758-2.6072535-6.1641423-3.92927-12.7122753-3.92927-19.4621595s1.3220165-13.2980171,3.92927-19.4623546c2.51828-5.953806,6.1234604-11.3011878,10.7153484-15.8930758S24.5836931,6.4475501,30.5376942,3.9293676c6.1643375-2.607351,12.7122753-3.9293676,19.4621595-3.9293676s13.2980171,1.3220165,19.4623546,3.9293676c5.9540011,2.5181825,11.3011878,6.1233628,15.8930758,10.7152508s8.1970684,9.9390747,10.715446,15.8930758c2.607351,6.1643375,3.92927,12.7122753,3.92927,19.4621595s-1.321919,13.2980171-3.92927,19.4623546c-2.5183776,5.9540011-6.123558,11.3011878-10.715446,15.8930758s-9.9390747,8.1970684-15.8930758,10.715446c-6.1641423,2.607351-12.7122753,3.92927-19.4621595,3.92927ZM50.0000488.0999C22.4850126.0999.0999,22.4850126.0999,49.9998537c0,27.5150362,22.3851126,49.9002463,49.8999537,49.9002463h.0001951c27.5150362,0,49.9000512-22.385015,49.9000512-49.9000512S77.515085.0999,50.0000488.0999Z"/><path class="cls-2" d="M70.0299993,100H29.9700983V.0000976h40.059901v99.9999024ZM30.0699983,99.9001h39.860101V.0999976H30.0699983v99.8001024Z"/><rect class="cls-2" x="49.9499037" y=".04995" width=".0999" height="99.9001"/><path class="cls-2" d="M100,70.0298042H.0000976V29.9699032h99.9999024v40.059901ZM.0999976,69.9299041h99.8001024V30.0698032H.0999976v39.860101Z"/><rect class="cls-2" x=".04995" y="49.9499037" width="99.9001" height=".0999"/><rect class="cls-2" x="49.9500553" y="-20.6400381" width=".0998893" height="141.2800763" transform="translate(-20.7106781 50) rotate(-45)"/><rect class="cls-2" x="-20.6400381" y="49.9500553" width="141.2800763" height=".0998893" transform="translate(-20.7106781 50) rotate(-45)"/><path class="cls-2" d="M85.4198678,85.4198678H14.5800346V14.5800346h70.8398332v70.8398332ZM14.7798346,85.2200678h70.4402332V14.7798346H14.7798346v70.4402332Z"/><path class="cls-2" d="M50.0000488,85.4198678c-19.5306456,0-35.4200141-15.8891734-35.4200141-35.419819S30.4694032,14.5800346,50.0000488,14.5800346s35.419819,15.8891734,35.419819,35.419819-15.8891734,35.4200141-35.419819,35.4200141ZM50.0000488,14.7798346c-19.4204044,0-35.2202141,15.7996146-35.2202141,35.220019s15.7998098,35.2202141,35.2202141,35.2202141,35.220019-15.7996146,35.220019-35.220019S69.4204532,14.7798346,50.0000488,14.7798346Z"/><path class="cls-2" d="M50.0000488,70.0299993c-11.0446087,0-20.0301456-8.9853418-20.0301456-20.0299505s8.9855369-20.0301456,20.0301456-20.0301456,20.0299505,8.9855369,20.0299505,20.0301456-8.9853418,20.0299505-20.0299505,20.0299505ZM50.0000488,30.0698032c-10.9895856,0-19.9302456,8.94066-19.9302456,19.9302456,0,10.9893905,8.94066,19.9300505,19.9302456,19.9300505,10.9893905,0,19.9300505-8.94066,19.9300505-19.9300505,0-10.9895856-8.94066-19.9302456-19.9300505-19.9302456Z"/><path class="cls-2" d="M50.0000488,60.039999c-5.5360601,0-10.0399502-4.5038901-10.0399502-10.0399502s4.5038901-10.0399502,10.0399502-10.0399502,10.0399502,4.5038901,10.0399502,10.0399502-4.5038901,10.0399502-10.0399502,10.0399502ZM50.0000488,40.0599985c-5.481037,0-9.9400502,4.4590132-9.9400502,9.9400502s4.4590132,9.9400502,9.9400502,9.9400502,9.9400502-4.4590132,9.9400502-9.9400502-4.4590132-9.9400502-9.9400502-9.9400502Z"/><path class="cls-3" d="M80.6496063,52.4722074c3.0497175-3.0837441,4.9076125-7.3485943,4.8212401-12.0480562-.1600561-8.7085384-7.1060815-15.9023145-15.8044115-16.3532186-2.073208-.107471-4.0676982.1664009-5.9230016.753559-1.9050755-5.8886856-7.4305505-10.1486305-13.9535621-10.1486305-7.8644423,0-14.281798,6.1905807-14.6479354,13.9644399-.0026829,0-.0053169-.0000976-.0079998-.0000976-11.4933782,0-20.8106144,9.3172849-20.8106144,20.8106632,0,6.2107266,2.7223238,11.7841028,7.0369015,15.5969854-.0842906.5571571-.2125673,1.1336189-.1283871,1.7081535.1482418,1.0117587.2407586,1.3432682,1.607319,3.1328594h0l-8.1591552,15.4311085h0c1.882106-1.9883929,7.6426195-6.8489122,17.6187858-7.2445367.0864369.0019512.1721421.0065364.2590181.0065364.0030409,0,.0060814-.0000016.0091216-.0000047.5680752-.0005801,1.1076622.2349995,1.4843411.660232,3.5727399,4.033263,8.78775,6.5777424,14.5997545,6.5777424,8.396283,0,15.5529377-5.3053828,18.3018463-12.7465184,1.9540142,1.1948707,4.2705396,1.8550321,6.7466246,1.7749937,6.3447137-.2050903,11.5235975-5.3520167,11.7651755-11.6954459.1582574-4.1555714-1.767885-7.8683987-4.815061-10.1807648Z"/><path class="cls-1" d="M58.331604,45.024691c-1.8448223-3.2243772-5.8765859-3.2890378-8.4741635-.8147793-.0317335.0302269-.0793874.0302732-.1111695.0001388-2.7744775-2.6306335-6.8415192-2.3899421-8.7168635,1.3027883-2.6652627,5.2481545,4.7064581,11.9258551,8.2269454,14.3054639.3334039.225358.7574547.225358,1.0909268-.0000461,3.547763-2.3980646,10.4308821-8.6219805,8.4062962-13.8994392-.1232597-.3212725-.2646653-.6191863-.4219719-.8941264Z"/></svg>