<?xml version="1.0" encoding="UTF-8"?><svg id="_Шар_1" xmlns="http://www.w3.org/2000/svg" xmlns:xlink="http://www.w3.org/1999/xlink" viewBox="0 0 100 100.0000976"><defs><style>.cls-1{fill:url(#linear-gradient-2);}.cls-2{fill:#191919;}.cls-3{fill:#1d1d1b;}.cls-4{fill:url(#linear-gradient);}</style><linearGradient id="linear-gradient" x1="36.0217505" y1="94.8509266" x2="75.8560637" y2="25.4366779" gradientUnits="userSpaceOnUse"><stop offset="0" stop-color="#b1b1b1"/><stop offset="1" stop-color="#333"/></linearGradient><linearGradient id="linear-gradient-2" x1="8.6929965" y1="108.0476883" x2="42.1815042" y2="2.3994197" xlink:href="#linear-gradient"/></defs><path class="cls-3" d="M100,100.0000976H0V0h100v100.0000976ZM.0999001,99.9001975h99.8001998V.0999001H.0999001v99.8002974Z"/><path class="cls-3" d="M50.0001951,100.0000976c-6.7498907,0-13.2980301-1.3219203-19.4623736-3.9292739-5.9540069-2.5183801-11.3011988-6.1235639-15.8930913-10.7154564s-8.1970764-9.9390844-10.7154564-15.8930913c-2.6073536-6.1641484-3.9292739-12.7122877-3.9292739-19.4621784s1.3219203-13.2980301,3.9292739-19.4623736c2.5183801-5.9538118,6.1235639-11.3011988,10.7154564-15.8930913S24.5838146,6.4475563,30.5378216,3.9293714c6.1641484-2.6073536,12.7122877-3.9293714,19.4621784-3.9293714s13.2980301,1.3220178,19.4621784,3.9293714c5.9540069,2.5181849,11.3011988,6.1233688,15.8930913,10.7152613s8.1970764,9.9390844,10.7154564,15.8930913c2.6073536,6.1643435,3.9292739,12.7122877,3.9292739,19.4621784s-1.3219203,13.2980301-3.9292739,19.4623736c-2.5183801,5.9540069-6.1235639,11.3011988-10.7152613,15.8930913-4.5918925,4.5918925-9.9390844,8.1970764-15.8930913,10.7154564-6.1643435,2.6073536-12.7122877,3.9292739-19.4621784,3.9292739ZM50.0001951.0999001C22.4851321.0999001.0999001,22.4850345.0999001,49.9999024c0,27.5150631,22.3850368,49.900295,49.9000999,49.900295h.0001951c27.5148679,0,49.8999048-22.3850368,49.8999048-49.9000999S77.5150631.0999001,50.0001951.0999001Z"/><path class="cls-3" d="M70.02997,100.0000976H29.97003V.0000976h40.0599401v100ZM30.0699301,99.9001975h39.8601399V.0999977H30.0699301v99.8001998Z"/><rect class="cls-3" x="49.95005" y=".04995" width=".0999001" height="99.9001975"/><path class="cls-3" d="M100,70.0298725H0V29.9699324h100v40.0599401ZM.0999001,69.9299724h99.8001998V30.0698325H.0999001v39.8601399Z"/><rect class="cls-3" x=".04995" y="49.9499524" width="99.9000999" height=".0999001"/><rect class="cls-3" x="49.9500553" y="-20.6400238" width=".0998894" height="141.2801451" transform="translate(-20.7107126 49.9999798) rotate(-44.999972)"/><rect class="cls-3" x="-20.6400726" y="49.9501041" width="141.2801451" height=".0998894" transform="translate(-20.7107126 50.0000143) rotate(-45)"/><path class="cls-3" d="M85.4200487,85.4199511H14.5801464V14.5800489h70.8399023v70.8399023ZM14.7799466,85.2201509h70.4403019V14.7798491H14.7799466v70.4403019Z"/><path class="cls-3" d="M50.0001951,85.4199511c-19.5306646,0-35.4200487-15.8891889-35.4200487-35.4198536S30.4693354,14.5800489,50,14.5800489s35.4200487,15.8891889,35.4200487,35.4198536-15.8891889,35.4200487-35.4198536,35.4200487ZM50.0001951,14.7798491c-19.4204233,0-35.2202485,15.7996301-35.2202485,35.2200534s15.7996301,35.2202485,35.2200534,35.2202485h.0001951c19.4204233,0,35.2200534-15.7996301,35.2200534-35.2200534S69.4206184,14.7798491,50.0001951,14.7798491Z"/><path class="cls-3" d="M50,70.0300676c-11.0446194,0-20.02997-8.9853506-20.02997-20.02997s8.9853506-20.0301651,20.02997-20.0301651,20.0301651,8.9855457,20.0301651,20.0301651-8.9855457,20.02997-20.0301651,20.02997ZM50,30.0698325c-10.9894012,0-19.9300699,8.9406687-19.9300699,19.930265,0,10.9894012,8.9406687,19.9300699,19.9300699,19.9300699,10.9895963,0,19.930265-8.9406687,19.930265-19.9300699,0-10.9895963-8.9406687-19.930265-19.930265-19.930265Z"/><path class="cls-3" d="M50,60.0400576c-5.5360655,0-10.03996-4.5038945-10.03996-10.03996s4.5038945-10.03996,10.03996-10.03996,10.03996,4.5038945,10.03996,10.03996-4.5038945,10.03996-10.03996,10.03996ZM50,40.0600376c-5.4810424,0-9.9400599,4.4590175-9.9400599,9.9400599s4.4590175,9.9400599,9.9400599,9.9400599,9.9400599-4.4590175,9.9400599-9.9400599-4.4590175-9.9400599-9.9400599-9.9400599Z"/><path class="cls-2" d="M85.812813,52.2976171v-16.1138351c0-3.6400773-2.6992149-6.590943-6.0288653-6.590943h-13.1748843c-2.6297829,0-4.7616432,2.3306159-4.7616432,5.2055764v22.6580441h19.246498c2.6061736,0,4.7188947-2.3096924,4.7188947-5.1588425Z"/><path class="cls-4" d="M76.7948701,29.5928792h-26.6994223c-2.6297868,0-4.7616502,2.3306194-4.7616502,5.2055841v45.3160091c0,2.8749647,2.1318634,5.2055841,4.7616502,5.2055841h13.2391554c4.1590832,0,7.5306864-3.6859414,7.5306864-8.2327806v-41.0119949s0-6.4824018,5.9295805-6.4824018Z"/><path class="cls-2" d="M61.5373084,85.3200565h-25.133318c-2.6297868,0-4.7616502-2.3306194-4.7616502-5.2055841V19.8855733c0-2.8749647,2.1318634-5.2055841,4.7616502-5.2055841h13.174893c3.3296389,0,6.0288445,2.9508556,6.0288445,6.5909204v57.5667452s0,6.4824018,5.9295805,6.4824018Z"/><path class="cls-1" d="M47.7072203,14.6799892h-28.2655265c-2.6297868,0-4.7616502,2.3306194-4.7616502,5.2055841v53.0623495c0,2.8749647,2.1318634,5.2055841,4.7616502,5.2055841h17.5742959c2.6297868,0,4.7616502-2.3306194,4.7616502-5.2055841V21.162391s0-6.4824018,5.9295805-6.4824018Z"/></svg>