<?xml version="1.0" encoding="UTF-8"?><svg id="_Шар_1" xmlns="http://www.w3.org/2000/svg" xmlns:xlink="http://www.w3.org/1999/xlink" viewBox="0 0 100 100.0000976"><defs><style>.cls-1{fill:url(#linear-gradient-2);}.cls-2{fill:url(#linear-gradient-4);}.cls-3{fill:url(#linear-gradient-3);}.cls-4{fill:#1d1d1b;}.cls-5{fill:url(#linear-gradient);}</style><linearGradient id="linear-gradient" x1="49.8094307" y1="58.1518425" x2="49.8094307" y2="27.7566459" gradientUnits="userSpaceOnUse"><stop offset="0" stop-color="#b1b1b1"/><stop offset="1" stop-color="#333"/></linearGradient><linearGradient id="linear-gradient-2" x1="49.8000639" y1="48.056602" x2="49.8000639" y2="13.9011426" xlink:href="#linear-gradient"/><linearGradient id="linear-gradient-3" x1="50.393209" y1="74.6614665" x2="49.7576305" y2="45.9333194" xlink:href="#linear-gradient"/><linearGradient id="linear-gradient-4" x1="50.0721177" y1="88.594927" x2="50.0721177" y2="65.9695579" xlink:href="#linear-gradient"/></defs><path class="cls-4" d="M99.9998049,99.9999024H0V0h99.9998049v99.9999024ZM.0999,99.9000024h99.8000049V.0999H.0999v99.8001024Z"/><path class="cls-4" d="M50.0000488,99.9999024c-6.7498841,0-13.2980171-1.321919-19.4623546-3.92927-5.9539036-2.5183776-11.3011878-6.123558-15.8930758-10.7152508-4.591888-4.591888-8.1970684-9.9390747-10.7153484-15.8930758-2.6072535-6.1643375-3.92927-12.7122753-3.92927-19.4621595s1.3220165-13.2980171,3.92927-19.4623546c2.51828-5.9540011,6.1234604-11.3011878,10.7153484-15.8930758S24.5836931,6.4476476,30.5376942,3.92927c6.1641423-2.607351,12.7122753-3.92927,19.4621595-3.92927s13.2980171,1.321919,19.4623546,3.92927c5.9540011,2.5183776,11.3011878,6.123558,15.8930758,10.715446s8.1970684,9.9390747,10.7152508,15.8930758c2.607351,6.1641423,3.92927,12.7122753,3.92927,19.4621595s-1.321919,13.2980171-3.92927,19.4621595c-2.5181825,5.9540011-6.1233628,11.3011878-10.7152508,15.8930758s-9.9390747,8.1970684-15.8930758,10.715446c-6.1641423,2.607351-12.7122753,3.92927-19.4621595,3.92927ZM50.0000488.0999C22.4850126.0999.0999,22.484915.0999,49.9999512s22.385015,49.9000512,49.8999537,49.9000512h.0001951c27.5148411,0,49.8998561-22.385015,49.8998561-49.8998561C99.8999049,22.4851101,77.5148899.0999,50.0000488.0999Z"/><path class="cls-4" d="M70.0299993,100.0000976H29.9700007V.0001951h40.0599985v99.9999024ZM30.0699007,99.9001976h39.8601985V.1000951H30.0699007v99.8001024Z"/><rect class="cls-4" x="49.9499037" y=".04995" width=".0999" height="99.9000024"/><path class="cls-4" d="M100,70.0299017H0V29.9700007h100v40.059901ZM.0999,69.9300017h99.8002V30.0699007H.0999v39.860101Z"/><rect class="cls-4" x=".04995" y="49.9500012" width="99.8999049" height=".0999"/><rect class="cls-4" x="49.9499578" y="-20.6399835" width=".0998893" height="141.2798693" transform="translate(-20.7106722 49.9998822) rotate(-44.999972)"/><rect class="cls-4" x="-20.6400322" y="49.9500066" width="141.2798693" height=".0998893" transform="translate(-20.7106722 49.9999167) rotate(-45)"/><path class="cls-4" d="M85.4198678,85.4199654H14.5800346V14.5801322h70.8398332v70.8398332ZM14.7798346,85.2201654h70.4402332V14.7799322H14.7798346v70.4402332Z"/><path class="cls-4" d="M50.0000488,85.4199654c-19.5306456,0-35.4200141-15.8891734-35.4200141-35.419819S30.4693056,14.5801322,49.9998537,14.5801322c19.5306456,0,35.4200141,15.8891734,35.4200141,35.419819s-15.8891734,35.4200141-35.419819,35.4200141ZM50.0000488,14.7799322c-19.4205019,0-35.2202141,15.7996146-35.2202141,35.220019s15.7996146,35.2202141,35.220019,35.2202141h.0001951c19.4204044,0,35.220019-15.7996146,35.220019-35.220019S69.4204532,14.7799322,50.0000488,14.7799322Z"/><path class="cls-4" d="M50.0000488,70.0300968c-11.0446087,0-20.0301456-8.9853418-20.0301456-20.0299505s8.9853418-20.0301456,20.0299505-20.0301456,20.0301456,8.9853418,20.0301456,20.0299505-8.9853418,20.0301456-20.0299505,20.0301456ZM50.0000488,30.0699007c-10.9895856,0-19.9302456,8.94066-19.9302456,19.9300505,0,10.9895856,8.94066,19.9302456,19.9300505,19.9302456h.0001951c10.9893905,0,19.9300505-8.94066,19.9300505-19.9300505,0-10.9895856-8.94066-19.9302456-19.9300505-19.9302456Z"/><path class="cls-4" d="M50.0000488,60.0399015c-5.5360601,0-10.0401454-4.5038901-10.0401454-10.0399502s4.5038901-10.0399502,10.0399502-10.0399502,10.0399502,4.5038901,10.0399502,10.0399502-4.5038901,10.0399502-10.0397551,10.0399502ZM50.0000488,40.059901c-5.481037,0-9.9402454,4.4590132-9.9402454,9.9400502s4.4590132,9.9400502,9.9400502,9.9400502h.0001951c5.4808419,0,9.9398551-4.4590132,9.9398551-9.9400502s-4.4590132-9.9400502-9.9398551-9.9400502Z"/><path class="cls-5" d="M57.3969407,29.4892085h-31.5185748v23.2370588c0,.8022307.7928215,1.4525672,1.7708163,1.4525672h44.320497c.9779949,0,1.7708163-.6503365,1.7708163-1.4525672v-23.2370588h-16.3435549Z"/><polygon class="cls-1" points="49.8717766 14.247641 49.871912 14.1771928 49.8000639 14.2124621 49.7282158 14.1771928 49.7283512 14.247641 17.1731986 30.2214998 49.8000639 47.4356534 82.4269292 30.2214998 49.8717766 14.247641"/><path class="cls-3" d="M84.8789932,51.468244H14.8242854v17.0177666h70.0528362c.3746738,0,.578771-.3429063.33486-.5652264-1.3059742-1.1903697-3.7384251-3.8925184-3.815439-7.7547457-.080939-4.0571734,2.4868056-6.9153775,3.8178661-8.133109.2431751-.2224707.0389262-.5646855-.3354154-.5646855Z"/><path class="cls-2" d="M84.8789932,68.3022669H14.8242854v17.0177666h70.0528362c.3746738,0,.578771-.3429063.33486-.5652264-1.3059742-1.1903697-3.7384251-3.8925184-3.815439-7.7547457-.080939-4.0571734,2.4868056-6.9153775,3.8178661-8.133109.2431751-.2224707.0389262-.5646855-.3354154-.5646855Z"/></svg>