<?xml version="1.0" encoding="UTF-8"?><svg id="_Шар_1" xmlns="http://www.w3.org/2000/svg" xmlns:xlink="http://www.w3.org/1999/xlink" viewBox="0 0 100 100.0001951"><defs><style>.cls-1{fill:#fff;}.cls-2{fill:#191919;}.cls-3{fill:#1d1d1b;}.cls-4{fill:url(#linear-gradient);}</style><linearGradient id="linear-gradient" x1="9.5637749" y1="67.9159864" x2="66.1259736" y2="2.2040202" gradientUnits="userSpaceOnUse"><stop offset="0" stop-color="#b1b1b1"/><stop offset="1" stop-color="#333"/></linearGradient></defs><path class="cls-3" d="M100,100H0V0h100v100ZM.0999001,99.9000999h99.8001998V.0999001H.0999001v99.8001998Z"/><path class="cls-3" d="M50,100c-6.7498907,0-13.2980301-1.3219203-19.4621784-3.9292739-5.9540069-2.5183801-11.3011988-6.1235639-15.8930913-10.7152613-4.5918925-4.5918925-8.1970764-9.9390844-10.7154564-15.8930913-2.6073536-6.1643435-3.9292739-12.7122877-3.9292739-19.4621784s1.3219203-13.2980301,3.9292739-19.4623736c2.5183801-5.9540069,6.1235639-11.3011988,10.7154564-15.8930913S24.5838146,6.4476539,30.5378216,3.9292739c6.1641484-2.6073536,12.7122877-3.9292739,19.4621784-3.9292739s13.2980301,1.3219203,19.4621784,3.9292739c5.9540069,2.5183801,11.3011988,6.1235639,15.8930913,10.7154564s8.1970764,9.9390844,10.7154564,15.8930913c2.6073536,6.1641484,3.9292739,12.7122877,3.9292739,19.4621784s-1.3219203,13.2980301-3.9292739,19.4621784c-2.5183801,5.9540069-6.1235639,11.3011988-10.7154564,15.8930913-4.5918925,4.5918925-9.9390844,8.1970764-15.8930913,10.7154564-6.1641484,2.6073536-12.7122877,3.9292739-19.4621784,3.9292739ZM50,.0999001C22.4849369.0999001.0999001,22.4849369.0999001,50s22.3850368,49.9000999,49.9000999,49.9000999,49.9000999-22.3850368,49.9000999-49.8999048C99.9000999,22.4851321,77.5150631.0999001,50,.0999001Z"/><path class="cls-3" d="M70.02997,100.0001951H29.97003V.0001951h40.0599401v100ZM30.0699301,99.900295h39.8601399V.1000952H30.0699301v99.8001998Z"/><rect class="cls-3" x="49.95005" y=".04995" width=".0999001" height="99.9000999"/><path class="cls-3" d="M100,70.02997H0V29.97003h100v40.0599401ZM.0999001,69.9300699h99.8001998V30.0699301H.0999001v39.8601399Z"/><rect class="cls-3" x=".04995" y="49.95005" width="99.9000999" height=".0999001"/><rect class="cls-3" x="49.9500553" y="-20.6400381" width=".0998894" height="141.2800762" transform="translate(-20.7106781 50) rotate(-45)"/><rect class="cls-3" x="-20.6400381" y="49.9500553" width="141.2800762" height=".0998894" transform="translate(-20.7106781 50) rotate(-45)"/><path class="cls-3" d="M85.4200487,85.4200487H14.5801464V14.5801464h70.8399023v70.8399023ZM14.7799466,85.2202485h70.4403019V14.7799466H14.7799466v70.4403019Z"/><path class="cls-3" d="M50,85.4200487c-19.5306646,0-35.4198536-15.8891889-35.4198536-35.4198536S30.4693354,14.5801464,50,14.5801464s35.4200487,15.8891889,35.4200487,35.4198536-15.8893841,35.4200487-35.4200487,35.4200487ZM50,14.7799466c-19.4204233,0-35.2200534,15.7996301-35.2200534,35.2200534s15.7996301,35.2202485,35.2200534,35.2202485,35.2202485-15.7996301,35.2202485-35.2200534S69.4204233,14.7799466,50,14.7799466Z"/><path class="cls-3" d="M50,70.0301651c-11.0446194,0-20.0301651-8.9853506-20.0301651-20.02997s8.9855457-20.0301651,20.0301651-20.0301651,20.0301651,8.9853506,20.0301651,20.02997-8.9855457,20.0301651-20.0301651,20.0301651ZM50,30.0699301c-10.9895963,0-19.930265,8.9406687-19.930265,19.9300699,0,10.9895963,8.9406687,19.930265,19.930265,19.930265s19.930265-8.9406687,19.930265-19.9300699c0-10.9895963-8.9406687-19.930265-19.930265-19.930265Z"/><path class="cls-3" d="M50,60.03996c-5.5360655,0-10.03996-4.5038945-10.03996-10.03996s4.5038945-10.03996,10.03996-10.03996,10.03996,4.5038945,10.03996,10.03996-4.5038945,10.03996-10.03996,10.03996ZM50,40.0599401c-5.4810424,0-9.9400599,4.4590175-9.9400599,9.9400599s4.4590175,9.9400599,9.9400599,9.9400599,9.9400599-4.4590175,9.9400599-9.9400599-4.4590175-9.9400599-9.9400599-9.9400599Z"/><path class="cls-4" d="M19.4101257,14.6800494h41.5290582c2.6123791,0,4.7301309,2.1529859,4.7301309,4.8088286v25.7289368c0,2.6558427-2.1177517,4.8088286-4.7301309,4.8088286h-17.4890192c-6.0062374,0-11.7180879,2.6013679-15.6607318,7.1324216l-.0000062.0000071c-.2192345.2519535-.6285618.0943078-.6285618-.2420803v-6.5848406c0-.1383443-.1103149-.2504945-.2463951-.2504945h-7.504344c-2.6123791,0-4.7301309-2.1529859-4.7301309-4.8088286v-25.78395c0-2.6558427,2.1177517-4.8088286,4.7301309-4.8088286Z"/><path class="cls-2" d="M80.7078494,43.7791262h-40.4937814c-2.5472552,0-4.6122136,2.0993142-4.6122136,4.6889494v25.0875408c0,2.5896352,2.0649583,4.6889494,4.6122136,4.6889494h17.0530359c5.8565081,0,11.4259681,2.5365184,15.2703258,6.9546176l.0000061.000007c.2137692.2456726.6128924.0919568.6128924-.2360455v-6.4206872c0-.1348955.1075648-.24425.2402528-.24425h7.3172684c2.5472552,0,4.6122136-2.0993142,4.6122136-4.6889494v-25.1411826c0-2.5896352-2.0649583-4.6889494-4.6122136-4.6889494Z"/><path class="cls-1" d="M65.3811542,66.5144468c-.8150009.8083206-1.9552828,1.3080611-3.4205887,1.4997353v1.890021h-2.6294828v-1.8080585c-2.0272249-.1970699-3.6980795-.8722976-5.0128209-2.0272249l2.1572345-3.0264489c.5475306.5341699,1.2016896.9624822,1.9619631,1.2839091.7600166.3219408,1.5783577.4827827,2.4547663.4827827.4244582,0,.7839117-.0932678,1.0786172-.2800602.2944486-.1867925.4416729-.4409021.4416729-.7615582,0-.3383847-.1472243-.6094521-.4416729-.8142301-.2947056-.204778-.7908489-.3872025-1.4894579-.5477875-1.1503024-.1988684-2.0953129-.4146947-2.8350316-.6469648-.7394617-.2325271-1.4038982-.634118-1.9927954-1.2050297s-.8833459-1.3674133-.8833459-2.3902754c0-.69013.1747165-1.3340116.5238925-1.9316447s.8661312-1.1022553,1.5511225-1.5138668c.6847344-.4116114,1.513096-.6772832,2.4858556-.7967585v-1.8489113h2.6294828v1.8889933c1.6847292.2232774,3.1227999.8003556,4.314212,1.7317485l-2.2186422,2.8710026c-.5752797-.4380758-1.2122239-.7733773-1.9105759-1.0064182-.6986089-.232784-1.3352963-.3494329-1.9105759-.3494329-.8355558,0-1.2533337.2718383-1.2533337.8155148,0,.2952194.1438841.5166983.4316524.6644364.2875114.1474813.814487.2911085,1.5816979.4306247,1.0408476.1783136,1.9480886.3938829,2.7222367.6472217.7733773.2535958,1.4483481.6677766,2.0233708,1.2427993.5752797.5752797.8630479,1.3491708.8630479,2.3214166,0,1.3149983-.4077574,2.3764009-1.2225014,3.1844645Z"/></svg>